<svg xmlns="http://www.w3.org/2000/svg" xmlns:xlink="http://www.w3.org/1999/xlink" width="500" zoomAndPan="magnify" viewBox="0 0 375 374.999991" height="500" preserveAspectRatio="xMidYMid meet" version="1.0"><defs><clipPath id="9307f2b1cb"><path d="M 0 0.234375 L 375 0.234375 L 375 374.484375 L 0 374.484375 Z M 0 0.234375 " clip-rule="nonzero"/></clipPath></defs><g clip-path="url(#9307f2b1cb)"><path fill="#110d2c" d="M 374.757812 187.347656 C 374.761719 190.902344 374.664062 194.457031 374.464844 198.007812 C 374.265625 201.558594 373.960938 205.097656 373.558594 208.632812 C 373.15625 212.164062 372.65625 215.683594 372.050781 219.1875 C 371.449219 222.695312 370.746094 226.179688 369.941406 229.644531 C 369.140625 233.105469 368.238281 236.546875 367.238281 239.957031 C 366.238281 243.371094 365.144531 246.753906 363.953125 250.105469 C 362.757812 253.453125 361.472656 256.769531 360.089844 260.046875 C 358.707031 263.324219 357.234375 266.558594 355.667969 269.75 C 354.097656 272.941406 352.441406 276.089844 350.695312 279.1875 C 348.949219 282.285156 347.117188 285.332031 345.195312 288.324219 C 343.273438 291.320312 341.269531 294.253906 339.179688 297.132812 C 337.09375 300.015625 334.921875 302.832031 332.671875 305.585938 C 330.421875 308.34375 328.097656 311.03125 325.695312 313.652344 C 323.289062 316.277344 320.8125 318.828125 318.265625 321.308594 C 315.714844 323.792969 313.097656 326.199219 310.410156 328.53125 C 307.722656 330.863281 304.972656 333.117188 302.15625 335.289062 C 297.90625 338.585938 293.511719 341.699219 288.96875 344.628906 C 285.082031 347.140625 281.097656 349.507812 277.011719 351.734375 C 267.773438 356.769531 258.179688 360.992188 248.222656 364.398438 C 238.269531 367.808594 228.097656 370.351562 217.707031 372.03125 C 212.507812 372.878906 207.234375 373.503906 201.886719 373.90625 C 199.71875 374.074219 197.53125 374.199219 195.335938 374.289062 C 192.746094 374.398438 190.136719 374.453125 187.511719 374.453125 C 184.601562 374.453125 181.714844 374.382812 178.84375 374.25 C 176.636719 374.152344 174.449219 374.015625 172.269531 373.835938 C 166.949219 373.410156 161.699219 372.765625 156.515625 371.902344 C 146.289062 370.199219 136.273438 367.660156 126.46875 364.28125 C 116.667969 360.90625 107.210938 356.742188 98.105469 351.785156 C 93.722656 349.398438 89.453125 346.847656 85.289062 344.128906 C 81.050781 341.371094 76.9375 338.441406 72.945312 335.34375 C 70.128906 333.167969 67.375 330.914062 64.683594 328.582031 C 61.996094 326.25 59.375 323.84375 56.824219 321.363281 C 54.269531 318.882812 51.792969 316.332031 49.386719 313.707031 C 46.980469 311.085938 44.652344 308.394531 42.398438 305.640625 C 40.148438 302.882812 37.976562 300.066406 35.882812 297.183594 C 33.792969 294.304688 31.785156 291.367188 29.863281 288.375 C 27.941406 285.378906 26.105469 282.332031 24.355469 279.230469 C 22.609375 276.132812 20.949219 272.984375 19.378906 269.792969 C 17.8125 266.597656 16.335938 263.359375 14.953125 260.082031 C 13.570312 256.804688 12.28125 253.488281 11.085938 250.136719 C 9.890625 246.785156 8.796875 243.402344 7.792969 239.988281 C 6.792969 236.570312 5.890625 233.132812 5.089844 229.664062 C 4.285156 226.199219 3.582031 222.710938 2.976562 219.207031 C 2.371094 215.699219 1.871094 212.179688 1.464844 208.644531 C 1.0625 205.109375 0.761719 201.566406 0.5625 198.011719 C 0.363281 194.460938 0.265625 190.90625 0.265625 187.347656 C 0.265625 84.007812 84.097656 0.234375 187.511719 0.234375 C 290.929688 0.234375 374.757812 84.007812 374.757812 187.347656 Z M 374.757812 187.347656 " fill-opacity="1" fill-rule="nonzero"/></g><path fill="#0085f8" d="M 361.480469 187.347656 C 361.484375 190.644531 361.390625 193.9375 361.207031 197.230469 C 361.023438 200.523438 360.742188 203.804688 360.371094 207.082031 C 360 210.359375 359.535156 213.621094 358.976562 216.871094 C 358.417969 220.121094 357.765625 223.351562 357.023438 226.5625 C 356.28125 229.777344 355.445312 232.964844 354.523438 236.128906 C 353.597656 239.292969 352.582031 242.429688 351.480469 245.539062 C 350.375 248.644531 349.1875 251.71875 347.90625 254.757812 C 346.628906 257.796875 345.265625 260.796875 343.8125 263.757812 C 342.363281 266.71875 340.832031 269.640625 339.214844 272.511719 C 337.597656 275.386719 335.902344 278.214844 334.125 280.992188 C 332.347656 283.769531 330.492188 286.492188 328.558594 289.164062 C 326.625 291.835938 324.617188 294.453125 322.535156 297.011719 C 320.453125 299.566406 318.300781 302.066406 316.074219 304.5 C 313.851562 306.933594 311.558594 309.304688 309.199219 311.609375 C 306.839844 313.914062 304.414062 316.148438 301.929688 318.316406 C 299.441406 320.480469 296.894531 322.574219 294.289062 324.597656 C 292.28125 326.152344 290.246094 327.664062 288.175781 329.136719 C 287.0625 329.929688 285.9375 330.703125 284.804688 331.472656 C 282.285156 333.175781 279.71875 334.8125 277.109375 336.375 C 273.75 338.394531 270.324219 340.292969 266.832031 342.078125 C 263.339844 343.863281 259.796875 345.527344 256.191406 347.074219 C 252.589844 348.621094 248.9375 350.042969 245.238281 351.339844 C 241.539062 352.640625 237.800781 353.8125 234.023438 354.859375 C 230.246094 355.90625 226.433594 356.824219 222.59375 357.613281 C 218.753906 358.402344 214.890625 359.0625 211.007812 359.59375 C 207.121094 360.121094 203.222656 360.519531 199.3125 360.785156 C 195.398438 361.050781 191.484375 361.183594 187.5625 361.183594 C 183.640625 361.183594 179.726562 361.054688 175.8125 360.789062 C 171.902344 360.527344 168.003906 360.132812 164.117188 359.605469 C 160.230469 359.078125 156.367188 358.421875 152.527344 357.636719 C 148.6875 356.847656 144.878906 355.933594 141.097656 354.886719 C 137.320312 353.84375 133.578125 352.671875 129.878906 351.375 C 126.179688 350.078125 122.527344 348.65625 118.925781 347.113281 C 115.320312 345.570312 111.773438 343.90625 108.28125 342.125 C 104.789062 340.339844 101.363281 338.441406 98 336.429688 L 98 336.421875 C 95.136719 334.710938 92.328125 332.914062 89.570312 331.03125 C 88.492188 330.296875 87.417969 329.546875 86.355469 328.785156 C 84.46875 327.441406 82.609375 326.050781 80.785156 324.625 C 78.175781 322.601562 75.628906 320.507812 73.136719 318.34375 C 70.648438 316.175781 68.222656 313.941406 65.863281 311.636719 C 63.503906 309.332031 61.207031 306.960938 58.980469 304.527344 C 56.757812 302.09375 54.601562 299.59375 52.519531 297.039062 C 50.433594 294.480469 48.425781 291.863281 46.492188 289.191406 C 44.558594 286.519531 42.699219 283.792969 40.921875 281.015625 C 39.144531 278.238281 37.445312 275.410156 35.828125 272.535156 C 34.210938 269.660156 32.675781 266.742188 31.222656 263.78125 C 29.773438 260.820312 28.40625 257.816406 27.128906 254.777344 C 25.847656 251.738281 24.65625 248.664062 23.550781 245.554688 C 22.449219 242.445312 21.433594 239.308594 20.507812 236.144531 C 19.582031 232.976562 18.75 229.789062 18.003906 226.574219 C 17.261719 223.363281 16.609375 220.128906 16.050781 216.878906 C 15.492188 213.628906 15.027344 210.363281 14.65625 207.089844 C 14.28125 203.8125 14.003906 200.527344 13.820312 197.234375 C 13.632812 193.941406 13.542969 190.644531 13.546875 187.347656 C 13.546875 91.339844 91.433594 13.507812 187.511719 13.507812 C 283.59375 13.507812 361.480469 91.339844 361.480469 187.347656 Z M 361.480469 187.347656 " fill-opacity="1" fill-rule="nonzero"/><path fill="#110d2c" d="M 181.386719 68.167969 L 194.101562 68.167969 L 194.101562 113.105469 L 181.386719 113.105469 Z M 181.386719 68.167969 " fill-opacity="1" fill-rule="nonzero"/><path fill="#ffffff" d="M 219.488281 109.5625 L 219.488281 119.289062 C 219.488281 119.839844 219.4375 120.382812 219.328125 120.921875 C 219.222656 121.457031 219.0625 121.980469 218.851562 122.488281 C 218.640625 122.996094 218.382812 123.476562 218.078125 123.933594 C 217.773438 124.386719 217.429688 124.808594 217.039062 125.199219 C 216.652344 125.585938 216.230469 125.933594 215.773438 126.238281 C 215.316406 126.542969 214.835938 126.796875 214.328125 127.007812 C 213.820312 127.21875 213.296875 127.378906 212.757812 127.484375 C 212.222656 127.589844 211.675781 127.644531 211.128906 127.644531 L 163.035156 127.644531 C 162.488281 127.644531 161.945312 127.59375 161.40625 127.484375 C 160.867188 127.378906 160.34375 127.21875 159.835938 127.007812 C 159.328125 126.800781 158.847656 126.542969 158.390625 126.238281 C 157.933594 125.933594 157.511719 125.585938 157.125 125.199219 C 156.734375 124.808594 156.390625 124.386719 156.085938 123.933594 C 155.777344 123.476562 155.523438 122.996094 155.3125 122.488281 C 155.101562 121.980469 154.941406 121.457031 154.835938 120.921875 C 154.730469 120.382812 154.675781 119.839844 154.675781 119.289062 L 154.675781 109.5625 C 154.675781 109.011719 154.730469 108.46875 154.835938 107.933594 C 154.941406 107.394531 155.101562 106.871094 155.3125 106.367188 C 155.523438 105.859375 155.777344 105.378906 156.085938 104.921875 C 156.390625 104.464844 156.734375 104.042969 157.125 103.65625 C 157.511719 103.269531 157.933594 102.921875 158.390625 102.617188 C 158.847656 102.3125 159.328125 102.054688 159.835938 101.847656 C 160.34375 101.636719 160.863281 101.476562 161.402344 101.371094 C 161.941406 101.265625 162.484375 101.210938 163.035156 101.210938 L 211.128906 101.210938 C 211.675781 101.210938 212.222656 101.265625 212.757812 101.371094 C 213.296875 101.476562 213.820312 101.636719 214.328125 101.84375 C 214.835938 102.054688 215.316406 102.3125 215.773438 102.617188 C 216.230469 102.921875 216.652344 103.265625 217.039062 103.65625 C 217.425781 104.042969 217.773438 104.464844 218.078125 104.917969 C 218.382812 105.375 218.640625 105.855469 218.851562 106.363281 C 219.0625 106.871094 219.222656 107.390625 219.328125 107.929688 C 219.4375 108.46875 219.488281 109.011719 219.488281 109.558594 Z M 219.488281 109.5625 " fill-opacity="1" fill-rule="nonzero"/><path fill="#ffffff" d="M 204.9375 61.558594 C 204.9375 62.121094 204.910156 62.683594 204.855469 63.242188 C 204.800781 63.800781 204.71875 64.359375 204.609375 64.910156 C 204.5 65.464844 204.363281 66.007812 204.199219 66.546875 C 204.035156 67.085938 203.84375 67.617188 203.628906 68.136719 C 203.414062 68.65625 203.175781 69.164062 202.910156 69.660156 C 202.644531 70.15625 202.355469 70.640625 202.042969 71.109375 C 201.730469 71.574219 201.394531 72.027344 201.035156 72.464844 C 200.679688 72.898438 200.300781 73.316406 199.902344 73.714844 C 199.503906 74.113281 199.089844 74.488281 198.652344 74.847656 C 198.21875 75.203125 197.765625 75.539062 197.296875 75.851562 C 196.828125 76.164062 196.347656 76.453125 195.851562 76.71875 C 195.351562 76.984375 194.84375 77.226562 194.324219 77.441406 C 193.804688 77.65625 193.273438 77.847656 192.734375 78.011719 C 192.195312 78.171875 191.648438 78.3125 191.097656 78.421875 C 190.546875 78.53125 189.988281 78.613281 189.429688 78.667969 C 188.867188 78.722656 188.304688 78.75 187.742188 78.753906 C 187.179688 78.753906 186.617188 78.726562 186.054688 78.671875 C 185.496094 78.613281 184.9375 78.53125 184.386719 78.421875 C 183.832031 78.3125 183.289062 78.175781 182.75 78.015625 C 182.210938 77.851562 181.679688 77.660156 181.160156 77.445312 C 180.636719 77.230469 180.128906 76.992188 179.632812 76.726562 C 179.136719 76.460938 178.652344 76.171875 178.183594 75.859375 C 177.714844 75.546875 177.265625 75.210938 176.828125 74.855469 C 176.390625 74.496094 175.976562 74.121094 175.578125 73.722656 C 175.179688 73.324219 174.800781 72.90625 174.441406 72.472656 C 174.085938 72.039062 173.75 71.585938 173.4375 71.117188 C 173.125 70.648438 172.835938 70.167969 172.570312 69.671875 C 172.300781 69.175781 172.0625 68.667969 171.847656 68.148438 C 171.628906 67.628906 171.441406 67.097656 171.277344 66.558594 C 171.113281 66.019531 170.976562 65.476562 170.867188 64.921875 C 170.757812 64.371094 170.671875 63.816406 170.617188 63.253906 C 170.5625 62.695312 170.535156 62.132812 170.535156 61.570312 C 170.535156 61.007812 170.5625 60.445312 170.617188 59.886719 C 170.671875 59.324219 170.753906 58.769531 170.863281 58.214844 C 170.972656 57.664062 171.109375 57.117188 171.273438 56.582031 C 171.4375 56.042969 171.625 55.511719 171.839844 54.992188 C 172.058594 54.472656 172.296875 53.964844 172.5625 53.464844 C 172.828125 52.96875 173.117188 52.488281 173.429688 52.019531 C 173.742188 51.550781 174.078125 51.097656 174.433594 50.664062 C 174.792969 50.230469 175.167969 49.8125 175.566406 49.414062 C 175.964844 49.015625 176.382812 48.636719 176.820312 48.28125 C 177.253906 47.921875 177.707031 47.589844 178.175781 47.277344 C 178.640625 46.960938 179.125 46.671875 179.621094 46.40625 C 180.117188 46.140625 180.625 45.902344 181.148438 45.6875 C 181.667969 45.46875 182.199219 45.28125 182.738281 45.117188 C 183.277344 44.953125 183.820312 44.816406 184.375 44.707031 C 184.925781 44.597656 185.484375 44.515625 186.042969 44.457031 C 186.605469 44.402344 187.167969 44.375 187.730469 44.375 L 187.742188 44.375 C 188.304688 44.375 188.867188 44.402344 189.425781 44.457031 C 189.988281 44.511719 190.542969 44.597656 191.097656 44.707031 C 191.648438 44.816406 192.195312 44.953125 192.734375 45.117188 C 193.273438 45.28125 193.800781 45.46875 194.320312 45.683594 C 194.84375 45.898438 195.351562 46.140625 195.847656 46.40625 C 196.34375 46.671875 196.824219 46.960938 197.292969 47.273438 C 197.761719 47.585938 198.214844 47.917969 198.648438 48.277344 C 199.085938 48.632812 199.5 49.011719 199.898438 49.410156 C 200.296875 49.808594 200.675781 50.222656 201.03125 50.660156 C 201.390625 51.09375 201.726562 51.542969 202.039062 52.011719 C 202.351562 52.480469 202.640625 52.960938 202.90625 53.457031 C 203.171875 53.953125 203.410156 54.464844 203.628906 54.984375 C 203.84375 55.503906 204.03125 56.03125 204.195312 56.570312 C 204.359375 57.109375 204.496094 57.652344 204.605469 58.207031 C 204.714844 58.757812 204.796875 59.3125 204.855469 59.875 C 204.910156 60.433594 204.9375 60.996094 204.9375 61.558594 Z M 204.9375 61.558594 " fill-opacity="1" fill-rule="nonzero"/><path fill="#ffffff" d="M 284.804688 331.472656 C 282.285156 333.175781 279.71875 334.8125 277.109375 336.375 C 273.75 338.394531 270.324219 340.292969 266.832031 342.078125 C 263.34375 343.863281 259.796875 345.527344 256.191406 347.074219 C 252.589844 348.621094 248.9375 350.042969 245.238281 351.339844 C 241.539062 352.640625 237.800781 353.8125 234.023438 354.859375 C 230.246094 355.90625 226.4375 356.824219 222.59375 357.613281 C 218.753906 358.402344 214.890625 359.0625 211.007812 359.59375 C 207.121094 360.121094 203.222656 360.519531 199.3125 360.785156 C 195.398438 361.050781 191.484375 361.183594 187.5625 361.183594 C 183.640625 361.183594 179.726562 361.054688 175.8125 360.789062 C 171.902344 360.527344 168.003906 360.132812 164.117188 359.605469 C 160.230469 359.078125 156.367188 358.421875 152.527344 357.636719 C 148.6875 356.847656 144.878906 355.933594 141.097656 354.886719 C 137.320312 353.84375 133.578125 352.671875 129.878906 351.375 C 126.179688 350.078125 122.527344 348.65625 118.925781 347.113281 C 115.320312 345.570312 111.773438 343.90625 108.28125 342.125 C 104.789062 340.339844 101.363281 338.441406 98 336.429688 L 98 336.421875 C 95.136719 334.710938 92.328125 332.914062 89.570312 331.03125 C 90.152344 329.820312 90.777344 328.628906 91.4375 327.472656 C 91.980469 326.527344 92.546875 325.605469 93.144531 324.703125 C 93.234375 324.566406 93.328125 324.429688 93.425781 324.292969 C 93.503906 324.175781 93.582031 324.058594 93.660156 323.941406 C 93.964844 323.492188 94.269531 323.054688 94.589844 322.621094 C 94.757812 322.390625 94.921875 322.164062 95.097656 321.9375 C 95.332031 321.617188 95.574219 321.300781 95.820312 320.988281 C 98.496094 317.578125 101.539062 314.539062 104.953125 311.867188 C 108.367188 309.195312 112.050781 306.96875 116.003906 305.1875 C 116.015625 305.183594 116.023438 305.175781 116.035156 305.175781 C 123.046875 302.019531 130.394531 300.449219 138.082031 300.46875 L 236.082031 300.46875 C 240.238281 300.460938 244.335938 300.925781 248.378906 301.871094 C 252.421875 302.816406 256.304688 304.214844 260.023438 306.0625 C 260.023438 306.066406 260.027344 306.066406 260.03125 306.066406 C 263.640625 307.867188 267.003906 310.042969 270.121094 312.59375 C 273.242188 315.148438 276.039062 318.015625 278.515625 321.195312 C 279.132812 321.988281 279.726562 322.796875 280.300781 323.628906 C 280.496094 323.902344 280.675781 324.179688 280.867188 324.460938 C 280.878906 324.480469 280.890625 324.492188 280.90625 324.511719 C 280.964844 324.605469 281.027344 324.703125 281.085938 324.792969 C 281.679688 325.695312 282.242188 326.621094 282.78125 327.5625 C 283.507812 328.832031 284.179688 330.140625 284.804688 331.472656 Z M 284.804688 331.472656 " fill-opacity="1" fill-rule="nonzero"/><path fill="#ddebf0" d="M 262.203125 309.628906 C 262.203125 317.832031 228.710938 328.453125 187.402344 328.453125 C 146.089844 328.453125 112.601562 317.832031 112.601562 309.628906 C 112.601562 301.425781 146.089844 294.777344 187.402344 294.777344 C 228.710938 294.777344 262.203125 301.425781 262.203125 309.628906 Z M 262.203125 309.628906 " fill-opacity="1" fill-rule="nonzero"/><path fill="#110d2c" d="M 222.191406 299.207031 C 222.191406 299.632812 222.175781 300.054688 222.152344 300.464844 C 221.660156 307.679688 216.871094 311.511719 209.582031 313.503906 C 203.558594 315.148438 195.828125 315.542969 187.398438 315.542969 C 168.761719 315.542969 153.554688 313.636719 152.652344 300.464844 C 152.628906 300.054688 152.613281 299.632812 152.613281 299.207031 C 152.613281 297.296875 152.886719 295.429688 153.429688 293.601562 C 156.863281 281.980469 170.769531 273.285156 187.398438 273.285156 C 196.800781 273.285156 205.339844 276.070312 211.601562 280.589844 C 216.375 284.027344 219.828125 288.480469 221.339844 293.484375 C 221.90625 295.347656 222.191406 297.257812 222.191406 299.207031 Z M 222.191406 299.207031 " fill-opacity="1" fill-rule="nonzero"/><path fill="#ffffff" d="M 293.917969 212.546875 C 293.917969 259.53125 263.539062 285.058594 221.339844 293.484375 C 215.003906 294.738281 208.613281 295.609375 202.171875 296.097656 C 197.242188 296.480469 192.214844 296.671875 187.085938 296.671875 C 175.769531 296.730469 164.550781 295.707031 153.429688 293.601562 C 110.917969 285.300781 80.253906 259.753906 80.253906 212.546875 C 80.253906 164.878906 111.519531 127.625 154.675781 115.109375 C 165.261719 112.054688 176.066406 110.539062 187.085938 110.5625 C 187.304688 110.5625 187.523438 110.5625 187.742188 110.566406 C 194.742188 110.59375 201.683594 111.246094 208.570312 112.519531 C 212.253906 113.199219 215.894531 114.0625 219.488281 115.105469 C 262.648438 127.621094 293.917969 164.875 293.917969 212.546875 Z M 293.917969 212.546875 " fill-opacity="1" fill-rule="nonzero"/><path fill="#110d2c" d="M 137.089844 159.1875 L 237.082031 159.1875 C 238.5625 159.1875 240.035156 159.257812 241.507812 159.402344 C 242.980469 159.546875 244.441406 159.765625 245.890625 160.054688 C 247.34375 160.34375 248.777344 160.699219 250.191406 161.128906 C 251.605469 161.558594 252.996094 162.054688 254.363281 162.621094 C 255.730469 163.1875 257.066406 163.816406 258.371094 164.515625 C 259.675781 165.210938 260.941406 165.96875 262.171875 166.792969 C 263.402344 167.613281 264.585938 168.492188 265.730469 169.429688 C 266.875 170.367188 267.96875 171.359375 269.015625 172.402344 C 270.0625 173.449219 271.054688 174.542969 271.992188 175.683594 C 272.929688 176.828125 273.808594 178.011719 274.632812 179.242188 C 275.453125 180.472656 276.210938 181.738281 276.910156 183.039062 C 277.605469 184.34375 278.238281 185.679688 278.804688 187.042969 C 279.371094 188.410156 279.867188 189.800781 280.296875 191.214844 C 280.726562 192.628906 281.085938 194.058594 281.375 195.507812 C 281.664062 196.960938 281.878906 198.417969 282.023438 199.890625 C 282.167969 201.359375 282.242188 202.835938 282.242188 204.3125 L 282.242188 220.777344 C 282.242188 222.257812 282.167969 223.730469 282.023438 225.203125 C 281.878906 226.671875 281.664062 228.132812 281.375 229.582031 C 281.085938 231.03125 280.726562 232.464844 280.296875 233.878906 C 279.867188 235.292969 279.371094 236.683594 278.804688 238.046875 C 278.238281 239.414062 277.605469 240.746094 276.910156 242.050781 C 276.210938 243.355469 275.453125 244.621094 274.632812 245.847656 C 273.808594 247.078125 272.929688 248.265625 271.992188 249.40625 C 271.054688 250.550781 270.0625 251.644531 269.015625 252.6875 C 267.96875 253.734375 266.875 254.722656 265.730469 255.660156 C 264.585938 256.597656 263.402344 257.480469 262.171875 258.300781 C 260.941406 259.121094 259.675781 259.878906 258.371094 260.578125 C 257.066406 261.273438 255.730469 261.90625 254.363281 262.46875 C 252.996094 263.035156 251.605469 263.53125 250.191406 263.960938 C 248.777344 264.390625 247.34375 264.75 245.890625 265.039062 C 244.441406 265.328125 242.980469 265.542969 241.507812 265.6875 C 240.035156 265.832031 238.5625 265.90625 237.082031 265.90625 L 137.089844 265.90625 C 135.609375 265.90625 134.132812 265.832031 132.664062 265.6875 C 131.191406 265.542969 129.730469 265.328125 128.277344 265.039062 C 126.828125 264.75 125.394531 264.390625 123.980469 263.960938 C 122.5625 263.53125 121.171875 263.035156 119.808594 262.46875 C 118.441406 261.90625 117.105469 261.273438 115.800781 260.578125 C 114.496094 259.878906 113.230469 259.121094 112 258.300781 C 110.769531 257.480469 109.582031 256.597656 108.441406 255.660156 C 107.296875 254.722656 106.203125 253.734375 105.15625 252.6875 C 104.109375 251.644531 103.117188 250.550781 102.179688 249.40625 C 101.242188 248.265625 100.359375 247.078125 99.539062 245.847656 C 98.71875 244.621094 97.957031 243.355469 97.261719 242.050781 C 96.5625 240.746094 95.933594 239.414062 95.367188 238.046875 C 94.800781 236.683594 94.300781 235.292969 93.875 233.878906 C 93.445312 232.464844 93.085938 231.03125 92.796875 229.582031 C 92.507812 228.132812 92.289062 226.671875 92.144531 225.203125 C 92 223.730469 91.929688 222.257812 91.929688 220.777344 L 91.929688 204.3125 C 91.929688 202.835938 92 201.359375 92.144531 199.890625 C 92.289062 198.417969 92.507812 196.960938 92.796875 195.507812 C 93.085938 194.058594 93.445312 192.628906 93.875 191.214844 C 94.300781 189.800781 94.800781 188.410156 95.367188 187.042969 C 95.933594 185.679688 96.5625 184.34375 97.261719 183.039062 C 97.957031 181.738281 98.71875 180.472656 99.539062 179.242188 C 100.359375 178.011719 101.242188 176.828125 102.179688 175.683594 C 103.117188 174.542969 104.109375 173.449219 105.15625 172.402344 C 106.203125 171.359375 107.296875 170.367188 108.441406 169.429688 C 109.582031 168.492188 110.769531 167.613281 112 166.792969 C 113.230469 165.96875 114.496094 165.210938 115.800781 164.515625 C 117.105469 163.816406 118.441406 163.1875 119.808594 162.621094 C 121.171875 162.054688 122.5625 161.558594 123.980469 161.128906 C 125.394531 160.699219 126.828125 160.34375 128.277344 160.054688 C 129.730469 159.765625 131.191406 159.546875 132.664062 159.402344 C 134.132812 159.257812 135.609375 159.1875 137.089844 159.1875 Z M 137.089844 159.1875 " fill-opacity="1" fill-rule="nonzero"/><path fill="#004cea" d="M 156.460938 212.546875 C 156.460938 213.070312 156.4375 213.597656 156.382812 214.121094 C 156.332031 214.644531 156.253906 215.164062 156.152344 215.679688 C 156.050781 216.195312 155.921875 216.703125 155.769531 217.207031 C 155.617188 217.710938 155.441406 218.203125 155.238281 218.691406 C 155.035156 219.175781 154.8125 219.652344 154.5625 220.113281 C 154.316406 220.578125 154.046875 221.027344 153.753906 221.464844 C 153.460938 221.902344 153.148438 222.324219 152.8125 222.730469 C 152.480469 223.140625 152.128906 223.527344 151.753906 223.898438 C 151.382812 224.273438 150.992188 224.625 150.585938 224.957031 C 150.179688 225.292969 149.757812 225.605469 149.320312 225.898438 C 148.882812 226.1875 148.429688 226.460938 147.96875 226.707031 C 147.503906 226.953125 147.027344 227.179688 146.542969 227.378906 C 146.054688 227.582031 145.558594 227.757812 145.058594 227.910156 C 144.554688 228.0625 144.042969 228.191406 143.527344 228.292969 C 143.011719 228.398438 142.492188 228.472656 141.96875 228.527344 C 141.441406 228.578125 140.917969 228.601562 140.390625 228.601562 C 139.867188 228.601562 139.339844 228.578125 138.816406 228.527344 C 138.292969 228.472656 137.773438 228.398438 137.257812 228.292969 C 136.742188 228.191406 136.230469 228.0625 135.726562 227.910156 C 135.222656 227.757812 134.730469 227.582031 134.242188 227.378906 C 133.757812 227.179688 133.28125 226.953125 132.816406 226.707031 C 132.351562 226.460938 131.902344 226.1875 131.464844 225.898438 C 131.027344 225.605469 130.605469 225.292969 130.199219 224.957031 C 129.789062 224.625 129.402344 224.273438 129.027344 223.898438 C 128.65625 223.527344 128.304688 223.140625 127.96875 222.730469 C 127.636719 222.324219 127.324219 221.902344 127.03125 221.464844 C 126.738281 221.027344 126.46875 220.578125 126.21875 220.113281 C 125.972656 219.652344 125.746094 219.175781 125.546875 218.691406 C 125.34375 218.203125 125.167969 217.710938 125.015625 217.207031 C 124.863281 216.703125 124.734375 216.195312 124.632812 215.679688 C 124.527344 215.164062 124.453125 214.644531 124.398438 214.121094 C 124.347656 213.597656 124.324219 213.070312 124.324219 212.546875 C 124.324219 212.019531 124.347656 211.496094 124.398438 210.972656 C 124.453125 210.449219 124.527344 209.929688 124.632812 209.414062 C 124.734375 208.898438 124.863281 208.386719 125.015625 207.882812 C 125.167969 207.382812 125.34375 206.886719 125.546875 206.402344 C 125.746094 205.914062 125.972656 205.441406 126.21875 204.976562 C 126.46875 204.511719 126.738281 204.0625 127.03125 203.625 C 127.324219 203.1875 127.636719 202.765625 127.96875 202.359375 C 128.304688 201.953125 128.65625 201.5625 129.027344 201.191406 C 129.402344 200.820312 129.789062 200.464844 130.199219 200.132812 C 130.605469 199.800781 131.027344 199.484375 131.464844 199.195312 C 131.902344 198.902344 132.351562 198.632812 132.816406 198.382812 C 133.28125 198.136719 133.757812 197.910156 134.242188 197.710938 C 134.730469 197.507812 135.222656 197.332031 135.726562 197.179688 C 136.230469 197.027344 136.742188 196.898438 137.257812 196.796875 C 137.773438 196.695312 138.292969 196.617188 138.816406 196.566406 C 139.339844 196.515625 139.867188 196.488281 140.390625 196.488281 C 140.917969 196.488281 141.441406 196.515625 141.96875 196.566406 C 142.492188 196.617188 143.011719 196.695312 143.527344 196.796875 C 144.042969 196.898438 144.554688 197.027344 145.058594 197.179688 C 145.558594 197.332031 146.054688 197.507812 146.542969 197.710938 C 147.027344 197.910156 147.503906 198.136719 147.96875 198.382812 C 148.429688 198.632812 148.882812 198.902344 149.320312 199.195312 C 149.757812 199.484375 150.179688 199.800781 150.585938 200.132812 C 150.992188 200.464844 151.382812 200.820312 151.753906 201.191406 C 152.128906 201.5625 152.480469 201.953125 152.8125 202.359375 C 153.148438 202.765625 153.460938 203.1875 153.753906 203.625 C 154.046875 204.0625 154.316406 204.511719 154.5625 204.976562 C 154.8125 205.441406 155.035156 205.914062 155.238281 206.402344 C 155.441406 206.886719 155.617188 207.382812 155.769531 207.882812 C 155.921875 208.386719 156.050781 208.898438 156.152344 209.414062 C 156.253906 209.929688 156.332031 210.449219 156.382812 210.972656 C 156.4375 211.496094 156.460938 212.019531 156.460938 212.546875 Z M 156.460938 212.546875 " fill-opacity="1" fill-rule="nonzero"/><path fill="#004cea" d="M 251.4375 212.546875 C 251.4375 213.070312 251.410156 213.597656 251.359375 214.121094 C 251.308594 214.644531 251.230469 215.164062 251.128906 215.679688 C 251.027344 216.195312 250.898438 216.703125 250.746094 217.207031 C 250.59375 217.710938 250.414062 218.203125 250.214844 218.691406 C 250.011719 219.175781 249.789062 219.652344 249.539062 220.113281 C 249.292969 220.578125 249.023438 221.027344 248.730469 221.464844 C 248.4375 221.902344 248.125 222.324219 247.789062 222.730469 C 247.457031 223.140625 247.101562 223.527344 246.730469 223.898438 C 246.359375 224.273438 245.96875 224.625 245.5625 224.957031 C 245.15625 225.292969 244.734375 225.605469 244.296875 225.898438 C 243.859375 226.1875 243.40625 226.460938 242.945312 226.707031 C 242.480469 226.953125 242.003906 227.179688 241.519531 227.378906 C 241.03125 227.582031 240.535156 227.757812 240.03125 227.910156 C 239.53125 228.0625 239.019531 228.191406 238.503906 228.292969 C 237.988281 228.398438 237.46875 228.472656 236.945312 228.527344 C 236.417969 228.578125 235.894531 228.601562 235.367188 228.601562 C 234.84375 228.601562 234.316406 228.578125 233.792969 228.527344 C 233.269531 228.472656 232.75 228.398438 232.234375 228.292969 C 231.71875 228.191406 231.207031 228.0625 230.703125 227.910156 C 230.199219 227.757812 229.703125 227.582031 229.21875 227.378906 C 228.734375 227.179688 228.257812 226.953125 227.792969 226.707031 C 227.328125 226.460938 226.878906 226.1875 226.441406 225.898438 C 226.003906 225.605469 225.582031 225.292969 225.175781 224.957031 C 224.765625 224.625 224.378906 224.273438 224.003906 223.898438 C 223.632812 223.527344 223.28125 223.140625 222.945312 222.730469 C 222.613281 222.324219 222.300781 221.902344 222.007812 221.464844 C 221.714844 221.027344 221.445312 220.578125 221.195312 220.113281 C 220.949219 219.652344 220.722656 219.175781 220.523438 218.691406 C 220.320312 218.203125 220.144531 217.710938 219.992188 217.207031 C 219.835938 216.703125 219.710938 216.195312 219.609375 215.679688 C 219.503906 215.164062 219.425781 214.644531 219.375 214.121094 C 219.324219 213.597656 219.296875 213.070312 219.296875 212.546875 C 219.296875 212.019531 219.324219 211.496094 219.375 210.972656 C 219.425781 210.449219 219.503906 209.929688 219.609375 209.414062 C 219.710938 208.898438 219.835938 208.386719 219.992188 207.882812 C 220.144531 207.382812 220.320312 206.886719 220.523438 206.402344 C 220.722656 205.914062 220.949219 205.441406 221.195312 204.976562 C 221.445312 204.511719 221.714844 204.0625 222.007812 203.625 C 222.300781 203.1875 222.613281 202.765625 222.945312 202.359375 C 223.28125 201.953125 223.632812 201.5625 224.003906 201.191406 C 224.378906 200.820312 224.765625 200.464844 225.175781 200.132812 C 225.582031 199.800781 226.003906 199.484375 226.441406 199.195312 C 226.878906 198.902344 227.328125 198.632812 227.792969 198.382812 C 228.257812 198.136719 228.734375 197.910156 229.21875 197.710938 C 229.703125 197.507812 230.199219 197.332031 230.703125 197.179688 C 231.207031 197.027344 231.71875 196.898438 232.234375 196.796875 C 232.75 196.695312 233.269531 196.617188 233.792969 196.566406 C 234.316406 196.515625 234.84375 196.488281 235.367188 196.488281 C 235.894531 196.488281 236.417969 196.515625 236.945312 196.566406 C 237.46875 196.617188 237.988281 196.695312 238.503906 196.796875 C 239.019531 196.898438 239.53125 197.027344 240.03125 197.179688 C 240.535156 197.332031 241.03125 197.507812 241.519531 197.710938 C 242.003906 197.910156 242.480469 198.136719 242.945312 198.382812 C 243.40625 198.632812 243.859375 198.902344 244.296875 199.195312 C 244.734375 199.484375 245.15625 199.800781 245.5625 200.132812 C 245.96875 200.464844 246.359375 200.820312 246.730469 201.191406 C 247.101562 201.5625 247.457031 201.953125 247.789062 202.359375 C 248.125 202.765625 248.4375 203.1875 248.730469 203.625 C 249.023438 204.0625 249.292969 204.511719 249.539062 204.976562 C 249.789062 205.441406 250.011719 205.914062 250.214844 206.402344 C 250.414062 206.886719 250.59375 207.382812 250.746094 207.882812 C 250.898438 208.386719 251.027344 208.898438 251.128906 209.414062 C 251.230469 209.929688 251.308594 210.449219 251.359375 210.972656 C 251.410156 211.496094 251.4375 212.019531 251.4375 212.546875 Z M 251.4375 212.546875 " fill-opacity="1" fill-rule="nonzero"/><path fill="#ffffff" d="M 294.289062 324.597656 C 292.28125 326.152344 290.246094 327.664062 288.175781 329.136719 C 287.0625 329.929688 285.9375 330.703125 284.804688 331.472656 C 282.285156 333.175781 279.71875 334.8125 277.109375 336.375 C 277.46875 331.238281 278.378906 327.042969 280.730469 324.605469 C 280.730469 324.601562 280.730469 324.597656 280.734375 324.597656 C 280.734375 324.589844 280.734375 324.589844 280.742188 324.585938 C 280.78125 324.546875 280.828125 324.5 280.867188 324.460938 C 282.277344 323.054688 284.207031 322.277344 286.808594 322.277344 C 289.535156 322.292969 292.03125 323.066406 294.289062 324.597656 Z M 294.289062 324.597656 " fill-opacity="1" fill-rule="nonzero"/><path fill="#ffffff" d="M 98 336.421875 C 95.136719 334.710938 92.328125 332.914062 89.570312 331.03125 C 88.492188 330.296875 87.417969 329.546875 86.355469 328.785156 C 84.46875 327.441406 82.609375 326.050781 80.785156 324.625 C 83.054688 323.078125 85.5625 322.296875 88.308594 322.273438 C 89.070312 322.269531 89.828125 322.347656 90.574219 322.503906 C 91.714844 322.738281 92.746094 323.214844 93.660156 323.941406 C 93.96875 324.175781 94.25 324.441406 94.503906 324.734375 L 94.511719 324.742188 C 96.777344 327.207031 97.660156 331.355469 98 336.421875 Z M 98 336.421875 " fill-opacity="1" fill-rule="nonzero"/><path fill="#ffffff" d="M 161.742188 235.933594 C 163.851562 235.730469 165.964844 235.644531 168.078125 235.496094 L 174.414062 235.246094 C 178.636719 235.101562 182.859375 235.109375 187.085938 235.039062 C 191.308594 235.117188 195.535156 235.101562 199.757812 235.25 L 206.09375 235.5 C 208.207031 235.644531 210.316406 235.734375 212.429688 235.933594 L 212.429688 237.726562 C 211.492188 239.222656 210.433594 240.628906 209.261719 241.945312 C 208.269531 243.082031 207.210938 244.160156 206.09375 245.171875 C 205.085938 246.070312 204.03125 246.910156 202.925781 247.691406 C 201.917969 248.425781 200.859375 249.085938 199.757812 249.671875 C 195.8125 251.832031 191.585938 252.925781 187.085938 252.949219 C 182.582031 252.957031 178.359375 251.875 174.414062 249.714844 C 173.308594 249.128906 172.253906 248.46875 171.246094 247.734375 C 170.71875 247.335938 170.1875 246.988281 169.660156 246.550781 C 169.132812 246.101562 168.605469 245.679688 168.078125 245.210938 C 166.957031 244.191406 165.902344 243.113281 164.910156 241.96875 C 163.734375 240.644531 162.679688 239.230469 161.742188 237.726562 Z M 161.742188 235.933594 " fill-opacity="1" fill-rule="nonzero"/><path fill="#110d2c" d="M 280.902344 324.511719 C 273.984375 327.949219 266.84375 330.851562 259.488281 333.210938 C 238.261719 340.113281 212.945312 343.742188 186.136719 343.742188 C 185.394531 343.742188 184.644531 343.738281 183.898438 343.734375 C 152.996094 343.5 125.90625 337.773438 93.421875 324.292969 C 94.179688 323.15625 94.980469 322.054688 95.820312 320.984375 C 127.421875 334.003906 153.851562 339.539062 183.929688 339.765625 C 221.160156 340.042969 253.742188 333.488281 278.515625 321.195312 C 279.351562 322.269531 280.148438 323.375 280.902344 324.511719 Z M 280.902344 324.511719 " fill-opacity="1" fill-rule="nonzero"/></svg>