<svg xmlns="http://www.w3.org/2000/svg" xmlns:xlink="http://www.w3.org/1999/xlink" width="500" zoomAndPan="magnify" viewBox="0 0 375 374.999991" height="500" preserveAspectRatio="xMidYMid meet" version="1.0"><defs><clipPath id="a505c1ea17"><path d="M 50.039062 121 L 343.949219 121 L 343.949219 374.96875 L 50.039062 374.96875 Z M 50.039062 121 " clip-rule="nonzero"/></clipPath><clipPath id="c37fefc64e"><path d="M 31.199219 0 L 330 0 L 330 361 L 31.199219 361 Z M 31.199219 0 " clip-rule="nonzero"/></clipPath></defs><g clip-path="url(#a505c1ea17)"><path fill="#53c28b" d="M 343.957031 121.109375 L 295.464844 121.109375 L 295.464844 374.96875 L 343.957031 374.96875 Z M 262.292969 176.398438 L 213.804688 176.398438 L 213.804688 374.96875 L 262.292969 374.96875 Z M 180.632812 216.832031 L 132.15625 216.832031 L 132.15625 374.96875 L 180.632812 374.96875 Z M 98.980469 374.96875 L 50.496094 374.96875 L 50.496094 247.4375 L 98.980469 247.4375 L 98.980469 374.96875 " fill-opacity="1" fill-rule="nonzero"/></g><g clip-path="url(#c37fefc64e)"><path fill="#0f0e0c" d="M 308.15625 10.382812 C 287.734375 41.292969 252.242188 82.777344 195.949219 113.308594 C 139.433594 143.992188 84.9375 151.265625 45.84375 151.265625 C 41.636719 151.265625 37.65625 151.191406 33.832031 151.042969 C 32.332031 150.96875 31.203125 149.765625 31.277344 148.265625 C 31.355469 146.765625 32.628906 145.714844 34.058594 145.714844 C 72.785156 147.214844 131.925781 142.039062 193.472656 108.65625 C 250.136719 77.898438 285.332031 35.816406 305.21875 5.285156 L 259.8125 5.285156 C 258.3125 5.285156 257.183594 4.082031 257.183594 2.65625 C 257.183594 1.234375 258.394531 0.03125 259.8125 0.03125 L 310.847656 0.03125 C 312.351562 0.03125 313.476562 1.234375 313.476562 2.65625 L 313.476562 54.496094 C 313.476562 55.996094 312.28125 57.121094 310.847656 57.121094 C 309.429688 57.121094 308.222656 55.921875 308.222656 54.496094 L 308.222656 10.386719 Z M 324.734375 355.316406 L 281.582031 355.316406 L 281.582031 106.78125 L 324.734375 106.78125 Z M 327.363281 101.457031 L 278.886719 101.457031 C 277.382812 101.457031 276.257812 102.65625 276.257812 104.082031 L 276.257812 357.941406 C 276.257812 359.441406 277.453125 360.566406 278.886719 360.566406 L 327.363281 360.566406 C 328.863281 360.566406 329.988281 359.367188 329.988281 357.941406 L 329.988281 104.15625 C 330.074219 102.65625 328.863281 101.457031 327.363281 101.457031 Z M 243.078125 355.316406 L 199.921875 355.316406 L 199.921875 162.070312 L 243.078125 162.070312 Z M 245.703125 156.742188 L 197.226562 156.742188 C 195.726562 156.742188 194.601562 157.945312 194.601562 159.371094 L 194.601562 357.941406 C 194.601562 359.441406 195.792969 360.566406 197.226562 360.566406 L 245.703125 360.566406 C 247.207031 360.566406 248.332031 359.367188 248.332031 357.941406 L 248.332031 159.371094 C 248.40625 157.945312 247.207031 156.742188 245.703125 156.742188 Z M 161.425781 355.316406 L 118.269531 355.316406 L 118.269531 202.503906 L 161.425781 202.503906 Z M 164.054688 197.179688 L 115.5625 197.179688 C 114.058594 197.179688 112.933594 198.378906 112.933594 199.804688 L 112.933594 357.941406 C 112.933594 359.441406 114.140625 360.566406 115.5625 360.566406 L 164.054688 360.566406 C 165.554688 360.566406 166.679688 359.367188 166.679688 357.941406 L 166.679688 199.804688 C 166.746094 198.378906 165.554688 197.179688 164.054688 197.179688 Z M 79.765625 355.316406 L 36.613281 355.316406 L 36.613281 233.109375 L 79.769531 233.109375 Z M 82.394531 227.785156 L 33.910156 227.785156 C 32.40625 227.785156 31.28125 228.984375 31.28125 230.410156 L 31.28125 357.941406 C 31.28125 359.441406 32.484375 360.566406 33.910156 360.566406 L 82.394531 360.566406 C 83.894531 360.566406 85.019531 359.367188 85.019531 357.941406 L 85.019531 230.410156 C 85.097656 228.984375 83.894531 227.785156 82.394531 227.785156 " fill-opacity="1" fill-rule="nonzero"/></g></svg>