<svg xmlns="http://www.w3.org/2000/svg" xmlns:xlink="http://www.w3.org/1999/xlink" width="500" zoomAndPan="magnify" viewBox="0 0 375 374.999991" height="500" preserveAspectRatio="xMidYMid meet" version="1.0"><defs><clipPath id="d09bcf26be"><path d="M 60 0 L 350.386719 0 L 350.386719 367 L 60 367 Z M 60 0 " clip-rule="nonzero"/></clipPath><clipPath id="59560b302f"><path d="M 24.886719 33 L 60 33 L 60 48 L 24.886719 48 Z M 24.886719 33 " clip-rule="nonzero"/></clipPath><clipPath id="ef2ddfbde0"><path d="M 24.886719 40 L 60 40 L 60 48 L 24.886719 48 Z M 24.886719 40 " clip-rule="nonzero"/></clipPath><clipPath id="6d5eaa3401"><path d="M 24.886719 66 L 60 66 L 60 81 L 24.886719 81 Z M 24.886719 66 " clip-rule="nonzero"/></clipPath><clipPath id="12f92f1e92"><path d="M 24.886719 74 L 60 74 L 60 81 L 24.886719 81 Z M 24.886719 74 " clip-rule="nonzero"/></clipPath><clipPath id="7f867860e7"><path d="M 24.886719 100 L 60 100 L 60 115 L 24.886719 115 Z M 24.886719 100 " clip-rule="nonzero"/></clipPath><clipPath id="e3de225008"><path d="M 24.886719 107 L 60 107 L 60 115 L 24.886719 115 Z M 24.886719 107 " clip-rule="nonzero"/></clipPath><clipPath id="885e3836bd"><path d="M 24.886719 134 L 60 134 L 60 149 L 24.886719 149 Z M 24.886719 134 " clip-rule="nonzero"/></clipPath><clipPath id="5b448a9de2"><path d="M 24.886719 141 L 60 141 L 60 149 L 24.886719 149 Z M 24.886719 141 " clip-rule="nonzero"/></clipPath><clipPath id="78717d8b4f"><path d="M 24.886719 168 L 60 168 L 60 182 L 24.886719 182 Z M 24.886719 168 " clip-rule="nonzero"/></clipPath><clipPath id="f24ed8570b"><path d="M 24.886719 175 L 60 175 L 60 182 L 24.886719 182 Z M 24.886719 175 " clip-rule="nonzero"/></clipPath><clipPath id="7e3dabb00d"><path d="M 24.886719 201 L 60 201 L 60 216 L 24.886719 216 Z M 24.886719 201 " clip-rule="nonzero"/></clipPath><clipPath id="c1d41104eb"><path d="M 24.886719 208 L 60 208 L 60 216 L 24.886719 216 Z M 24.886719 208 " clip-rule="nonzero"/></clipPath><clipPath id="49c0f9d655"><path d="M 24.886719 235 L 60 235 L 60 250 L 24.886719 250 Z M 24.886719 235 " clip-rule="nonzero"/></clipPath><clipPath id="2352197a75"><path d="M 24.886719 242 L 60 242 L 60 250 L 24.886719 250 Z M 24.886719 242 " clip-rule="nonzero"/></clipPath><clipPath id="bc991ae4c7"><path d="M 24.886719 269 L 60 269 L 60 284 L 24.886719 284 Z M 24.886719 269 " clip-rule="nonzero"/></clipPath><clipPath id="6ae66c4c70"><path d="M 24.886719 276 L 60 276 L 60 284 L 24.886719 284 Z M 24.886719 276 " clip-rule="nonzero"/></clipPath><clipPath id="a24adf84b2"><path d="M 24.886719 302 L 60 302 L 60 317 L 24.886719 317 Z M 24.886719 302 " clip-rule="nonzero"/></clipPath><clipPath id="6935410dcd"><path d="M 24.886719 309 L 60 309 L 60 317 L 24.886719 317 Z M 24.886719 309 " clip-rule="nonzero"/></clipPath><clipPath id="4bd30c3c40"><path d="M 24.886719 336 L 60 336 L 60 351 L 24.886719 351 Z M 24.886719 336 " clip-rule="nonzero"/></clipPath><clipPath id="34827b6c43"><path d="M 24.886719 343 L 60 343 L 60 351 L 24.886719 351 Z M 24.886719 343 " clip-rule="nonzero"/></clipPath></defs><g clip-path="url(#d09bcf26be)"><path fill="#287f85" d="M 60.1875 366.824219 L 350.304688 366.824219 L 350.304688 0.191406 L 60.1875 0.191406 Z M 60.1875 366.824219 " fill-opacity="1" fill-rule="nonzero"/></g><path fill="#3bbec5" d="M 42.269531 374.808594 L 332.386719 374.808594 L 332.386719 8.171875 L 42.269531 8.171875 Z M 42.269531 374.808594 " fill-opacity="1" fill-rule="nonzero"/><path fill="#319ca2" d="M 332.386719 374.808594 L 42.269531 374.808594 L 42.269531 350.519531 L 50.628906 350.519531 C 52.828125 353.382812 56.28125 355.230469 60.167969 355.234375 C 60.175781 355.234375 60.183594 355.234375 60.1875 355.234375 C 66.839844 355.234375 72.238281 349.84375 72.238281 343.195312 C 72.238281 336.542969 66.839844 331.15625 60.1875 331.15625 C 55.933594 331.15625 52.195312 333.355469 50.054688 336.683594 L 42.269531 336.683594 L 42.269531 316.808594 L 50.628906 316.808594 C 52.824219 319.667969 56.28125 321.511719 60.164062 321.519531 C 60.167969 321.519531 60.167969 321.519531 60.167969 321.519531 C 60.175781 321.519531 60.183594 321.519531 60.1875 321.519531 C 66.839844 321.519531 72.238281 316.128906 72.238281 309.480469 C 72.238281 302.835938 66.839844 297.441406 60.1875 297.441406 C 55.9375 297.441406 52.199219 299.644531 50.054688 302.96875 L 42.269531 302.96875 L 42.269531 283.097656 L 50.628906 283.097656 C 52.828125 285.957031 56.28125 287.800781 60.164062 287.808594 C 60.167969 287.808594 60.167969 287.808594 60.167969 287.808594 C 60.175781 287.808594 60.183594 287.808594 60.1875 287.808594 C 66.839844 287.808594 72.238281 282.417969 72.238281 275.769531 C 72.238281 269.121094 66.839844 263.734375 60.1875 263.734375 C 55.9375 263.734375 52.199219 265.933594 50.054688 269.257812 L 42.269531 269.257812 L 42.269531 249.386719 L 50.628906 249.386719 C 52.824219 252.246094 56.28125 254.09375 60.164062 254.097656 C 60.167969 254.097656 60.167969 254.097656 60.167969 254.097656 C 60.175781 254.097656 60.183594 254.097656 60.1875 254.097656 C 66.839844 254.097656 72.238281 248.707031 72.238281 242.054688 C 72.238281 235.410156 66.839844 230.019531 60.1875 230.019531 C 55.933594 230.019531 52.195312 232.21875 50.054688 235.542969 L 42.269531 235.542969 L 42.269531 215.671875 L 50.628906 215.671875 C 52.820312 218.523438 56.253906 220.367188 60.125 220.382812 C 60.128906 220.382812 60.128906 220.382812 60.128906 220.382812 C 60.132812 220.382812 60.136719 220.382812 60.144531 220.382812 C 60.144531 220.382812 60.148438 220.382812 60.152344 220.382812 C 60.152344 220.382812 60.152344 220.382812 60.15625 220.382812 C 60.164062 220.382812 60.179688 220.382812 60.1875 220.382812 C 66.839844 220.382812 72.238281 214.996094 72.238281 208.347656 C 72.238281 201.699219 66.839844 196.308594 60.1875 196.308594 C 55.9375 196.308594 52.199219 198.507812 50.054688 201.832031 L 42.269531 201.832031 L 42.269531 181.964844 L 50.628906 181.964844 C 52.828125 184.824219 56.28125 186.671875 60.164062 186.675781 C 60.167969 186.675781 60.167969 186.675781 60.167969 186.675781 C 60.175781 186.675781 60.183594 186.675781 60.1875 186.675781 C 66.839844 186.675781 72.238281 181.28125 72.238281 174.636719 C 72.238281 167.988281 66.839844 162.601562 60.1875 162.601562 C 55.933594 162.601562 52.195312 164.800781 50.054688 168.125 L 42.269531 168.125 L 42.269531 148.253906 L 50.628906 148.253906 C 52.824219 151.109375 56.28125 152.957031 60.164062 152.960938 C 60.167969 152.960938 60.167969 152.960938 60.167969 152.960938 C 60.175781 152.960938 60.183594 152.960938 60.1875 152.960938 C 66.839844 152.960938 72.238281 147.574219 72.238281 140.921875 C 72.238281 134.273438 66.839844 128.882812 60.1875 128.882812 C 55.933594 128.882812 52.195312 131.085938 50.054688 134.410156 L 42.269531 134.410156 L 42.269531 114.539062 L 50.628906 114.539062 C 52.824219 117.398438 56.28125 119.246094 60.164062 119.25 C 60.167969 119.25 60.167969 119.25 60.167969 119.25 C 60.175781 119.25 60.183594 119.25 60.1875 119.25 C 66.839844 119.25 72.238281 113.863281 72.238281 107.214844 C 72.238281 100.5625 66.839844 95.175781 60.1875 95.175781 C 55.9375 95.175781 52.199219 97.375 50.054688 100.699219 L 42.269531 100.699219 L 42.269531 80.832031 L 50.628906 80.832031 C 52.828125 83.691406 56.28125 85.53125 60.164062 85.535156 C 60.167969 85.535156 60.167969 85.535156 60.167969 85.535156 C 60.175781 85.535156 60.183594 85.535156 60.1875 85.535156 C 66.839844 85.535156 72.238281 80.148438 72.238281 73.5 C 72.238281 66.847656 66.839844 61.460938 60.1875 61.460938 C 55.933594 61.460938 52.195312 63.660156 50.054688 66.984375 L 42.269531 66.984375 L 42.269531 47.117188 L 50.628906 47.117188 C 52.804688 49.953125 56.222656 51.789062 60.070312 51.824219 C 60.074219 51.824219 60.082031 51.824219 60.089844 51.824219 C 60.089844 51.824219 60.089844 51.824219 60.09375 51.824219 C 60.101562 51.824219 60.117188 51.824219 60.125 51.824219 C 60.128906 51.824219 60.128906 51.824219 60.128906 51.824219 C 60.132812 51.824219 60.136719 51.824219 60.144531 51.824219 C 60.144531 51.824219 60.148438 51.824219 60.152344 51.824219 C 60.152344 51.824219 60.152344 51.824219 60.15625 51.824219 C 60.164062 51.824219 60.179688 51.824219 60.1875 51.824219 C 66.839844 51.824219 72.238281 46.441406 72.238281 39.789062 C 72.238281 33.140625 66.839844 27.753906 60.1875 27.753906 C 55.9375 27.753906 52.199219 29.953125 50.054688 33.273438 L 42.269531 33.273438 L 42.269531 8.171875 L 142.195312 8.171875 C 133.722656 23.855469 129.515625 43.621094 126.648438 57.585938 C 110.25 137.484375 109.234375 236.222656 170.554688 298.269531 C 205.453125 333.589844 254.054688 352.371094 302.828125 357.308594 C 309.546875 357.984375 316.210938 358.304688 322.816406 358.304688 C 326.019531 358.304688 329.210938 358.230469 332.386719 358.085938 L 332.386719 374.808594 " fill-opacity="1" fill-rule="nonzero"/><path fill="#24737a" d="M 60.15625 51.824219 C 60.152344 51.824219 60.152344 51.824219 60.152344 51.824219 C 60.152344 51.824219 60.152344 51.824219 60.15625 51.824219 M 60.144531 51.824219 C 60.136719 51.824219 60.132812 51.824219 60.128906 51.824219 C 60.132812 51.824219 60.136719 51.824219 60.144531 51.824219 M 60.125 51.824219 C 60.117188 51.824219 60.101562 51.824219 60.09375 51.824219 C 60.101562 51.824219 60.117188 51.824219 60.125 51.824219 M 60.089844 51.824219 C 60.082031 51.824219 60.074219 51.824219 60.070312 51.824219 C 60.074219 51.824219 60.082031 51.824219 60.089844 51.824219 M 60.070312 51.824219 C 56.222656 51.789062 52.804688 49.953125 50.628906 47.117188 L 52.765625 47.117188 C 52.773438 47.117188 52.78125 47.117188 52.789062 47.117188 C 52.792969 47.117188 52.792969 47.117188 52.796875 47.117188 C 52.800781 47.117188 52.804688 47.117188 52.8125 47.117188 C 52.816406 47.117188 52.816406 47.113281 52.820312 47.113281 C 52.824219 47.113281 52.828125 47.113281 52.832031 47.113281 C 52.839844 47.113281 52.84375 47.113281 52.84375 47.113281 C 52.847656 47.113281 52.851562 47.113281 52.855469 47.113281 C 52.859375 47.113281 52.867188 47.113281 52.875 47.113281 C 52.875 47.113281 52.875 47.113281 52.878906 47.113281 C 52.882812 47.113281 52.886719 47.113281 52.898438 47.113281 C 52.898438 47.113281 52.898438 47.113281 52.902344 47.113281 C 52.90625 47.113281 52.910156 47.113281 52.917969 47.113281 C 52.929688 47.113281 52.9375 47.113281 52.941406 47.113281 C 56.683594 47.019531 59.691406 43.957031 59.691406 40.195312 C 59.691406 36.375 56.589844 33.273438 52.765625 33.273438 L 50.054688 33.273438 C 52.199219 29.953125 55.9375 27.753906 60.1875 27.753906 C 66.839844 27.753906 72.238281 33.140625 72.238281 39.789062 C 72.238281 33.140625 66.839844 27.753906 60.1875 27.753906 C 59.207031 27.753906 58.269531 27.902344 57.359375 28.117188 C 63.042969 33.285156 65.027344 43.402344 58.707031 48.816406 C 57.691406 49.683594 56.597656 50.347656 55.457031 50.855469 C 56.875 51.46875 58.429688 51.808594 60.070312 51.824219 " fill-opacity="1" fill-rule="nonzero"/><path fill="#24737a" d="M 60.1875 51.824219 C 60.179688 51.824219 60.164062 51.824219 60.15625 51.824219 C 60.164062 51.824219 60.179688 51.824219 60.1875 51.824219 C 66.839844 51.824219 72.238281 46.441406 72.238281 39.789062 C 72.238281 46.441406 66.839844 51.824219 60.1875 51.824219 M 60.152344 51.824219 C 60.148438 51.824219 60.144531 51.824219 60.144531 51.824219 C 60.144531 51.824219 60.148438 51.824219 60.152344 51.824219 M 60.128906 51.824219 C 60.128906 51.824219 60.128906 51.824219 60.125 51.824219 C 60.128906 51.824219 60.128906 51.824219 60.128906 51.824219 M 60.09375 51.824219 C 60.089844 51.824219 60.089844 51.824219 60.089844 51.824219 C 60.089844 51.824219 60.089844 51.824219 60.09375 51.824219 " fill-opacity="1" fill-rule="nonzero"/><path fill="#1c565d" d="M 60.1875 51.824219 C 60.179688 51.824219 60.164062 51.824219 60.15625 51.824219 C 60.152344 51.824219 60.152344 51.824219 60.152344 51.824219 C 60.148438 51.824219 60.144531 51.824219 60.144531 51.824219 C 60.136719 51.824219 60.132812 51.824219 60.128906 51.824219 C 60.128906 51.824219 60.128906 51.824219 60.125 51.824219 C 60.117188 51.824219 60.101562 51.824219 60.09375 51.824219 C 60.089844 51.824219 60.089844 51.824219 60.089844 51.824219 C 60.082031 51.824219 60.074219 51.824219 60.070312 51.824219 C 58.429688 51.808594 56.875 51.46875 55.457031 50.855469 C 56.597656 50.347656 57.691406 49.683594 58.707031 48.816406 C 65.027344 43.402344 63.042969 33.285156 57.359375 28.117188 C 58.269531 27.902344 59.207031 27.753906 60.1875 27.753906 C 66.839844 27.753906 72.238281 33.140625 72.238281 39.789062 C 72.238281 46.441406 66.839844 51.824219 60.1875 51.824219 " fill-opacity="1" fill-rule="nonzero"/><g clip-path="url(#59560b302f)"><path fill="#d3d2d2" d="M 59.691406 40.195312 C 59.691406 44.015625 56.589844 47.117188 52.765625 47.117188 L 31.773438 47.117188 C 27.949219 47.117188 24.851562 44.015625 24.851562 40.195312 C 24.851562 36.375 27.949219 33.273438 31.773438 33.273438 L 52.765625 33.273438 C 56.589844 33.273438 59.691406 36.375 59.691406 40.195312 " fill-opacity="1" fill-rule="nonzero"/></g><g clip-path="url(#ef2ddfbde0)"><path fill="#c2c1c1" d="M 52.765625 47.117188 L 31.773438 47.117188 C 31.765625 47.117188 31.761719 47.117188 31.753906 47.117188 C 31.746094 47.117188 31.746094 47.117188 31.742188 47.117188 C 31.738281 47.117188 31.734375 47.117188 31.730469 47.117188 C 31.726562 47.117188 31.726562 47.113281 31.71875 47.113281 C 31.714844 47.113281 31.710938 47.113281 31.707031 47.113281 C 31.703125 47.113281 31.703125 47.113281 31.699219 47.113281 C 31.695312 47.113281 31.6875 47.113281 31.683594 47.113281 C 31.679688 47.113281 31.675781 47.113281 31.667969 47.113281 C 31.667969 47.113281 31.667969 47.113281 31.660156 47.113281 C 31.65625 47.113281 31.652344 47.113281 31.644531 47.113281 C 31.636719 47.113281 31.628906 47.113281 31.625 47.113281 C 31.621094 47.113281 31.621094 47.113281 31.621094 47.113281 C 31.613281 47.113281 31.609375 47.113281 31.597656 47.113281 C 27.890625 47.019531 24.914062 44.011719 24.859375 40.292969 L 59.679688 40.292969 C 59.628906 44.011719 56.652344 47.019531 52.941406 47.113281 C 52.933594 47.113281 52.929688 47.113281 52.917969 47.113281 C 52.910156 47.113281 52.90625 47.113281 52.902344 47.113281 C 52.898438 47.113281 52.898438 47.113281 52.898438 47.113281 C 52.886719 47.113281 52.882812 47.113281 52.878906 47.113281 C 52.875 47.113281 52.875 47.113281 52.875 47.113281 C 52.867188 47.113281 52.859375 47.113281 52.855469 47.113281 C 52.851562 47.113281 52.847656 47.113281 52.84375 47.113281 C 52.839844 47.113281 52.839844 47.113281 52.832031 47.113281 C 52.828125 47.113281 52.824219 47.113281 52.820312 47.113281 C 52.816406 47.113281 52.816406 47.117188 52.8125 47.117188 C 52.804688 47.117188 52.800781 47.117188 52.796875 47.117188 C 52.792969 47.117188 52.792969 47.117188 52.789062 47.117188 C 52.78125 47.117188 52.773438 47.117188 52.765625 47.117188 " fill-opacity="1" fill-rule="nonzero"/></g><path fill="#24737a" d="M 60.1875 85.535156 C 60.183594 85.535156 60.175781 85.535156 60.167969 85.535156 C 60.175781 85.535156 60.183594 85.535156 60.1875 85.535156 M 60.164062 85.535156 C 56.28125 85.53125 52.828125 83.691406 50.628906 80.832031 L 52.765625 80.832031 C 52.773438 80.832031 52.78125 80.832031 52.789062 80.832031 C 52.792969 80.832031 52.792969 80.832031 52.796875 80.832031 C 52.800781 80.832031 52.804688 80.832031 52.8125 80.832031 C 52.816406 80.832031 52.816406 80.832031 52.820312 80.832031 C 52.824219 80.832031 52.828125 80.832031 52.832031 80.832031 C 52.839844 80.832031 52.839844 80.832031 52.84375 80.832031 C 52.847656 80.832031 52.851562 80.832031 52.855469 80.828125 C 52.855469 80.828125 52.859375 80.828125 52.867188 80.828125 C 52.871094 80.828125 52.875 80.828125 52.878906 80.828125 C 52.878906 80.828125 52.882812 80.828125 52.886719 80.828125 C 52.890625 80.828125 52.898438 80.828125 52.902344 80.828125 C 52.902344 80.828125 52.90625 80.828125 52.910156 80.828125 C 52.914062 80.828125 52.917969 80.828125 52.917969 80.828125 C 52.925781 80.828125 52.929688 80.828125 52.933594 80.828125 C 52.9375 80.828125 52.941406 80.828125 52.941406 80.828125 C 52.945312 80.828125 52.953125 80.828125 52.957031 80.828125 C 52.960938 80.828125 52.964844 80.828125 52.964844 80.828125 C 52.96875 80.828125 52.972656 80.828125 52.976562 80.828125 C 52.984375 80.828125 52.984375 80.828125 52.988281 80.828125 C 52.992188 80.828125 52.996094 80.828125 53.003906 80.828125 C 53.003906 80.820312 53.003906 80.820312 53.011719 80.820312 C 53.015625 80.820312 53.019531 80.820312 53.027344 80.820312 C 53.027344 80.820312 53.027344 80.820312 53.03125 80.820312 C 53.039062 80.820312 53.042969 80.820312 53.050781 80.820312 C 53.050781 80.820312 53.050781 80.820312 53.054688 80.820312 C 53.058594 80.820312 53.0625 80.820312 53.070312 80.820312 C 53.074219 80.820312 53.074219 80.820312 53.078125 80.820312 C 53.082031 80.820312 53.085938 80.820312 53.089844 80.820312 C 53.097656 80.820312 53.097656 80.820312 53.101562 80.820312 C 53.105469 80.820312 53.109375 80.820312 53.113281 80.816406 C 53.117188 80.816406 53.117188 80.816406 53.117188 80.816406 C 53.128906 80.816406 53.132812 80.816406 53.140625 80.816406 C 53.144531 80.816406 53.15625 80.816406 53.164062 80.816406 C 53.171875 80.816406 53.175781 80.816406 53.1875 80.816406 C 56.816406 80.601562 59.691406 77.589844 59.691406 73.90625 C 59.691406 70.082031 56.589844 66.984375 52.765625 66.984375 L 50.054688 66.984375 C 52.195312 63.660156 55.933594 61.460938 60.1875 61.460938 C 66.839844 61.460938 72.238281 66.847656 72.238281 73.5 C 72.238281 66.847656 66.839844 61.460938 60.1875 61.460938 C 59.207031 61.460938 58.269531 61.613281 57.359375 61.832031 C 63.042969 66.992188 65.027344 77.109375 58.707031 82.527344 C 57.691406 83.394531 56.597656 84.050781 55.457031 84.566406 C 56.902344 85.183594 58.492188 85.535156 60.164062 85.535156 " fill-opacity="1" fill-rule="nonzero"/><path fill="#1c565d" d="M 60.1875 85.535156 C 60.183594 85.535156 60.175781 85.535156 60.167969 85.535156 C 60.167969 85.535156 60.167969 85.535156 60.164062 85.535156 C 58.492188 85.535156 56.902344 85.183594 55.457031 84.566406 C 56.597656 84.050781 57.691406 83.394531 58.707031 82.527344 C 65.027344 77.109375 63.042969 66.992188 57.359375 61.832031 C 58.269531 61.613281 59.207031 61.460938 60.1875 61.460938 C 66.839844 61.460938 72.238281 66.847656 72.238281 73.5 C 72.238281 80.148438 66.839844 85.535156 60.1875 85.535156 " fill-opacity="1" fill-rule="nonzero"/><g clip-path="url(#6d5eaa3401)"><path fill="#d3d2d2" d="M 59.691406 73.90625 C 59.691406 77.726562 56.589844 80.832031 52.765625 80.832031 L 31.773438 80.832031 C 27.949219 80.832031 24.851562 77.726562 24.851562 73.90625 C 24.851562 70.082031 27.949219 66.984375 31.773438 66.984375 L 52.765625 66.984375 C 56.589844 66.984375 59.691406 70.082031 59.691406 73.90625 " fill-opacity="1" fill-rule="nonzero"/></g><path fill="#e9e9e9" d="M 31.699219 80.832031 C 31.695312 80.832031 31.6875 80.832031 31.683594 80.828125 C 31.6875 80.832031 31.695312 80.832031 31.699219 80.832031 " fill-opacity="1" fill-rule="nonzero"/><path fill="#226970" d="M 52.84375 80.832031 C 52.847656 80.832031 52.851562 80.832031 52.855469 80.828125 C 52.851562 80.832031 52.847656 80.832031 52.84375 80.832031 " fill-opacity="1" fill-rule="nonzero"/><path fill="#e9e9e9" d="M 31.535156 80.828125 C 31.535156 80.820312 31.535156 80.820312 31.53125 80.820312 C 31.535156 80.820312 31.535156 80.820312 31.535156 80.828125 " fill-opacity="1" fill-rule="nonzero"/><path fill="#226970" d="M 53.003906 80.828125 C 53.003906 80.820312 53.003906 80.820312 53.011719 80.820312 C 53.003906 80.820312 53.003906 80.820312 53.003906 80.828125 " fill-opacity="1" fill-rule="nonzero"/><path fill="#e9e9e9" d="M 31.425781 80.820312 C 31.425781 80.816406 31.421875 80.816406 31.421875 80.816406 C 31.421875 80.816406 31.425781 80.816406 31.425781 80.820312 " fill-opacity="1" fill-rule="nonzero"/><g clip-path="url(#12f92f1e92)"><path fill="#c2c1c1" d="M 52.765625 80.832031 L 31.773438 80.832031 C 31.765625 80.832031 31.761719 80.832031 31.753906 80.832031 C 31.746094 80.832031 31.746094 80.832031 31.742188 80.832031 C 31.738281 80.832031 31.734375 80.832031 31.730469 80.832031 C 31.726562 80.832031 31.726562 80.832031 31.71875 80.832031 C 31.714844 80.832031 31.710938 80.832031 31.707031 80.832031 C 31.707031 80.832031 31.703125 80.832031 31.699219 80.832031 C 31.695312 80.832031 31.6875 80.832031 31.683594 80.828125 C 31.683594 80.828125 31.679688 80.828125 31.675781 80.828125 C 31.671875 80.828125 31.667969 80.828125 31.660156 80.828125 C 31.660156 80.828125 31.65625 80.828125 31.652344 80.828125 C 31.648438 80.828125 31.644531 80.828125 31.644531 80.828125 C 31.640625 80.828125 31.636719 80.828125 31.628906 80.828125 C 31.625 80.828125 31.621094 80.828125 31.621094 80.828125 C 31.617188 80.828125 31.613281 80.828125 31.609375 80.828125 C 31.601562 80.828125 31.597656 80.828125 31.597656 80.828125 C 31.59375 80.828125 31.589844 80.828125 31.585938 80.828125 C 31.582031 80.828125 31.574219 80.828125 31.574219 80.828125 C 31.570312 80.828125 31.566406 80.828125 31.5625 80.828125 C 31.558594 80.828125 31.558594 80.828125 31.554688 80.828125 C 31.550781 80.828125 31.542969 80.828125 31.535156 80.828125 C 31.535156 80.820312 31.535156 80.820312 31.53125 80.820312 C 31.527344 80.820312 31.523438 80.820312 31.515625 80.820312 C 31.511719 80.820312 31.511719 80.820312 31.507812 80.820312 C 31.503906 80.820312 31.5 80.820312 31.496094 80.820312 C 31.488281 80.820312 31.488281 80.820312 31.484375 80.820312 C 31.480469 80.820312 31.476562 80.820312 31.472656 80.820312 C 31.46875 80.820312 31.46875 80.820312 31.464844 80.820312 C 31.457031 80.820312 31.453125 80.820312 31.449219 80.820312 C 31.445312 80.820312 31.445312 80.820312 31.445312 80.820312 C 31.4375 80.820312 31.429688 80.820312 31.425781 80.820312 C 31.425781 80.816406 31.421875 80.816406 31.421875 80.816406 C 31.414062 80.816406 31.410156 80.816406 31.402344 80.816406 C 31.398438 80.816406 31.398438 80.816406 31.398438 80.816406 C 31.390625 80.816406 31.386719 80.816406 31.382812 80.816406 C 31.378906 80.816406 31.378906 80.816406 31.378906 80.816406 C 31.371094 80.816406 31.363281 80.816406 31.359375 80.816406 C 31.359375 80.816406 31.355469 80.816406 31.355469 80.816406 C 31.351562 80.816406 31.339844 80.8125 31.335938 80.8125 C 27.753906 80.589844 24.914062 77.632812 24.859375 74.007812 L 59.679688 74.007812 C 59.628906 77.640625 56.78125 80.601562 53.1875 80.816406 C 53.175781 80.816406 53.171875 80.816406 53.164062 80.816406 C 53.15625 80.816406 53.148438 80.816406 53.140625 80.816406 C 53.132812 80.816406 53.128906 80.816406 53.117188 80.816406 C 53.117188 80.816406 53.117188 80.816406 53.113281 80.816406 C 53.109375 80.820312 53.105469 80.820312 53.101562 80.820312 C 53.097656 80.820312 53.097656 80.820312 53.089844 80.820312 C 53.085938 80.820312 53.082031 80.820312 53.078125 80.820312 C 53.074219 80.820312 53.074219 80.820312 53.070312 80.820312 C 53.0625 80.820312 53.058594 80.820312 53.054688 80.820312 C 53.050781 80.820312 53.050781 80.820312 53.050781 80.820312 C 53.042969 80.820312 53.039062 80.820312 53.03125 80.820312 C 53.027344 80.820312 53.027344 80.820312 53.027344 80.820312 C 53.019531 80.820312 53.015625 80.820312 53.011719 80.820312 C 53.003906 80.820312 53.003906 80.820312 53.003906 80.828125 C 52.996094 80.828125 52.992188 80.828125 52.988281 80.828125 C 52.984375 80.828125 52.984375 80.828125 52.976562 80.828125 C 52.972656 80.828125 52.96875 80.828125 52.964844 80.828125 C 52.964844 80.828125 52.960938 80.828125 52.957031 80.828125 C 52.953125 80.828125 52.945312 80.828125 52.941406 80.828125 C 52.941406 80.828125 52.9375 80.828125 52.933594 80.828125 C 52.929688 80.828125 52.925781 80.828125 52.917969 80.828125 C 52.917969 80.828125 52.914062 80.828125 52.910156 80.828125 C 52.90625 80.828125 52.902344 80.828125 52.902344 80.828125 C 52.898438 80.828125 52.890625 80.828125 52.886719 80.828125 C 52.882812 80.828125 52.878906 80.828125 52.878906 80.828125 C 52.875 80.828125 52.871094 80.828125 52.867188 80.828125 C 52.859375 80.828125 52.855469 80.828125 52.855469 80.828125 C 52.851562 80.832031 52.847656 80.832031 52.84375 80.832031 C 52.839844 80.832031 52.839844 80.832031 52.832031 80.832031 C 52.828125 80.832031 52.824219 80.832031 52.820312 80.832031 C 52.816406 80.832031 52.816406 80.832031 52.8125 80.832031 C 52.804688 80.832031 52.800781 80.832031 52.796875 80.832031 C 52.792969 80.832031 52.792969 80.832031 52.789062 80.832031 C 52.78125 80.832031 52.773438 80.832031 52.765625 80.832031 " fill-opacity="1" fill-rule="nonzero"/></g><path fill="#24737a" d="M 60.1875 119.25 C 60.183594 119.25 60.175781 119.25 60.167969 119.25 C 60.175781 119.25 60.183594 119.25 60.1875 119.25 M 60.164062 119.25 C 56.28125 119.246094 52.824219 117.398438 50.628906 114.539062 L 52.765625 114.539062 C 52.773438 114.539062 52.78125 114.539062 52.789062 114.539062 C 52.792969 114.539062 52.792969 114.539062 52.796875 114.539062 C 52.800781 114.539062 52.804688 114.539062 52.8125 114.539062 C 52.816406 114.539062 52.816406 114.539062 52.820312 114.539062 C 52.824219 114.539062 52.828125 114.539062 52.832031 114.539062 C 52.839844 114.539062 52.839844 114.539062 52.84375 114.539062 C 52.847656 114.539062 52.851562 114.539062 52.855469 114.539062 C 52.859375 114.539062 52.867188 114.539062 52.871094 114.539062 C 52.871094 114.539062 52.875 114.539062 52.878906 114.539062 C 52.882812 114.539062 52.886719 114.539062 52.890625 114.539062 C 52.890625 114.539062 52.898438 114.539062 52.902344 114.539062 C 52.90625 114.539062 52.910156 114.539062 52.914062 114.539062 C 52.914062 114.539062 52.917969 114.539062 52.917969 114.539062 C 52.925781 114.539062 52.929688 114.539062 52.933594 114.535156 C 52.9375 114.535156 52.941406 114.535156 52.941406 114.535156 C 52.953125 114.535156 52.957031 114.535156 52.960938 114.535156 C 52.960938 114.535156 52.964844 114.535156 52.964844 114.535156 C 52.96875 114.535156 52.976562 114.535156 52.984375 114.535156 C 52.984375 114.535156 52.988281 114.535156 52.988281 114.535156 C 52.992188 114.535156 52.996094 114.535156 53.003906 114.535156 C 53.003906 114.535156 53.003906 114.535156 53.011719 114.535156 C 53.015625 114.535156 53.019531 114.535156 53.027344 114.535156 C 53.027344 114.535156 53.027344 114.535156 53.03125 114.535156 C 53.039062 114.535156 53.042969 114.535156 53.050781 114.535156 C 53.050781 114.535156 53.050781 114.535156 53.054688 114.535156 C 53.058594 114.535156 53.0625 114.535156 53.074219 114.53125 C 53.082031 114.53125 53.085938 114.53125 53.097656 114.53125 C 53.105469 114.53125 53.109375 114.53125 53.117188 114.53125 C 53.128906 114.53125 53.132812 114.53125 53.136719 114.53125 C 53.140625 114.53125 53.140625 114.53125 53.140625 114.53125 C 53.148438 114.53125 53.15625 114.53125 53.160156 114.53125 C 53.164062 114.53125 53.164062 114.53125 53.164062 114.527344 C 53.171875 114.527344 53.175781 114.527344 53.1875 114.527344 C 56.816406 114.308594 59.691406 111.300781 59.691406 107.621094 C 59.691406 103.796875 56.589844 100.699219 52.765625 100.699219 L 50.054688 100.699219 C 52.199219 97.375 55.9375 95.175781 60.1875 95.175781 C 66.839844 95.175781 72.238281 100.5625 72.238281 107.214844 C 72.238281 100.5625 66.839844 95.175781 60.1875 95.175781 C 59.207031 95.175781 58.269531 95.324219 57.359375 95.542969 C 63.042969 100.707031 65.027344 110.824219 58.707031 116.242188 C 57.691406 117.113281 56.597656 117.765625 55.457031 118.277344 C 56.902344 118.898438 58.492188 119.25 60.164062 119.25 " fill-opacity="1" fill-rule="nonzero"/><path fill="#1c565d" d="M 60.1875 119.25 C 60.183594 119.25 60.175781 119.25 60.167969 119.25 C 60.167969 119.25 60.167969 119.25 60.164062 119.25 C 58.492188 119.25 56.902344 118.898438 55.457031 118.277344 C 56.597656 117.765625 57.691406 117.113281 58.707031 116.242188 C 65.027344 110.824219 63.042969 100.707031 57.359375 95.542969 C 58.269531 95.324219 59.207031 95.175781 60.1875 95.175781 C 66.839844 95.175781 72.238281 100.5625 72.238281 107.214844 C 72.238281 113.863281 66.839844 119.25 60.1875 119.25 " fill-opacity="1" fill-rule="nonzero"/><g clip-path="url(#7f867860e7)"><path fill="#d3d2d2" d="M 59.691406 107.621094 C 59.691406 111.441406 56.589844 114.539062 52.765625 114.539062 L 31.773438 114.539062 C 27.949219 114.539062 24.851562 111.441406 24.851562 107.621094 C 24.851562 103.796875 27.949219 100.699219 31.773438 100.699219 L 52.765625 100.699219 C 56.589844 100.699219 59.691406 103.796875 59.691406 107.621094 " fill-opacity="1" fill-rule="nonzero"/></g><path fill="#e9e9e9" d="M 31.382812 114.53125 C 31.378906 114.53125 31.378906 114.53125 31.378906 114.527344 C 31.378906 114.53125 31.378906 114.53125 31.382812 114.53125 " fill-opacity="1" fill-rule="nonzero"/><path fill="#226970" d="M 53.160156 114.53125 C 53.164062 114.53125 53.164062 114.53125 53.164062 114.527344 C 53.164062 114.53125 53.164062 114.53125 53.160156 114.53125 " fill-opacity="1" fill-rule="nonzero"/><g clip-path="url(#e3de225008)"><path fill="#c2c1c1" d="M 52.765625 114.539062 L 31.773438 114.539062 C 31.765625 114.539062 31.761719 114.539062 31.753906 114.539062 C 31.746094 114.539062 31.746094 114.539062 31.742188 114.539062 C 31.738281 114.539062 31.734375 114.539062 31.730469 114.539062 C 31.726562 114.539062 31.726562 114.539062 31.71875 114.539062 C 31.714844 114.539062 31.710938 114.539062 31.707031 114.539062 C 31.707031 114.539062 31.703125 114.539062 31.699219 114.539062 C 31.695312 114.539062 31.6875 114.539062 31.683594 114.539062 C 31.679688 114.539062 31.675781 114.539062 31.671875 114.539062 C 31.671875 114.539062 31.667969 114.539062 31.660156 114.539062 C 31.65625 114.539062 31.652344 114.539062 31.648438 114.539062 C 31.648438 114.539062 31.644531 114.539062 31.644531 114.539062 C 31.640625 114.539062 31.636719 114.539062 31.628906 114.539062 C 31.625 114.539062 31.621094 114.539062 31.621094 114.539062 C 31.617188 114.539062 31.613281 114.539062 31.609375 114.535156 C 31.601562 114.535156 31.597656 114.535156 31.597656 114.535156 C 31.589844 114.535156 31.585938 114.535156 31.582031 114.535156 C 31.582031 114.535156 31.574219 114.535156 31.574219 114.535156 C 31.570312 114.535156 31.5625 114.535156 31.558594 114.535156 C 31.558594 114.535156 31.554688 114.535156 31.554688 114.535156 C 31.550781 114.535156 31.542969 114.535156 31.535156 114.535156 C 31.535156 114.535156 31.53125 114.535156 31.53125 114.535156 C 31.527344 114.535156 31.523438 114.535156 31.511719 114.535156 C 31.511719 114.535156 31.511719 114.535156 31.507812 114.535156 C 31.503906 114.535156 31.5 114.535156 31.496094 114.535156 C 31.488281 114.535156 31.488281 114.535156 31.484375 114.535156 C 31.480469 114.535156 31.476562 114.535156 31.472656 114.53125 C 31.46875 114.53125 31.46875 114.53125 31.464844 114.53125 C 31.457031 114.53125 31.453125 114.53125 31.449219 114.53125 C 31.445312 114.53125 31.445312 114.53125 31.445312 114.53125 C 31.4375 114.53125 31.429688 114.53125 31.425781 114.53125 C 31.425781 114.53125 31.421875 114.53125 31.421875 114.53125 C 31.414062 114.53125 31.410156 114.53125 31.402344 114.53125 C 31.402344 114.53125 31.398438 114.53125 31.398438 114.53125 C 31.394531 114.53125 31.386719 114.53125 31.382812 114.53125 C 31.378906 114.53125 31.378906 114.53125 31.378906 114.527344 C 31.371094 114.527344 31.363281 114.527344 31.359375 114.527344 C 31.359375 114.527344 31.359375 114.527344 31.355469 114.527344 C 31.351562 114.527344 31.339844 114.527344 31.335938 114.527344 C 27.753906 114.300781 24.914062 111.347656 24.859375 107.71875 L 59.679688 107.71875 C 59.628906 111.355469 56.78125 114.3125 53.1875 114.527344 C 53.175781 114.527344 53.171875 114.527344 53.164062 114.527344 C 53.164062 114.53125 53.164062 114.53125 53.160156 114.53125 C 53.15625 114.53125 53.144531 114.53125 53.140625 114.53125 C 53.140625 114.53125 53.140625 114.53125 53.136719 114.53125 C 53.132812 114.53125 53.128906 114.53125 53.117188 114.53125 C 53.109375 114.53125 53.105469 114.53125 53.097656 114.53125 C 53.085938 114.53125 53.082031 114.53125 53.074219 114.53125 C 53.0625 114.535156 53.058594 114.535156 53.054688 114.535156 C 53.050781 114.535156 53.050781 114.535156 53.050781 114.535156 C 53.042969 114.535156 53.039062 114.535156 53.03125 114.535156 C 53.03125 114.535156 53.027344 114.535156 53.027344 114.535156 C 53.019531 114.535156 53.015625 114.535156 53.011719 114.535156 C 53.003906 114.535156 53.003906 114.535156 53.003906 114.535156 C 52.996094 114.535156 52.992188 114.535156 52.988281 114.535156 C 52.988281 114.535156 52.984375 114.535156 52.984375 114.535156 C 52.976562 114.535156 52.96875 114.535156 52.964844 114.535156 C 52.964844 114.535156 52.960938 114.535156 52.960938 114.535156 C 52.957031 114.535156 52.953125 114.535156 52.941406 114.535156 C 52.941406 114.535156 52.9375 114.535156 52.933594 114.535156 C 52.929688 114.539062 52.925781 114.539062 52.917969 114.539062 C 52.917969 114.539062 52.914062 114.539062 52.914062 114.539062 C 52.910156 114.539062 52.90625 114.539062 52.902344 114.539062 C 52.898438 114.539062 52.890625 114.539062 52.890625 114.539062 C 52.886719 114.539062 52.882812 114.539062 52.878906 114.539062 C 52.875 114.539062 52.871094 114.539062 52.871094 114.539062 C 52.867188 114.539062 52.859375 114.539062 52.855469 114.539062 C 52.851562 114.539062 52.847656 114.539062 52.84375 114.539062 C 52.839844 114.539062 52.839844 114.539062 52.832031 114.539062 C 52.828125 114.539062 52.824219 114.539062 52.820312 114.539062 C 52.816406 114.539062 52.816406 114.539062 52.8125 114.539062 C 52.804688 114.539062 52.800781 114.539062 52.796875 114.539062 C 52.792969 114.539062 52.792969 114.539062 52.789062 114.539062 C 52.78125 114.539062 52.773438 114.539062 52.765625 114.539062 " fill-opacity="1" fill-rule="nonzero"/></g><path fill="#24737a" d="M 60.1875 152.960938 C 60.183594 152.960938 60.175781 152.960938 60.167969 152.960938 C 60.175781 152.960938 60.183594 152.960938 60.1875 152.960938 M 60.164062 152.960938 C 56.28125 152.957031 52.824219 151.109375 50.628906 148.253906 L 52.765625 148.253906 C 52.773438 148.253906 52.78125 148.253906 52.789062 148.253906 C 52.792969 148.253906 52.792969 148.253906 52.796875 148.253906 C 52.800781 148.253906 52.804688 148.253906 52.8125 148.253906 C 52.816406 148.253906 52.820312 148.253906 52.824219 148.253906 C 52.828125 148.253906 52.828125 148.253906 52.832031 148.253906 C 52.839844 148.253906 52.84375 148.253906 52.847656 148.253906 C 52.847656 148.253906 52.851562 148.253906 52.855469 148.253906 C 52.859375 148.253906 52.867188 148.253906 52.871094 148.253906 C 52.871094 148.253906 52.875 148.253906 52.878906 148.253906 C 52.882812 148.253906 52.886719 148.253906 52.890625 148.253906 C 52.890625 148.253906 52.898438 148.253906 52.902344 148.253906 C 52.90625 148.253906 52.914062 148.253906 52.917969 148.253906 C 52.929688 148.253906 52.933594 148.253906 52.941406 148.246094 C 52.953125 148.246094 52.957031 148.246094 52.964844 148.246094 C 56.699219 148.144531 59.691406 145.085938 59.691406 141.328125 C 59.691406 137.507812 56.589844 134.410156 52.765625 134.410156 L 50.054688 134.410156 C 52.195312 131.085938 55.933594 128.882812 60.1875 128.882812 C 66.839844 128.882812 72.238281 134.273438 72.238281 140.921875 C 72.238281 134.273438 66.839844 128.882812 60.1875 128.882812 C 59.207031 128.882812 58.269531 129.035156 57.359375 129.253906 C 63.042969 134.417969 65.027344 144.535156 58.707031 149.949219 C 57.691406 150.816406 56.597656 151.476562 55.457031 151.992188 C 56.902344 152.609375 58.492188 152.957031 60.164062 152.960938 " fill-opacity="1" fill-rule="nonzero"/><path fill="#1c565d" d="M 60.1875 152.960938 C 60.183594 152.960938 60.175781 152.960938 60.167969 152.960938 C 60.167969 152.960938 60.167969 152.960938 60.164062 152.960938 C 58.492188 152.957031 56.902344 152.609375 55.457031 151.992188 C 56.597656 151.476562 57.691406 150.816406 58.707031 149.949219 C 65.027344 144.535156 63.042969 134.417969 57.359375 129.253906 C 58.269531 129.035156 59.207031 128.882812 60.1875 128.882812 C 66.839844 128.882812 72.238281 134.273438 72.238281 140.921875 C 72.238281 147.574219 66.839844 152.960938 60.1875 152.960938 " fill-opacity="1" fill-rule="nonzero"/><g clip-path="url(#885e3836bd)"><path fill="#d3d2d2" d="M 59.691406 141.328125 C 59.691406 145.152344 56.589844 148.253906 52.765625 148.253906 L 31.773438 148.253906 C 27.949219 148.253906 24.851562 145.152344 24.851562 141.328125 C 24.851562 137.507812 27.949219 134.410156 31.773438 134.410156 L 52.765625 134.410156 C 56.589844 134.410156 59.691406 137.507812 59.691406 141.328125 " fill-opacity="1" fill-rule="nonzero"/></g><g clip-path="url(#5b448a9de2)"><path fill="#c2c1c1" d="M 52.765625 148.253906 L 31.773438 148.253906 C 31.765625 148.253906 31.761719 148.253906 31.753906 148.253906 C 31.746094 148.253906 31.746094 148.253906 31.742188 148.253906 C 31.738281 148.253906 31.734375 148.253906 31.730469 148.253906 C 31.726562 148.253906 31.71875 148.253906 31.714844 148.253906 C 31.714844 148.253906 31.710938 148.253906 31.707031 148.253906 C 31.703125 148.253906 31.699219 148.253906 31.695312 148.253906 C 31.695312 148.253906 31.6875 148.253906 31.683594 148.253906 C 31.679688 148.253906 31.675781 148.253906 31.671875 148.253906 C 31.671875 148.253906 31.667969 148.253906 31.660156 148.253906 C 31.65625 148.253906 31.652344 148.253906 31.648438 148.253906 C 31.648438 148.253906 31.644531 148.253906 31.644531 148.253906 C 31.636719 148.253906 31.628906 148.253906 31.621094 148.253906 C 31.613281 148.253906 31.601562 148.253906 31.597656 148.246094 C 31.589844 148.246094 31.585938 148.246094 31.574219 148.246094 C 27.878906 148.144531 24.914062 145.136719 24.859375 141.433594 L 59.679688 141.433594 C 59.628906 145.136719 56.664062 148.144531 52.964844 148.246094 C 52.957031 148.246094 52.953125 148.246094 52.941406 148.246094 C 52.9375 148.253906 52.929688 148.253906 52.917969 148.253906 C 52.910156 148.253906 52.90625 148.253906 52.902344 148.253906 C 52.898438 148.253906 52.898438 148.253906 52.890625 148.253906 C 52.886719 148.253906 52.882812 148.253906 52.878906 148.253906 C 52.875 148.253906 52.871094 148.253906 52.871094 148.253906 C 52.867188 148.253906 52.859375 148.253906 52.855469 148.253906 C 52.851562 148.253906 52.847656 148.253906 52.847656 148.253906 C 52.84375 148.253906 52.839844 148.253906 52.832031 148.253906 C 52.828125 148.253906 52.828125 148.253906 52.824219 148.253906 C 52.820312 148.253906 52.816406 148.253906 52.8125 148.253906 C 52.804688 148.253906 52.800781 148.253906 52.796875 148.253906 C 52.792969 148.253906 52.792969 148.253906 52.789062 148.253906 C 52.78125 148.253906 52.773438 148.253906 52.765625 148.253906 " fill-opacity="1" fill-rule="nonzero"/></g><path fill="#24737a" d="M 60.1875 186.675781 C 60.183594 186.675781 60.175781 186.675781 60.167969 186.675781 C 60.175781 186.675781 60.183594 186.675781 60.1875 186.675781 M 60.164062 186.675781 C 56.28125 186.671875 52.828125 184.824219 50.628906 181.964844 L 52.765625 181.964844 C 52.773438 181.964844 52.78125 181.964844 52.789062 181.964844 C 52.792969 181.964844 52.792969 181.964844 52.796875 181.964844 C 52.800781 181.964844 52.804688 181.964844 52.8125 181.964844 C 52.816406 181.964844 52.816406 181.964844 52.820312 181.964844 C 52.824219 181.964844 52.828125 181.964844 52.832031 181.964844 C 52.839844 181.964844 52.839844 181.964844 52.84375 181.964844 C 52.847656 181.964844 52.851562 181.964844 52.855469 181.964844 C 52.855469 181.964844 52.859375 181.964844 52.867188 181.964844 C 52.871094 181.964844 52.875 181.964844 52.878906 181.964844 C 52.878906 181.964844 52.882812 181.964844 52.886719 181.964844 C 52.890625 181.964844 52.898438 181.964844 52.902344 181.964844 C 52.902344 181.964844 52.90625 181.964844 52.910156 181.964844 C 52.914062 181.964844 52.917969 181.964844 52.917969 181.964844 C 52.925781 181.964844 52.929688 181.964844 52.933594 181.964844 C 52.9375 181.964844 52.941406 181.964844 52.941406 181.964844 C 52.945312 181.964844 52.953125 181.960938 52.957031 181.960938 C 52.960938 181.960938 52.964844 181.960938 52.964844 181.960938 C 52.96875 181.960938 52.972656 181.960938 52.976562 181.960938 C 52.984375 181.960938 52.984375 181.960938 52.988281 181.960938 C 52.992188 181.960938 52.996094 181.960938 53.003906 181.960938 C 53.003906 181.960938 53.003906 181.960938 53.011719 181.960938 C 53.015625 181.960938 53.019531 181.960938 53.027344 181.960938 C 53.027344 181.960938 53.027344 181.960938 53.03125 181.960938 C 53.039062 181.960938 53.042969 181.960938 53.050781 181.960938 C 53.050781 181.960938 53.050781 181.960938 53.054688 181.960938 C 53.058594 181.960938 53.0625 181.960938 53.070312 181.960938 C 53.074219 181.960938 53.074219 181.960938 53.078125 181.960938 C 53.082031 181.957031 53.085938 181.957031 53.089844 181.957031 C 53.097656 181.957031 53.097656 181.957031 53.101562 181.957031 C 53.105469 181.957031 53.109375 181.957031 53.113281 181.957031 C 53.117188 181.957031 53.117188 181.957031 53.117188 181.957031 C 53.128906 181.957031 53.132812 181.957031 53.140625 181.957031 C 53.144531 181.957031 53.15625 181.957031 53.164062 181.957031 C 53.171875 181.953125 53.175781 181.953125 53.1875 181.953125 C 56.816406 181.734375 59.691406 178.722656 59.691406 175.042969 C 59.691406 171.222656 56.589844 168.125 52.765625 168.125 L 50.054688 168.125 C 52.195312 164.800781 55.933594 162.601562 60.1875 162.601562 C 66.839844 162.601562 72.238281 167.988281 72.238281 174.636719 C 72.238281 167.988281 66.839844 162.601562 60.1875 162.601562 C 59.207031 162.601562 58.269531 162.746094 57.359375 162.96875 C 63.042969 168.132812 65.027344 178.25 58.707031 183.664062 C 57.691406 184.53125 56.597656 185.191406 55.457031 185.703125 C 56.902344 186.324219 58.492188 186.671875 60.164062 186.675781 " fill-opacity="1" fill-rule="nonzero"/><path fill="#1c565d" d="M 60.1875 186.675781 C 60.183594 186.675781 60.175781 186.675781 60.167969 186.675781 C 60.167969 186.675781 60.167969 186.675781 60.164062 186.675781 C 58.492188 186.671875 56.902344 186.324219 55.457031 185.703125 C 56.597656 185.191406 57.691406 184.53125 58.707031 183.664062 C 65.027344 178.25 63.042969 168.132812 57.359375 162.96875 C 58.269531 162.746094 59.207031 162.601562 60.1875 162.601562 C 66.839844 162.601562 72.238281 167.988281 72.238281 174.636719 C 72.238281 181.28125 66.839844 186.675781 60.1875 186.675781 " fill-opacity="1" fill-rule="nonzero"/><g clip-path="url(#78717d8b4f)"><path fill="#d3d2d2" d="M 59.691406 175.042969 C 59.691406 178.867188 56.589844 181.964844 52.765625 181.964844 L 31.773438 181.964844 C 27.949219 181.964844 24.851562 178.867188 24.851562 175.042969 C 24.851562 171.222656 27.949219 168.125 31.773438 168.125 L 52.765625 168.125 C 56.589844 168.125 59.691406 171.222656 59.691406 175.042969 " fill-opacity="1" fill-rule="nonzero"/></g><g clip-path="url(#f24ed8570b)"><path fill="#c2c1c1" d="M 52.765625 181.964844 L 31.773438 181.964844 C 31.765625 181.964844 31.761719 181.964844 31.753906 181.964844 C 31.746094 181.964844 31.746094 181.964844 31.742188 181.964844 C 31.738281 181.964844 31.734375 181.964844 31.730469 181.964844 C 31.726562 181.964844 31.726562 181.964844 31.71875 181.964844 C 31.714844 181.964844 31.710938 181.964844 31.707031 181.964844 C 31.707031 181.964844 31.703125 181.964844 31.699219 181.964844 C 31.695312 181.964844 31.6875 181.964844 31.683594 181.964844 C 31.683594 181.964844 31.679688 181.964844 31.675781 181.964844 C 31.671875 181.964844 31.667969 181.964844 31.660156 181.964844 C 31.660156 181.964844 31.65625 181.964844 31.652344 181.964844 C 31.648438 181.964844 31.644531 181.964844 31.644531 181.964844 C 31.640625 181.964844 31.636719 181.964844 31.628906 181.964844 C 31.625 181.964844 31.621094 181.964844 31.621094 181.964844 C 31.617188 181.964844 31.613281 181.964844 31.609375 181.964844 C 31.601562 181.964844 31.597656 181.964844 31.597656 181.964844 C 31.59375 181.964844 31.589844 181.960938 31.585938 181.960938 C 31.582031 181.960938 31.574219 181.960938 31.574219 181.960938 C 31.570312 181.960938 31.566406 181.960938 31.5625 181.960938 C 31.558594 181.960938 31.558594 181.960938 31.554688 181.960938 C 31.550781 181.960938 31.542969 181.960938 31.535156 181.960938 C 31.535156 181.960938 31.535156 181.960938 31.53125 181.960938 C 31.527344 181.960938 31.523438 181.960938 31.515625 181.960938 C 31.511719 181.960938 31.511719 181.960938 31.507812 181.960938 C 31.503906 181.960938 31.5 181.960938 31.496094 181.960938 C 31.488281 181.960938 31.488281 181.960938 31.484375 181.960938 C 31.480469 181.960938 31.476562 181.960938 31.472656 181.960938 C 31.46875 181.960938 31.46875 181.960938 31.464844 181.960938 C 31.457031 181.957031 31.453125 181.957031 31.449219 181.957031 C 31.445312 181.957031 31.445312 181.957031 31.445312 181.957031 C 31.4375 181.957031 31.429688 181.957031 31.425781 181.957031 C 31.425781 181.957031 31.421875 181.957031 31.421875 181.957031 C 31.414062 181.957031 31.410156 181.957031 31.402344 181.957031 C 31.398438 181.957031 31.398438 181.957031 31.398438 181.957031 C 31.390625 181.957031 31.386719 181.957031 31.382812 181.957031 C 31.378906 181.957031 31.378906 181.957031 31.378906 181.957031 C 31.371094 181.957031 31.363281 181.953125 31.359375 181.953125 C 31.359375 181.953125 31.355469 181.953125 31.355469 181.953125 C 31.351562 181.953125 31.339844 181.953125 31.335938 181.953125 C 27.753906 181.726562 24.914062 178.773438 24.859375 175.140625 L 59.679688 175.140625 C 59.628906 178.78125 56.78125 181.738281 53.1875 181.953125 C 53.175781 181.953125 53.171875 181.953125 53.164062 181.957031 C 53.15625 181.957031 53.148438 181.957031 53.140625 181.957031 C 53.132812 181.957031 53.128906 181.957031 53.117188 181.957031 C 53.117188 181.957031 53.117188 181.957031 53.113281 181.957031 C 53.109375 181.957031 53.105469 181.957031 53.101562 181.957031 C 53.097656 181.957031 53.097656 181.957031 53.089844 181.957031 C 53.085938 181.957031 53.082031 181.957031 53.078125 181.960938 C 53.074219 181.960938 53.074219 181.960938 53.070312 181.960938 C 53.0625 181.960938 53.058594 181.960938 53.054688 181.960938 C 53.050781 181.960938 53.050781 181.960938 53.050781 181.960938 C 53.042969 181.960938 53.039062 181.960938 53.03125 181.960938 C 53.027344 181.960938 53.027344 181.960938 53.027344 181.960938 C 53.019531 181.960938 53.015625 181.960938 53.011719 181.960938 C 53.003906 181.960938 53.003906 181.960938 53.003906 181.960938 C 52.996094 181.960938 52.992188 181.960938 52.988281 181.960938 C 52.984375 181.960938 52.984375 181.960938 52.976562 181.960938 C 52.972656 181.960938 52.96875 181.960938 52.964844 181.960938 C 52.964844 181.960938 52.960938 181.960938 52.957031 181.960938 C 52.953125 181.960938 52.945312 181.964844 52.941406 181.964844 C 52.941406 181.964844 52.9375 181.964844 52.933594 181.964844 C 52.929688 181.964844 52.925781 181.964844 52.917969 181.964844 C 52.917969 181.964844 52.914062 181.964844 52.910156 181.964844 C 52.90625 181.964844 52.902344 181.964844 52.902344 181.964844 C 52.898438 181.964844 52.890625 181.964844 52.886719 181.964844 C 52.882812 181.964844 52.878906 181.964844 52.878906 181.964844 C 52.875 181.964844 52.871094 181.964844 52.867188 181.964844 C 52.859375 181.964844 52.855469 181.964844 52.855469 181.964844 C 52.851562 181.964844 52.847656 181.964844 52.84375 181.964844 C 52.839844 181.964844 52.839844 181.964844 52.832031 181.964844 C 52.828125 181.964844 52.824219 181.964844 52.820312 181.964844 C 52.816406 181.964844 52.816406 181.964844 52.8125 181.964844 C 52.804688 181.964844 52.800781 181.964844 52.796875 181.964844 C 52.792969 181.964844 52.792969 181.964844 52.789062 181.964844 C 52.78125 181.964844 52.773438 181.964844 52.765625 181.964844 " fill-opacity="1" fill-rule="nonzero"/></g><path fill="#24737a" d="M 60.15625 220.382812 C 60.152344 220.382812 60.152344 220.382812 60.152344 220.382812 C 60.152344 220.382812 60.152344 220.382812 60.15625 220.382812 M 60.144531 220.382812 C 60.136719 220.382812 60.132812 220.382812 60.128906 220.382812 C 60.132812 220.382812 60.136719 220.382812 60.144531 220.382812 M 60.125 220.382812 C 56.253906 220.367188 52.820312 218.523438 50.628906 215.671875 L 52.765625 215.671875 C 52.773438 215.671875 52.78125 215.671875 52.789062 215.671875 C 52.792969 215.671875 52.796875 215.671875 52.800781 215.671875 C 52.804688 215.671875 52.804688 215.671875 52.8125 215.671875 C 52.816406 215.671875 52.820312 215.671875 52.828125 215.671875 C 52.828125 215.671875 52.828125 215.671875 52.832031 215.671875 C 52.839844 215.671875 52.84375 215.671875 52.847656 215.671875 C 52.847656 215.671875 52.851562 215.671875 52.855469 215.671875 C 52.859375 215.671875 52.867188 215.671875 52.875 215.671875 C 52.875 215.671875 52.875 215.671875 52.878906 215.671875 C 52.882812 215.671875 52.886719 215.671875 52.898438 215.671875 C 52.898438 215.671875 52.898438 215.671875 52.902344 215.671875 C 52.914062 215.671875 52.929688 215.671875 52.941406 215.671875 C 56.683594 215.578125 59.691406 212.515625 59.691406 208.753906 C 59.691406 204.933594 56.589844 201.832031 52.765625 201.832031 L 50.054688 201.832031 C 52.199219 198.507812 55.9375 196.308594 60.1875 196.308594 C 66.839844 196.308594 72.238281 201.699219 72.238281 208.347656 C 72.238281 201.699219 66.839844 196.308594 60.1875 196.308594 C 59.207031 196.308594 58.269531 196.460938 57.359375 196.679688 C 63.042969 201.839844 65.027344 211.960938 58.707031 217.371094 C 57.691406 218.242188 56.597656 218.902344 55.457031 219.417969 C 56.886719 220.03125 58.464844 220.375 60.125 220.382812 " fill-opacity="1" fill-rule="nonzero"/><path fill="#24737a" d="M 60.1875 220.382812 C 60.179688 220.382812 60.164062 220.382812 60.15625 220.382812 C 60.164062 220.382812 60.179688 220.382812 60.1875 220.382812 C 66.839844 220.382812 72.238281 214.996094 72.238281 208.347656 C 72.238281 214.996094 66.839844 220.382812 60.1875 220.382812 M 60.152344 220.382812 C 60.148438 220.382812 60.144531 220.382812 60.144531 220.382812 C 60.144531 220.382812 60.148438 220.382812 60.152344 220.382812 M 60.128906 220.382812 C 60.128906 220.382812 60.128906 220.382812 60.125 220.382812 C 60.128906 220.382812 60.128906 220.382812 60.128906 220.382812 " fill-opacity="1" fill-rule="nonzero"/><path fill="#1c565d" d="M 60.1875 220.382812 C 60.179688 220.382812 60.164062 220.382812 60.15625 220.382812 C 60.152344 220.382812 60.152344 220.382812 60.152344 220.382812 C 60.148438 220.382812 60.144531 220.382812 60.144531 220.382812 C 60.136719 220.382812 60.132812 220.382812 60.128906 220.382812 C 60.128906 220.382812 60.128906 220.382812 60.125 220.382812 C 58.464844 220.375 56.886719 220.03125 55.457031 219.417969 C 56.597656 218.902344 57.691406 218.242188 58.707031 217.371094 C 65.027344 211.960938 63.042969 201.839844 57.359375 196.679688 C 58.269531 196.460938 59.207031 196.308594 60.1875 196.308594 C 66.839844 196.308594 72.238281 201.699219 72.238281 208.347656 C 72.238281 214.996094 66.839844 220.382812 60.1875 220.382812 " fill-opacity="1" fill-rule="nonzero"/><g clip-path="url(#7e3dabb00d)"><path fill="#d3d2d2" d="M 59.691406 208.753906 C 59.691406 212.574219 56.589844 215.671875 52.765625 215.671875 L 31.773438 215.671875 C 27.949219 215.671875 24.851562 212.574219 24.851562 208.753906 C 24.851562 204.933594 27.949219 201.832031 31.773438 201.832031 L 52.765625 201.832031 C 56.589844 201.832031 59.691406 204.933594 59.691406 208.753906 " fill-opacity="1" fill-rule="nonzero"/></g><g clip-path="url(#c1d41104eb)"><path fill="#c2c1c1" d="M 52.765625 215.671875 L 31.773438 215.671875 C 31.765625 215.671875 31.761719 215.671875 31.753906 215.671875 C 31.746094 215.671875 31.742188 215.671875 31.738281 215.671875 C 31.734375 215.671875 31.734375 215.671875 31.730469 215.671875 C 31.726562 215.671875 31.71875 215.671875 31.714844 215.671875 C 31.710938 215.671875 31.710938 215.671875 31.707031 215.671875 C 31.703125 215.671875 31.699219 215.671875 31.695312 215.671875 C 31.695312 215.671875 31.6875 215.671875 31.683594 215.671875 C 31.679688 215.671875 31.675781 215.671875 31.667969 215.671875 C 31.667969 215.671875 31.667969 215.671875 31.660156 215.671875 C 31.65625 215.671875 31.652344 215.671875 31.644531 215.671875 C 31.625 215.671875 31.613281 215.671875 31.597656 215.671875 C 27.890625 215.578125 24.914062 212.570312 24.859375 208.855469 L 59.679688 208.855469 C 59.628906 212.570312 56.652344 215.578125 52.941406 215.671875 C 52.929688 215.671875 52.914062 215.671875 52.902344 215.671875 C 52.898438 215.671875 52.898438 215.671875 52.898438 215.671875 C 52.886719 215.671875 52.882812 215.671875 52.878906 215.671875 C 52.875 215.671875 52.875 215.671875 52.875 215.671875 C 52.867188 215.671875 52.859375 215.671875 52.855469 215.671875 C 52.851562 215.671875 52.847656 215.671875 52.847656 215.671875 C 52.84375 215.671875 52.839844 215.671875 52.832031 215.671875 C 52.828125 215.671875 52.828125 215.671875 52.828125 215.671875 C 52.820312 215.671875 52.816406 215.671875 52.8125 215.671875 C 52.804688 215.671875 52.804688 215.671875 52.800781 215.671875 C 52.796875 215.671875 52.792969 215.671875 52.789062 215.671875 C 52.78125 215.671875 52.773438 215.671875 52.765625 215.671875 " fill-opacity="1" fill-rule="nonzero"/></g><path fill="#24737a" d="M 60.1875 254.097656 C 60.183594 254.097656 60.175781 254.097656 60.167969 254.097656 C 60.175781 254.097656 60.183594 254.097656 60.1875 254.097656 M 60.164062 254.097656 C 56.28125 254.09375 52.824219 252.246094 50.628906 249.386719 L 52.765625 249.386719 C 52.773438 249.386719 52.78125 249.386719 52.789062 249.386719 C 52.792969 249.386719 52.792969 249.386719 52.796875 249.386719 C 52.800781 249.386719 52.804688 249.386719 52.8125 249.386719 C 52.816406 249.386719 52.816406 249.386719 52.820312 249.386719 C 52.824219 249.386719 52.828125 249.386719 52.832031 249.386719 C 52.839844 249.386719 52.839844 249.386719 52.84375 249.386719 C 52.847656 249.386719 52.851562 249.386719 52.855469 249.386719 C 52.855469 249.386719 52.859375 249.386719 52.867188 249.386719 C 52.871094 249.386719 52.875 249.386719 52.878906 249.386719 C 52.878906 249.386719 52.882812 249.386719 52.886719 249.386719 C 52.890625 249.386719 52.898438 249.386719 52.902344 249.386719 C 52.902344 249.386719 52.90625 249.386719 52.910156 249.386719 C 52.914062 249.386719 52.917969 249.386719 52.917969 249.386719 C 52.925781 249.386719 52.929688 249.386719 52.933594 249.386719 C 52.9375 249.386719 52.9375 249.386719 52.941406 249.386719 C 52.945312 249.386719 52.953125 249.386719 52.957031 249.386719 C 52.960938 249.386719 52.964844 249.382812 52.964844 249.382812 C 52.96875 249.382812 52.972656 249.382812 52.976562 249.382812 C 52.984375 249.382812 52.984375 249.382812 52.988281 249.382812 C 52.992188 249.382812 52.996094 249.382812 53 249.382812 C 53.003906 249.382812 53.003906 249.382812 53.011719 249.382812 C 53.015625 249.382812 53.019531 249.382812 53.023438 249.382812 C 53.027344 249.382812 53.027344 249.382812 53.03125 249.382812 C 53.039062 249.382812 53.042969 249.382812 53.046875 249.382812 C 53.050781 249.382812 53.050781 249.382812 53.054688 249.382812 C 53.058594 249.382812 53.0625 249.378906 53.070312 249.378906 C 53.074219 249.378906 53.074219 249.378906 53.078125 249.378906 C 53.082031 249.378906 53.085938 249.378906 53.089844 249.378906 C 53.097656 249.378906 53.097656 249.378906 53.101562 249.378906 C 53.105469 249.378906 53.109375 249.378906 53.113281 249.378906 C 53.117188 249.378906 53.117188 249.378906 53.117188 249.378906 C 53.128906 249.378906 53.132812 249.378906 53.136719 249.378906 C 53.140625 249.378906 53.140625 249.378906 53.140625 249.378906 C 53.144531 249.378906 53.15625 249.378906 53.160156 249.371094 C 53.164062 249.371094 53.164062 249.371094 53.164062 249.371094 C 53.171875 249.371094 53.175781 249.371094 53.1875 249.371094 C 53.191406 249.371094 53.199219 249.371094 53.203125 249.371094 C 56.824219 249.148438 59.691406 246.140625 59.691406 242.464844 C 59.691406 238.648438 56.589844 235.542969 52.765625 235.542969 L 50.054688 235.542969 C 52.195312 232.21875 55.933594 230.019531 60.1875 230.019531 C 66.839844 230.019531 72.238281 235.410156 72.238281 242.054688 C 72.238281 235.410156 66.839844 230.019531 60.1875 230.019531 C 59.207031 230.019531 58.269531 230.171875 57.359375 230.386719 C 63.042969 235.554688 65.027344 245.667969 58.707031 251.089844 C 57.691406 251.957031 56.597656 252.617188 55.457031 253.125 C 56.902344 253.746094 58.492188 254.097656 60.164062 254.097656 " fill-opacity="1" fill-rule="nonzero"/><path fill="#1c565d" d="M 60.1875 254.097656 C 60.183594 254.097656 60.175781 254.097656 60.167969 254.097656 C 60.167969 254.097656 60.167969 254.097656 60.164062 254.097656 C 58.492188 254.097656 56.902344 253.746094 55.457031 253.125 C 56.597656 252.617188 57.691406 251.957031 58.707031 251.089844 C 65.027344 245.667969 63.042969 235.554688 57.359375 230.386719 C 58.269531 230.171875 59.207031 230.019531 60.1875 230.019531 C 66.839844 230.019531 72.238281 235.410156 72.238281 242.054688 C 72.238281 248.707031 66.839844 254.097656 60.1875 254.097656 " fill-opacity="1" fill-rule="nonzero"/><g clip-path="url(#49c0f9d655)"><path fill="#d3d2d2" d="M 59.691406 242.464844 C 59.691406 246.285156 56.589844 249.386719 52.765625 249.386719 L 31.773438 249.386719 C 27.949219 249.386719 24.851562 246.285156 24.851562 242.464844 C 24.851562 238.648438 27.949219 235.542969 31.773438 235.542969 L 52.765625 235.542969 C 56.589844 235.542969 59.691406 238.648438 59.691406 242.464844 " fill-opacity="1" fill-rule="nonzero"/></g><path fill="#e9e9e9" d="M 31.585938 249.386719 C 31.582031 249.386719 31.574219 249.382812 31.574219 249.382812 C 31.582031 249.382812 31.582031 249.386719 31.585938 249.386719 " fill-opacity="1" fill-rule="nonzero"/><path fill="#226970" d="M 52.957031 249.386719 C 52.960938 249.386719 52.964844 249.382812 52.964844 249.382812 C 52.964844 249.382812 52.960938 249.386719 52.957031 249.386719 " fill-opacity="1" fill-rule="nonzero"/><g clip-path="url(#2352197a75)"><path fill="#c2c1c1" d="M 52.765625 249.386719 L 31.773438 249.386719 C 31.765625 249.386719 31.761719 249.386719 31.753906 249.386719 C 31.746094 249.386719 31.746094 249.386719 31.742188 249.386719 C 31.738281 249.386719 31.734375 249.386719 31.730469 249.386719 C 31.726562 249.386719 31.726562 249.386719 31.71875 249.386719 C 31.714844 249.386719 31.710938 249.386719 31.707031 249.386719 C 31.707031 249.386719 31.703125 249.386719 31.699219 249.386719 C 31.695312 249.386719 31.6875 249.386719 31.683594 249.386719 C 31.683594 249.386719 31.679688 249.386719 31.675781 249.386719 C 31.671875 249.386719 31.667969 249.386719 31.660156 249.386719 C 31.660156 249.386719 31.65625 249.386719 31.652344 249.386719 C 31.648438 249.386719 31.644531 249.386719 31.644531 249.386719 C 31.640625 249.386719 31.636719 249.386719 31.628906 249.386719 C 31.625 249.386719 31.621094 249.386719 31.621094 249.386719 C 31.617188 249.386719 31.613281 249.386719 31.609375 249.386719 C 31.601562 249.386719 31.597656 249.386719 31.597656 249.386719 C 31.59375 249.386719 31.589844 249.386719 31.585938 249.386719 C 31.582031 249.386719 31.582031 249.382812 31.574219 249.382812 C 31.570312 249.382812 31.566406 249.382812 31.5625 249.382812 C 31.558594 249.382812 31.558594 249.382812 31.554688 249.382812 C 31.550781 249.382812 31.542969 249.382812 31.539062 249.382812 C 31.535156 249.382812 31.535156 249.382812 31.53125 249.382812 C 31.527344 249.382812 31.523438 249.382812 31.515625 249.382812 C 31.511719 249.382812 31.511719 249.382812 31.507812 249.382812 C 31.503906 249.382812 31.5 249.382812 31.496094 249.382812 C 31.488281 249.382812 31.488281 249.382812 31.484375 249.382812 C 31.480469 249.382812 31.476562 249.378906 31.472656 249.378906 C 31.46875 249.378906 31.46875 249.378906 31.464844 249.378906 C 31.457031 249.378906 31.453125 249.378906 31.449219 249.378906 C 31.445312 249.378906 31.445312 249.378906 31.445312 249.378906 C 31.4375 249.378906 31.429688 249.378906 31.425781 249.378906 C 31.425781 249.378906 31.421875 249.378906 31.421875 249.378906 C 31.414062 249.378906 31.410156 249.378906 31.402344 249.378906 C 31.402344 249.378906 31.398438 249.378906 31.398438 249.378906 C 31.394531 249.378906 31.386719 249.378906 31.382812 249.371094 C 31.382812 249.371094 31.378906 249.371094 31.378906 249.371094 C 31.371094 249.371094 31.363281 249.371094 31.359375 249.371094 C 31.359375 249.371094 31.355469 249.371094 31.355469 249.371094 C 31.351562 249.371094 31.339844 249.371094 31.335938 249.371094 C 27.753906 249.148438 24.914062 246.191406 24.859375 242.566406 L 59.679688 242.566406 C 59.628906 246.191406 56.792969 249.148438 53.203125 249.371094 C 53.199219 249.371094 53.191406 249.371094 53.1875 249.371094 C 53.175781 249.371094 53.167969 249.371094 53.164062 249.371094 C 53.164062 249.371094 53.160156 249.371094 53.160156 249.371094 C 53.15625 249.378906 53.144531 249.378906 53.140625 249.378906 C 53.140625 249.378906 53.140625 249.378906 53.136719 249.378906 C 53.132812 249.378906 53.128906 249.378906 53.117188 249.378906 C 53.117188 249.378906 53.117188 249.378906 53.113281 249.378906 C 53.109375 249.378906 53.105469 249.378906 53.101562 249.378906 C 53.097656 249.378906 53.097656 249.378906 53.089844 249.378906 C 53.085938 249.378906 53.082031 249.378906 53.078125 249.378906 C 53.074219 249.378906 53.074219 249.378906 53.070312 249.378906 C 53.0625 249.378906 53.058594 249.382812 53.054688 249.382812 C 53.050781 249.382812 53.050781 249.382812 53.046875 249.382812 C 53.042969 249.382812 53.039062 249.382812 53.03125 249.382812 C 53.027344 249.382812 53.027344 249.382812 53.023438 249.382812 C 53.019531 249.382812 53.015625 249.382812 53.011719 249.382812 C 53.003906 249.382812 53.003906 249.382812 53 249.382812 C 52.996094 249.382812 52.992188 249.382812 52.988281 249.382812 C 52.984375 249.382812 52.984375 249.382812 52.976562 249.382812 C 52.972656 249.382812 52.96875 249.382812 52.964844 249.382812 C 52.964844 249.382812 52.960938 249.386719 52.957031 249.386719 C 52.953125 249.386719 52.945312 249.386719 52.941406 249.386719 C 52.9375 249.386719 52.9375 249.386719 52.933594 249.386719 C 52.929688 249.386719 52.925781 249.386719 52.917969 249.386719 C 52.917969 249.386719 52.914062 249.386719 52.910156 249.386719 C 52.90625 249.386719 52.902344 249.386719 52.902344 249.386719 C 52.898438 249.386719 52.890625 249.386719 52.886719 249.386719 C 52.882812 249.386719 52.878906 249.386719 52.878906 249.386719 C 52.875 249.386719 52.871094 249.386719 52.867188 249.386719 C 52.859375 249.386719 52.855469 249.386719 52.855469 249.386719 C 52.851562 249.386719 52.847656 249.386719 52.84375 249.386719 C 52.839844 249.386719 52.839844 249.386719 52.832031 249.386719 C 52.828125 249.386719 52.824219 249.386719 52.820312 249.386719 C 52.816406 249.386719 52.816406 249.386719 52.8125 249.386719 C 52.804688 249.386719 52.800781 249.386719 52.796875 249.386719 C 52.792969 249.386719 52.792969 249.386719 52.789062 249.386719 C 52.78125 249.386719 52.773438 249.386719 52.765625 249.386719 " fill-opacity="1" fill-rule="nonzero"/></g><path fill="#24737a" d="M 60.1875 287.808594 C 60.183594 287.808594 60.175781 287.808594 60.167969 287.808594 C 60.175781 287.808594 60.183594 287.808594 60.1875 287.808594 M 60.164062 287.808594 C 56.28125 287.800781 52.828125 285.957031 50.628906 283.097656 L 52.765625 283.097656 C 52.773438 283.097656 52.78125 283.097656 52.789062 283.097656 C 52.792969 283.097656 52.792969 283.097656 52.796875 283.097656 C 52.800781 283.097656 52.804688 283.097656 52.8125 283.097656 C 52.816406 283.097656 52.816406 283.097656 52.820312 283.097656 C 52.824219 283.097656 52.828125 283.097656 52.832031 283.097656 C 52.839844 283.097656 52.839844 283.097656 52.84375 283.097656 C 52.847656 283.097656 52.851562 283.097656 52.855469 283.097656 C 52.855469 283.097656 52.859375 283.097656 52.867188 283.097656 C 52.871094 283.097656 52.875 283.097656 52.878906 283.097656 C 52.878906 283.097656 52.882812 283.097656 52.886719 283.097656 C 52.890625 283.097656 52.898438 283.097656 52.902344 283.097656 C 52.902344 283.097656 52.90625 283.097656 52.910156 283.097656 C 52.914062 283.097656 52.917969 283.097656 52.917969 283.097656 C 52.925781 283.09375 52.929688 283.09375 52.933594 283.09375 C 52.9375 283.09375 52.941406 283.09375 52.941406 283.09375 C 52.945312 283.09375 52.953125 283.09375 52.957031 283.09375 C 52.960938 283.09375 52.964844 283.09375 52.964844 283.09375 C 52.96875 283.09375 52.972656 283.09375 52.976562 283.09375 C 52.984375 283.09375 52.984375 283.09375 52.988281 283.09375 C 52.992188 283.09375 52.996094 283.09375 53.003906 283.09375 C 53.003906 283.09375 53.003906 283.09375 53.011719 283.09375 C 53.015625 283.09375 53.019531 283.09375 53.027344 283.09375 C 53.027344 283.09375 53.027344 283.09375 53.03125 283.09375 C 53.039062 283.09375 53.042969 283.09375 53.050781 283.09375 C 53.050781 283.09375 53.050781 283.09375 53.054688 283.09375 C 53.058594 283.09375 53.0625 283.09375 53.070312 283.089844 C 53.074219 283.089844 53.074219 283.089844 53.078125 283.089844 C 53.082031 283.089844 53.085938 283.089844 53.097656 283.089844 C 53.105469 283.089844 53.109375 283.089844 53.117188 283.089844 C 53.128906 283.089844 53.132812 283.089844 53.140625 283.089844 C 53.148438 283.089844 53.15625 283.089844 53.164062 283.085938 C 56.800781 282.882812 59.691406 279.867188 59.691406 276.179688 C 59.691406 272.355469 56.589844 269.257812 52.765625 269.257812 L 50.054688 269.257812 C 52.199219 265.933594 55.9375 263.734375 60.1875 263.734375 C 66.839844 263.734375 72.238281 269.121094 72.238281 275.769531 C 72.238281 269.121094 66.839844 263.734375 60.1875 263.734375 C 59.207031 263.734375 58.269531 263.878906 57.359375 264.105469 C 63.042969 269.265625 65.027344 279.382812 58.707031 284.796875 C 57.691406 285.667969 56.597656 286.324219 55.457031 286.839844 C 56.902344 287.457031 58.492188 287.804688 60.164062 287.808594 " fill-opacity="1" fill-rule="nonzero"/><path fill="#1c565d" d="M 60.1875 287.808594 C 60.183594 287.808594 60.175781 287.808594 60.167969 287.808594 C 60.167969 287.808594 60.167969 287.808594 60.164062 287.808594 C 58.492188 287.804688 56.902344 287.457031 55.457031 286.839844 C 56.597656 286.324219 57.691406 285.667969 58.707031 284.796875 C 65.027344 279.382812 63.042969 269.265625 57.359375 264.105469 C 58.269531 263.878906 59.207031 263.734375 60.1875 263.734375 C 66.839844 263.734375 72.238281 269.121094 72.238281 275.769531 C 72.238281 282.417969 66.839844 287.808594 60.1875 287.808594 " fill-opacity="1" fill-rule="nonzero"/><g clip-path="url(#bc991ae4c7)"><path fill="#d3d2d2" d="M 59.691406 276.179688 C 59.691406 279.996094 56.589844 283.097656 52.765625 283.097656 L 31.773438 283.097656 C 27.949219 283.097656 24.851562 279.996094 24.851562 276.179688 C 24.851562 272.355469 27.949219 269.257812 31.773438 269.257812 L 52.765625 269.257812 C 56.589844 269.257812 59.691406 272.355469 59.691406 276.179688 " fill-opacity="1" fill-rule="nonzero"/></g><g clip-path="url(#6ae66c4c70)"><path fill="#c2c1c1" d="M 52.765625 283.097656 L 31.773438 283.097656 C 31.765625 283.097656 31.761719 283.097656 31.753906 283.097656 C 31.746094 283.097656 31.746094 283.097656 31.742188 283.097656 C 31.738281 283.097656 31.734375 283.097656 31.730469 283.097656 C 31.726562 283.097656 31.726562 283.097656 31.71875 283.097656 C 31.714844 283.097656 31.710938 283.097656 31.707031 283.097656 C 31.707031 283.097656 31.703125 283.097656 31.699219 283.097656 C 31.695312 283.097656 31.6875 283.097656 31.683594 283.097656 C 31.683594 283.097656 31.679688 283.097656 31.675781 283.097656 C 31.671875 283.097656 31.667969 283.097656 31.660156 283.097656 C 31.660156 283.097656 31.65625 283.097656 31.652344 283.097656 C 31.648438 283.097656 31.644531 283.097656 31.644531 283.097656 C 31.640625 283.097656 31.636719 283.097656 31.628906 283.097656 C 31.625 283.097656 31.621094 283.097656 31.621094 283.097656 C 31.617188 283.09375 31.613281 283.09375 31.609375 283.09375 C 31.601562 283.09375 31.597656 283.09375 31.597656 283.09375 C 31.59375 283.09375 31.589844 283.09375 31.585938 283.09375 C 31.582031 283.09375 31.574219 283.09375 31.574219 283.09375 C 31.570312 283.09375 31.566406 283.09375 31.5625 283.09375 C 31.558594 283.09375 31.558594 283.09375 31.554688 283.09375 C 31.550781 283.09375 31.542969 283.09375 31.535156 283.09375 C 31.535156 283.09375 31.535156 283.09375 31.53125 283.09375 C 31.527344 283.09375 31.523438 283.09375 31.515625 283.09375 C 31.511719 283.09375 31.511719 283.09375 31.507812 283.09375 C 31.503906 283.09375 31.5 283.09375 31.496094 283.09375 C 31.488281 283.09375 31.488281 283.09375 31.484375 283.09375 C 31.480469 283.09375 31.476562 283.09375 31.472656 283.089844 C 31.46875 283.089844 31.46875 283.089844 31.464844 283.089844 C 31.457031 283.089844 31.453125 283.089844 31.449219 283.089844 C 31.445312 283.089844 31.445312 283.089844 31.445312 283.089844 C 31.4375 283.089844 31.429688 283.089844 31.425781 283.089844 C 31.421875 283.089844 31.421875 283.089844 31.421875 283.089844 C 31.414062 283.089844 31.410156 283.089844 31.402344 283.089844 C 31.398438 283.089844 31.398438 283.089844 31.398438 283.089844 C 31.390625 283.089844 31.386719 283.089844 31.378906 283.085938 C 31.371094 283.085938 31.363281 283.085938 31.359375 283.085938 C 31.355469 283.085938 31.355469 283.085938 31.355469 283.085938 C 27.761719 282.875 24.914062 279.910156 24.859375 276.273438 L 59.679688 276.273438 C 59.628906 279.917969 56.769531 282.882812 53.164062 283.085938 C 53.15625 283.089844 53.148438 283.089844 53.140625 283.089844 C 53.132812 283.089844 53.128906 283.089844 53.117188 283.089844 C 53.109375 283.089844 53.105469 283.089844 53.097656 283.089844 C 53.085938 283.089844 53.082031 283.089844 53.078125 283.089844 C 53.074219 283.089844 53.074219 283.089844 53.070312 283.089844 C 53.0625 283.09375 53.058594 283.09375 53.054688 283.09375 C 53.050781 283.09375 53.050781 283.09375 53.050781 283.09375 C 53.042969 283.09375 53.039062 283.09375 53.03125 283.09375 C 53.027344 283.09375 53.027344 283.09375 53.027344 283.09375 C 53.019531 283.09375 53.015625 283.09375 53.011719 283.09375 C 53.003906 283.09375 53.003906 283.09375 53.003906 283.09375 C 52.996094 283.09375 52.992188 283.09375 52.988281 283.09375 C 52.984375 283.09375 52.984375 283.09375 52.976562 283.09375 C 52.972656 283.09375 52.96875 283.09375 52.964844 283.09375 C 52.964844 283.09375 52.960938 283.09375 52.957031 283.09375 C 52.953125 283.09375 52.945312 283.09375 52.941406 283.09375 C 52.941406 283.09375 52.9375 283.09375 52.933594 283.09375 C 52.929688 283.09375 52.925781 283.09375 52.917969 283.097656 C 52.917969 283.097656 52.914062 283.097656 52.910156 283.097656 C 52.90625 283.097656 52.902344 283.097656 52.902344 283.097656 C 52.898438 283.097656 52.890625 283.097656 52.886719 283.097656 C 52.882812 283.097656 52.878906 283.097656 52.878906 283.097656 C 52.875 283.097656 52.871094 283.097656 52.867188 283.097656 C 52.859375 283.097656 52.855469 283.097656 52.855469 283.097656 C 52.851562 283.097656 52.847656 283.097656 52.84375 283.097656 C 52.839844 283.097656 52.839844 283.097656 52.832031 283.097656 C 52.828125 283.097656 52.824219 283.097656 52.820312 283.097656 C 52.816406 283.097656 52.816406 283.097656 52.8125 283.097656 C 52.804688 283.097656 52.800781 283.097656 52.796875 283.097656 C 52.792969 283.097656 52.792969 283.097656 52.789062 283.097656 C 52.78125 283.097656 52.773438 283.097656 52.765625 283.097656 " fill-opacity="1" fill-rule="nonzero"/></g><path fill="#24737a" d="M 60.1875 321.519531 C 60.183594 321.519531 60.175781 321.519531 60.167969 321.519531 C 60.175781 321.519531 60.183594 321.519531 60.1875 321.519531 M 60.164062 321.519531 C 56.28125 321.511719 52.824219 319.667969 50.628906 316.808594 L 52.765625 316.808594 C 52.773438 316.808594 52.78125 316.808594 52.789062 316.808594 C 52.792969 316.808594 52.792969 316.808594 52.796875 316.808594 C 52.800781 316.808594 52.804688 316.808594 52.8125 316.808594 C 52.816406 316.808594 52.816406 316.808594 52.820312 316.808594 C 52.824219 316.808594 52.828125 316.808594 52.832031 316.808594 C 52.839844 316.808594 52.84375 316.808594 52.84375 316.808594 C 52.847656 316.808594 52.851562 316.808594 52.855469 316.808594 C 52.859375 316.808594 52.867188 316.808594 52.875 316.808594 C 52.875 316.808594 52.875 316.808594 52.878906 316.808594 C 52.882812 316.808594 52.886719 316.808594 52.898438 316.808594 C 52.898438 316.808594 52.898438 316.808594 52.902344 316.808594 C 52.90625 316.808594 52.910156 316.808594 52.917969 316.808594 C 52.929688 316.808594 52.9375 316.808594 52.941406 316.808594 C 56.683594 316.710938 59.691406 313.652344 59.691406 309.890625 C 59.691406 306.066406 56.589844 302.96875 52.765625 302.96875 L 50.054688 302.96875 C 52.199219 299.644531 55.9375 297.441406 60.1875 297.441406 C 66.839844 297.441406 72.238281 302.835938 72.238281 309.480469 C 72.238281 302.835938 66.839844 297.441406 60.1875 297.441406 C 59.207031 297.441406 58.269531 297.597656 57.359375 297.8125 C 63.042969 302.972656 65.027344 313.09375 58.707031 318.503906 C 57.691406 319.378906 56.597656 320.035156 55.457031 320.550781 C 56.902344 321.171875 58.492188 321.519531 60.164062 321.519531 " fill-opacity="1" fill-rule="nonzero"/><path fill="#1c565d" d="M 60.1875 321.519531 C 60.183594 321.519531 60.175781 321.519531 60.167969 321.519531 C 60.167969 321.519531 60.167969 321.519531 60.164062 321.519531 C 58.492188 321.519531 56.902344 321.171875 55.457031 320.550781 C 56.597656 320.035156 57.691406 319.378906 58.707031 318.503906 C 65.027344 313.09375 63.042969 302.972656 57.359375 297.8125 C 58.269531 297.597656 59.207031 297.441406 60.1875 297.441406 C 66.839844 297.441406 72.238281 302.835938 72.238281 309.480469 C 72.238281 316.128906 66.839844 321.519531 60.1875 321.519531 " fill-opacity="1" fill-rule="nonzero"/><g clip-path="url(#a24adf84b2)"><path fill="#d3d2d2" d="M 59.691406 309.890625 C 59.691406 313.714844 56.589844 316.808594 52.765625 316.808594 L 31.773438 316.808594 C 27.949219 316.808594 24.851562 313.714844 24.851562 309.890625 C 24.851562 306.066406 27.949219 302.96875 31.773438 302.96875 L 52.765625 302.96875 C 56.589844 302.96875 59.691406 306.066406 59.691406 309.890625 " fill-opacity="1" fill-rule="nonzero"/></g><g clip-path="url(#6935410dcd)"><path fill="#c2c1c1" d="M 52.765625 316.808594 L 31.773438 316.808594 C 31.765625 316.808594 31.761719 316.808594 31.753906 316.808594 C 31.746094 316.808594 31.746094 316.808594 31.742188 316.808594 C 31.738281 316.808594 31.734375 316.808594 31.730469 316.808594 C 31.726562 316.808594 31.726562 316.808594 31.71875 316.808594 C 31.714844 316.808594 31.710938 316.808594 31.707031 316.808594 C 31.703125 316.808594 31.703125 316.808594 31.699219 316.808594 C 31.695312 316.808594 31.6875 316.808594 31.683594 316.808594 C 31.679688 316.808594 31.675781 316.808594 31.667969 316.808594 C 31.667969 316.808594 31.667969 316.808594 31.660156 316.808594 C 31.65625 316.808594 31.652344 316.808594 31.644531 316.808594 C 31.636719 316.808594 31.628906 316.808594 31.625 316.808594 C 31.621094 316.808594 31.621094 316.808594 31.621094 316.808594 C 31.613281 316.808594 31.609375 316.808594 31.597656 316.808594 C 27.890625 316.710938 24.914062 313.703125 24.859375 309.992188 L 59.679688 309.992188 C 59.628906 313.703125 56.652344 316.710938 52.941406 316.808594 C 52.933594 316.808594 52.929688 316.808594 52.917969 316.808594 C 52.910156 316.808594 52.90625 316.808594 52.902344 316.808594 C 52.898438 316.808594 52.898438 316.808594 52.898438 316.808594 C 52.886719 316.808594 52.882812 316.808594 52.878906 316.808594 C 52.875 316.808594 52.875 316.808594 52.875 316.808594 C 52.867188 316.808594 52.859375 316.808594 52.855469 316.808594 C 52.851562 316.808594 52.847656 316.808594 52.84375 316.808594 C 52.839844 316.808594 52.839844 316.808594 52.832031 316.808594 C 52.828125 316.808594 52.824219 316.808594 52.820312 316.808594 C 52.816406 316.808594 52.816406 316.808594 52.8125 316.808594 C 52.804688 316.808594 52.800781 316.808594 52.796875 316.808594 C 52.792969 316.808594 52.792969 316.808594 52.789062 316.808594 C 52.78125 316.808594 52.773438 316.808594 52.765625 316.808594 " fill-opacity="1" fill-rule="nonzero"/></g><path fill="#24737a" d="M 60.1875 355.234375 C 60.183594 355.234375 60.175781 355.234375 60.167969 355.234375 C 60.175781 355.234375 60.183594 355.234375 60.1875 355.234375 M 60.167969 355.234375 C 56.28125 355.230469 52.828125 353.382812 50.628906 350.519531 L 52.765625 350.519531 C 52.773438 350.519531 52.78125 350.519531 52.789062 350.519531 C 52.792969 350.519531 52.792969 350.519531 52.796875 350.519531 C 52.800781 350.519531 52.804688 350.519531 52.8125 350.519531 C 52.816406 350.519531 52.816406 350.519531 52.820312 350.519531 C 52.824219 350.519531 52.828125 350.519531 52.832031 350.519531 C 52.839844 350.519531 52.839844 350.519531 52.84375 350.519531 C 52.847656 350.519531 52.851562 350.519531 52.855469 350.519531 C 52.855469 350.519531 52.859375 350.519531 52.867188 350.519531 C 52.871094 350.519531 52.875 350.519531 52.878906 350.519531 C 52.878906 350.519531 52.882812 350.519531 52.886719 350.519531 C 52.890625 350.519531 52.898438 350.519531 52.902344 350.519531 C 52.902344 350.519531 52.90625 350.519531 52.910156 350.519531 C 52.914062 350.519531 52.917969 350.519531 52.917969 350.519531 C 52.925781 350.519531 52.929688 350.519531 52.933594 350.519531 C 52.9375 350.519531 52.941406 350.519531 52.941406 350.519531 C 52.945312 350.519531 52.953125 350.519531 52.957031 350.519531 C 52.960938 350.519531 52.964844 350.519531 52.964844 350.519531 C 52.96875 350.519531 52.972656 350.519531 52.976562 350.519531 C 52.984375 350.519531 52.984375 350.519531 52.988281 350.519531 C 52.992188 350.519531 52.996094 350.519531 53.003906 350.519531 C 53.003906 350.519531 53.003906 350.519531 53.011719 350.519531 C 53.015625 350.519531 53.019531 350.515625 53.027344 350.515625 C 53.027344 350.515625 53.027344 350.515625 53.03125 350.515625 C 53.039062 350.515625 53.042969 350.515625 53.050781 350.515625 C 53.050781 350.515625 53.050781 350.515625 53.054688 350.515625 C 53.058594 350.515625 53.0625 350.515625 53.070312 350.515625 C 53.074219 350.515625 53.074219 350.515625 53.078125 350.515625 C 53.082031 350.515625 53.085938 350.515625 53.089844 350.515625 C 53.097656 350.515625 53.097656 350.515625 53.101562 350.515625 C 53.105469 350.515625 53.109375 350.515625 53.113281 350.515625 C 53.117188 350.515625 53.117188 350.515625 53.117188 350.515625 C 53.128906 350.511719 53.132812 350.511719 53.140625 350.511719 C 53.144531 350.511719 53.15625 350.511719 53.164062 350.511719 C 53.171875 350.511719 53.175781 350.511719 53.1875 350.511719 C 56.816406 350.292969 59.691406 347.28125 59.691406 343.597656 C 59.691406 339.777344 56.589844 336.683594 52.765625 336.683594 L 50.054688 336.683594 C 52.195312 333.355469 55.933594 331.15625 60.1875 331.15625 C 66.839844 331.15625 72.238281 336.542969 72.238281 343.195312 C 72.238281 336.542969 66.839844 331.15625 60.1875 331.15625 C 59.207031 331.15625 58.269531 331.304688 57.359375 331.527344 C 63.042969 336.691406 65.027344 346.808594 58.707031 352.222656 C 57.691406 353.09375 56.597656 353.746094 55.457031 354.265625 C 56.902344 354.882812 58.492188 355.230469 60.167969 355.234375 " fill-opacity="1" fill-rule="nonzero"/><path fill="#1c565d" d="M 60.1875 355.234375 C 60.183594 355.234375 60.175781 355.234375 60.167969 355.234375 C 58.492188 355.230469 56.902344 354.882812 55.457031 354.265625 C 56.597656 353.746094 57.691406 353.09375 58.707031 352.222656 C 65.027344 346.808594 63.042969 336.691406 57.359375 331.527344 C 58.269531 331.304688 59.207031 331.15625 60.1875 331.15625 C 66.839844 331.15625 72.238281 336.542969 72.238281 343.195312 C 72.238281 349.84375 66.839844 355.234375 60.1875 355.234375 " fill-opacity="1" fill-rule="nonzero"/><g clip-path="url(#4bd30c3c40)"><path fill="#d3d2d2" d="M 59.691406 343.597656 C 59.691406 347.421875 56.589844 350.519531 52.765625 350.519531 L 31.773438 350.519531 C 27.949219 350.519531 24.851562 347.421875 24.851562 343.597656 C 24.851562 339.777344 27.949219 336.683594 31.773438 336.683594 L 52.765625 336.683594 C 56.589844 336.683594 59.691406 339.777344 59.691406 343.597656 " fill-opacity="1" fill-rule="nonzero"/></g><g clip-path="url(#34827b6c43)"><path fill="#c2c1c1" d="M 52.765625 350.519531 L 31.773438 350.519531 C 31.765625 350.519531 31.761719 350.519531 31.753906 350.519531 C 31.746094 350.519531 31.746094 350.519531 31.742188 350.519531 C 31.738281 350.519531 31.734375 350.519531 31.730469 350.519531 C 31.726562 350.519531 31.726562 350.519531 31.71875 350.519531 C 31.714844 350.519531 31.710938 350.519531 31.707031 350.519531 C 31.707031 350.519531 31.703125 350.519531 31.699219 350.519531 C 31.695312 350.519531 31.6875 350.519531 31.683594 350.519531 C 31.683594 350.519531 31.679688 350.519531 31.675781 350.519531 C 31.671875 350.519531 31.667969 350.519531 31.660156 350.519531 C 31.660156 350.519531 31.65625 350.519531 31.652344 350.519531 C 31.648438 350.519531 31.644531 350.519531 31.644531 350.519531 C 31.640625 350.519531 31.636719 350.519531 31.628906 350.519531 C 31.625 350.519531 31.621094 350.519531 31.621094 350.519531 C 31.617188 350.519531 31.613281 350.519531 31.609375 350.519531 C 31.601562 350.519531 31.597656 350.519531 31.597656 350.519531 C 31.59375 350.519531 31.589844 350.519531 31.585938 350.519531 C 31.582031 350.519531 31.574219 350.519531 31.574219 350.519531 C 31.570312 350.519531 31.566406 350.519531 31.5625 350.519531 C 31.558594 350.519531 31.558594 350.519531 31.554688 350.519531 C 31.550781 350.519531 31.542969 350.519531 31.535156 350.519531 C 31.535156 350.519531 31.535156 350.519531 31.53125 350.519531 C 31.527344 350.519531 31.523438 350.515625 31.515625 350.515625 C 31.511719 350.515625 31.511719 350.515625 31.507812 350.515625 C 31.503906 350.515625 31.5 350.515625 31.496094 350.515625 C 31.488281 350.515625 31.488281 350.515625 31.484375 350.515625 C 31.480469 350.515625 31.476562 350.515625 31.472656 350.515625 C 31.46875 350.515625 31.46875 350.515625 31.464844 350.515625 C 31.457031 350.515625 31.453125 350.515625 31.449219 350.515625 C 31.445312 350.515625 31.445312 350.515625 31.445312 350.515625 C 31.4375 350.515625 31.429688 350.515625 31.425781 350.515625 C 31.425781 350.515625 31.421875 350.515625 31.421875 350.515625 C 31.414062 350.511719 31.410156 350.511719 31.402344 350.511719 C 31.398438 350.511719 31.398438 350.511719 31.398438 350.511719 C 31.390625 350.511719 31.386719 350.511719 31.382812 350.511719 C 31.378906 350.511719 31.378906 350.511719 31.378906 350.511719 C 31.371094 350.511719 31.363281 350.511719 31.359375 350.511719 C 31.359375 350.511719 31.355469 350.511719 31.355469 350.511719 C 31.351562 350.511719 31.339844 350.511719 31.335938 350.507812 C 27.753906 350.285156 24.914062 347.328125 24.859375 343.699219 L 59.679688 343.699219 C 59.628906 347.335938 56.78125 350.292969 53.1875 350.511719 C 53.175781 350.511719 53.171875 350.511719 53.164062 350.511719 C 53.15625 350.511719 53.148438 350.511719 53.140625 350.511719 C 53.132812 350.511719 53.128906 350.511719 53.117188 350.515625 C 53.117188 350.515625 53.117188 350.515625 53.113281 350.515625 C 53.109375 350.515625 53.105469 350.515625 53.101562 350.515625 C 53.097656 350.515625 53.097656 350.515625 53.089844 350.515625 C 53.085938 350.515625 53.082031 350.515625 53.078125 350.515625 C 53.074219 350.515625 53.074219 350.515625 53.070312 350.515625 C 53.0625 350.515625 53.058594 350.515625 53.054688 350.515625 C 53.050781 350.515625 53.050781 350.515625 53.050781 350.515625 C 53.042969 350.515625 53.039062 350.515625 53.03125 350.515625 C 53.027344 350.515625 53.027344 350.515625 53.027344 350.515625 C 53.019531 350.515625 53.015625 350.519531 53.011719 350.519531 C 53.003906 350.519531 53.003906 350.519531 53.003906 350.519531 C 52.996094 350.519531 52.992188 350.519531 52.988281 350.519531 C 52.984375 350.519531 52.984375 350.519531 52.976562 350.519531 C 52.972656 350.519531 52.96875 350.519531 52.964844 350.519531 C 52.964844 350.519531 52.960938 350.519531 52.957031 350.519531 C 52.953125 350.519531 52.945312 350.519531 52.941406 350.519531 C 52.941406 350.519531 52.9375 350.519531 52.933594 350.519531 C 52.929688 350.519531 52.925781 350.519531 52.917969 350.519531 C 52.917969 350.519531 52.914062 350.519531 52.910156 350.519531 C 52.90625 350.519531 52.902344 350.519531 52.902344 350.519531 C 52.898438 350.519531 52.890625 350.519531 52.886719 350.519531 C 52.882812 350.519531 52.878906 350.519531 52.878906 350.519531 C 52.875 350.519531 52.871094 350.519531 52.867188 350.519531 C 52.859375 350.519531 52.855469 350.519531 52.855469 350.519531 C 52.851562 350.519531 52.847656 350.519531 52.84375 350.519531 C 52.839844 350.519531 52.839844 350.519531 52.832031 350.519531 C 52.828125 350.519531 52.824219 350.519531 52.820312 350.519531 C 52.816406 350.519531 52.816406 350.519531 52.8125 350.519531 C 52.804688 350.519531 52.800781 350.519531 52.796875 350.519531 C 52.792969 350.519531 52.792969 350.519531 52.789062 350.519531 C 52.78125 350.519531 52.773438 350.519531 52.765625 350.519531 " fill-opacity="1" fill-rule="nonzero"/></g><path fill="#d3c6af" d="M 332.386719 374.808594 L 343.804688 365.097656 L 343.804688 3.316406 L 332.386719 8.171875 L 332.386719 374.808594 " fill-opacity="1" fill-rule="nonzero"/><path fill="#ecddc4" d="M 42.269531 8.171875 L 55.457031 3.316406 L 343.804688 3.316406 L 332.386719 8.171875 L 42.269531 8.171875 " fill-opacity="1" fill-rule="nonzero"/></svg>