<svg xmlns="http://www.w3.org/2000/svg" xmlns:xlink="http://www.w3.org/1999/xlink" width="500" zoomAndPan="magnify" viewBox="0 0 375 374.999991" height="500" preserveAspectRatio="xMidYMid meet" version="1.0"><defs><clipPath id="bc3836eb09"><path d="M 1 69 L 374 69 L 374 306.273438 L 1 306.273438 Z M 1 69 " clip-rule="nonzero"/></clipPath></defs><g clip-path="url(#bc3836eb09)"><path fill="#3a3d50" d="M 368.351562 285.691406 C 366.875 288.699219 364.6875 291.613281 361.976562 294.265625 C 361.949219 294.296875 361.9375 294.335938 361.910156 294.363281 C 361.816406 294.457031 361.710938 294.546875 361.613281 294.640625 C 361.582031 294.667969 361.550781 294.699219 361.519531 294.726562 C 361.050781 295.175781 360.550781 295.617188 360.039062 296.058594 C 359.96875 296.117188 359.898438 296.171875 359.828125 296.230469 C 359.371094 296.617188 358.898438 296.996094 358.414062 297.371094 C 358.355469 297.414062 358.296875 297.460938 358.238281 297.503906 C 351.871094 302.363281 342.9375 306.296875 332.726562 306.296875 C 331.226562 306.296875 329.699219 306.199219 328.152344 306.023438 C 328.070312 306.011719 327.984375 306 327.902344 305.988281 C 326.765625 305.855469 325.625 305.675781 324.480469 305.4375 C 304.914062 301.332031 292.339844 277.417969 291.8125 276.402344 L 275.484375 246.054688 C 268.167969 251.492188 259.109375 254.710938 249.3125 254.710938 C 232.691406 254.710938 218.199219 245.449219 210.730469 231.820312 L 164.273438 231.820312 C 156.800781 245.449219 142.308594 254.710938 125.691406 254.710938 C 115.894531 254.710938 106.835938 251.492188 99.519531 246.054688 L 83.167969 276.433594 C 82.660156 277.417969 70.089844 301.332031 50.523438 305.4375 C 47.703125 306.027344 44.945312 306.296875 42.273438 306.296875 C 29.929688 306.296875 19.421875 300.554688 13.089844 294.363281 C 13.054688 294.328125 13.042969 294.28125 13.007812 294.246094 C 10.308594 291.597656 8.121094 288.691406 6.652344 285.691406 C 5.933594 284.46875 0.390625 274.308594 1.292969 253.765625 L 3.105469 161.65625 C 3.082031 160.316406 3.128906 159.394531 3.15625 159.003906 C 2.914062 156.238281 2.859375 153.433594 3.015625 150.601562 C 4.289062 127.679688 18.613281 107.664062 38.710938 97.117188 C 40.210938 92.546875 42.351562 86.308594 43.703125 83.527344 C 45.980469 78.847656 48.628906 74.457031 55.984375 72.136719 C 64.738281 69.375 85.417969 68.558594 96.640625 73.617188 L 97.054688 73.804688 C 99.296875 74.804688 103.003906 76.464844 105.003906 80.386719 C 105.511719 81.128906 109.839844 87.480469 112.058594 91.96875 C 112.679688 93.222656 113.148438 94.847656 113.3125 96.316406 C 113.550781 98.46875 113.863281 102.449219 114.140625 106.269531 C 114.535156 106.652344 114.921875 107.046875 115.304688 107.4375 L 259.695312 107.4375 C 260.082031 107.046875 260.46875 106.652344 260.863281 106.269531 C 261.136719 102.449219 261.449219 98.46875 261.6875 96.316406 C 261.851562 94.84375 262.320312 93.21875 262.941406 91.964844 C 265.160156 87.480469 269.496094 81.121094 270 80.386719 C 271.996094 76.464844 275.703125 74.804688 277.945312 73.804688 L 278.359375 73.617188 C 289.585938 68.554688 310.265625 69.375 319.019531 72.136719 C 326.371094 74.457031 329.023438 78.847656 331.296875 83.527344 C 332.648438 86.308594 334.789062 92.546875 336.292969 97.117188 C 356.390625 107.664062 370.710938 127.679688 371.984375 150.601562 C 372.140625 153.433594 372.085938 156.238281 371.847656 159.003906 C 371.875 159.394531 371.917969 160.316406 371.894531 161.667969 L 373.707031 253.792969 C 374.605469 274.316406 369.066406 284.46875 368.351562 285.691406 Z M 368.351562 285.691406 " fill-opacity="1" fill-rule="nonzero"/></g><path fill="#4f87ff" d="M 369.226562 253.964844 C 369.226562 253.945312 369.222656 253.925781 369.222656 253.90625 L 367.785156 180.839844 C 363.65625 190.71875 355.460938 201.816406 339.257812 209.390625 C 334.308594 211.703125 329.789062 213.601562 325.804688 215.277344 C 306.644531 223.328125 299.476562 226.339844 301.824219 248.914062 C 303.945312 269.320312 315.386719 288.140625 329.648438 294.679688 C 339.0625 299 349.199219 297.714844 358.972656 290.980469 C 361.257812 288.703125 363.109375 286.214844 364.355469 283.648438 C 364.390625 283.578125 364.429688 283.511719 364.46875 283.445312 C 364.519531 283.359375 370.105469 273.914062 369.226562 253.964844 Z M 361.214844 206.328125 C 362.449219 206.25 363.476562 207.285156 363.5 208.523438 L 363.53125 210.105469 C 363.554688 211.34375 362.570312 212.363281 361.332031 212.390625 C 361.320312 212.390625 361.304688 212.390625 361.289062 212.390625 C 360.070312 212.390625 359.070312 211.417969 359.046875 210.195312 L 359.015625 208.613281 C 358.992188 207.375 359.976562 206.351562 361.214844 206.328125 Z M 360.332031 282.976562 C 360.121094 283.503906 359.882812 284.015625 359.644531 284.527344 C 359.261719 285.339844 358.453125 285.816406 357.613281 285.816406 C 357.292969 285.816406 356.96875 285.75 356.660156 285.605469 C 355.539062 285.078125 355.058594 283.742188 355.582031 282.625 C 355.792969 282.183594 355.996094 281.738281 356.179688 281.285156 C 356.648438 280.140625 357.957031 279.585938 359.101562 280.058594 C 360.25 280.523438 360.800781 281.832031 360.332031 282.976562 Z M 363.328125 272.214844 C 363.136719 273.304688 362.191406 274.070312 361.125 274.070312 C 360.992188 274.070312 360.863281 274.058594 360.734375 274.039062 C 359.511719 273.824219 358.695312 272.664062 358.910156 271.445312 C 359.59375 267.539062 359.953125 263.34375 359.984375 258.964844 C 359.976562 256.445312 359.917969 253.90625 359.859375 251.363281 C 359.820312 249.609375 359.78125 247.855469 359.753906 246.101562 L 359.246094 220.292969 C 359.21875 219.054688 360.207031 218.03125 361.445312 218.007812 C 361.457031 218.007812 361.472656 218.007812 361.488281 218.007812 C 362.707031 218.007812 363.707031 218.984375 363.730469 220.207031 L 364.238281 246.027344 C 364.265625 247.78125 364.304688 249.519531 364.34375 251.261719 C 364.402344 253.832031 364.460938 256.402344 364.46875 258.972656 C 364.4375 263.621094 364.054688 268.066406 363.328125 272.214844 Z M 49.199219 215.277344 C 45.210938 213.601562 40.691406 211.703125 35.742188 209.390625 C 19.539062 201.816406 11.34375 190.714844 7.214844 180.839844 L 5.777344 253.90625 C 4.898438 273.914062 10.480469 283.359375 10.539062 283.453125 C 10.574219 283.515625 10.613281 283.585938 10.644531 283.648438 C 11.890625 286.214844 13.742188 288.703125 16.027344 290.980469 C 25.800781 297.71875 35.941406 299 45.355469 294.679688 C 59.613281 288.140625 71.054688 269.320312 73.179688 248.914062 C 75.527344 226.339844 68.359375 223.328125 49.199219 215.277344 Z M 11.53125 206.9375 C 11.558594 205.703125 12.597656 204.671875 13.820312 204.742188 C 15.058594 204.769531 16.042969 205.792969 16.015625 207.027344 L 15.984375 208.640625 C 15.957031 209.863281 14.960938 210.835938 13.742188 210.835938 C 13.726562 210.835938 13.710938 210.835938 13.695312 210.835938 C 12.457031 210.8125 11.476562 209.789062 11.5 208.550781 Z M 13.9375 274.414062 C 12.871094 274.414062 11.925781 273.652344 11.734375 272.566406 C 10.976562 268.339844 10.570312 263.800781 10.53125 259.078125 C 10.539062 256.402344 10.601562 253.753906 10.660156 251.105469 C 10.703125 249.355469 10.742188 247.605469 10.765625 245.851562 L 11.285156 219.484375 C 11.308594 218.261719 12.308594 217.289062 13.527344 217.289062 C 13.542969 217.289062 13.554688 217.289062 13.570312 217.289062 C 14.808594 217.3125 15.792969 218.335938 15.769531 219.574219 L 15.25 245.929688 C 15.226562 247.679688 15.183594 249.441406 15.144531 251.207031 C 15.085938 253.828125 15.023438 256.445312 15.015625 259.066406 C 15.054688 263.511719 15.433594 267.796875 16.148438 271.777344 C 16.367188 272.996094 15.554688 274.160156 14.335938 274.378906 C 14.199219 274.402344 14.070312 274.414062 13.9375 274.414062 Z M 18.335938 285.578125 C 18.027344 285.726562 17.699219 285.796875 17.378906 285.796875 C 16.539062 285.796875 15.734375 285.320312 15.351562 284.511719 C 15.101562 283.988281 14.863281 283.457031 14.644531 282.921875 C 14.179688 281.773438 14.734375 280.464844 15.878906 280 C 17.027344 279.539062 18.335938 280.089844 18.800781 281.238281 C 18.988281 281.695312 19.191406 282.148438 19.402344 282.597656 C 19.933594 283.714844 19.457031 285.050781 18.335938 285.578125 Z M 246.53125 166.960938 C 244.78125 161.824219 243.6875 156.425781 243.378906 150.851562 C 242.582031 136.542969 246.949219 122.902344 255.722656 111.917969 L 119.28125 111.917969 C 128.050781 122.902344 132.417969 136.542969 131.625 150.851562 C 131.3125 156.425781 130.21875 161.824219 128.472656 166.960938 C 151.417969 168.402344 169.652344 187.503906 169.652344 210.789062 C 169.652344 212.160156 169.578125 213.511719 169.457031 214.851562 L 205.546875 214.851562 C 205.421875 213.511719 205.351562 212.160156 205.351562 210.789062 C 205.351562 187.503906 223.582031 168.402344 246.53125 166.960938 Z M 229.269531 118.683594 C 229.269531 117.445312 230.273438 116.441406 231.515625 116.441406 L 233.496094 116.441406 C 234.734375 116.441406 235.738281 117.445312 235.738281 118.683594 C 235.738281 119.917969 234.734375 120.921875 233.496094 120.921875 L 231.515625 120.921875 C 230.273438 120.921875 229.273438 119.917969 229.269531 118.683594 Z M 151.917969 118.683594 C 151.917969 117.445312 152.921875 116.441406 154.160156 116.441406 L 218.863281 116.441406 C 220.101562 116.441406 221.105469 117.445312 221.105469 118.683594 C 221.105469 119.917969 220.101562 120.921875 218.863281 120.921875 L 154.160156 120.921875 C 152.921875 120.921875 151.917969 119.917969 151.917969 118.683594 Z M 136.515625 118.683594 C 136.515625 117.445312 137.519531 116.441406 138.757812 116.441406 L 140.742188 116.441406 C 141.980469 116.441406 142.984375 117.445312 142.984375 118.683594 C 142.984375 119.917969 141.980469 120.921875 140.742188 120.921875 L 138.757812 120.921875 C 137.519531 120.921875 136.515625 119.917969 136.515625 118.683594 Z M 170.09375 153.675781 C 170.09375 154.914062 169.09375 155.914062 167.851562 155.914062 L 140.019531 155.914062 C 138.78125 155.914062 137.777344 154.914062 137.777344 153.675781 L 137.777344 143.589844 C 137.777344 142.351562 138.78125 141.347656 140.019531 141.347656 L 143.128906 141.347656 L 143.128906 138.441406 C 143.128906 137.207031 144.132812 136.203125 145.371094 136.203125 L 162.5 136.203125 C 163.738281 136.203125 164.742188 137.207031 164.742188 138.441406 L 164.742188 141.347656 L 167.851562 141.347656 C 169.09375 141.347656 170.09375 142.351562 170.09375 143.589844 Z M 203.660156 189.8125 C 203.660156 191.050781 202.65625 192.054688 201.417969 192.054688 L 173.582031 192.054688 C 172.34375 192.054688 171.339844 191.050781 171.339844 189.8125 L 171.339844 179.726562 C 171.339844 178.488281 172.34375 177.488281 173.582031 177.488281 L 175.941406 177.488281 L 175.941406 174.871094 C 175.941406 173.632812 176.945312 172.628906 178.183594 172.628906 L 196.816406 172.628906 C 198.054688 172.628906 199.058594 173.632812 199.058594 174.871094 L 199.058594 177.488281 L 201.417969 177.488281 C 202.65625 177.488281 203.660156 178.488281 203.660156 179.726562 Z M 204.902344 143.589844 C 204.902344 142.351562 205.90625 141.347656 207.148438 141.347656 L 210.257812 141.347656 L 210.257812 138.441406 C 210.257812 137.207031 211.261719 136.203125 212.5 136.203125 L 229.628906 136.203125 C 230.867188 136.203125 231.871094 137.207031 231.871094 138.441406 L 231.871094 141.347656 L 234.984375 141.347656 C 236.222656 141.347656 237.226562 142.351562 237.226562 143.589844 L 237.226562 153.675781 C 237.226562 154.914062 236.222656 155.914062 234.984375 155.914062 L 207.148438 155.914062 C 205.90625 155.914062 204.902344 154.914062 204.902344 153.675781 Z M 86.449219 191.023438 L 87.53125 167.90625 L 114.34375 168.355469 C 102.152344 171.613281 92.042969 179.988281 86.449219 191.023438 Z M 82.566406 198.285156 L 83.554688 198.285156 C 83.507812 198.4375 83.46875 198.59375 83.421875 198.746094 C 83.210938 199.484375 83.019531 200.230469 82.847656 200.984375 C 82.671875 201.742188 82.519531 202.511719 82.386719 203.285156 C 82.277344 203.902344 82.183594 204.523438 82.105469 205.152344 C 76.34375 206.847656 70.273438 207.765625 64.027344 207.765625 C 47.558594 207.765625 32.574219 201.519531 21.835938 190.179688 C 14.609375 182.546875 9.964844 173.191406 8.210938 163.078125 C 8.054688 162.179688 7.921875 161.28125 7.8125 160.375 C 7.808594 160.351562 7.808594 160.332031 7.804688 160.308594 C 7.714844 159.546875 7.640625 158.785156 7.582031 158.019531 C 7.570312 157.886719 7.5625 157.753906 7.554688 157.621094 C 7.507812 156.957031 7.46875 156.289062 7.449219 155.621094 C 7.398438 154.039062 7.40625 152.453125 7.496094 150.851562 C 8.59375 131.023438 20.210938 113.53125 36.898438 103.273438 C 37.777344 102.730469 38.671875 102.214844 39.578125 101.714844 C 40.507812 101.203125 41.449219 100.71875 42.40625 100.25 C 50.964844 96.066406 60.566406 93.6875 70.613281 93.6875 C 72.84375 93.6875 75.046875 93.8125 77.214844 94.039062 C 78.429688 94.164062 79.632812 94.332031 80.828125 94.53125 C 81.953125 94.714844 83.066406 94.933594 84.171875 95.179688 C 90.449219 96.582031 96.355469 98.957031 101.695312 102.25 C 102.871094 102.972656 104.007812 103.753906 105.125 104.5625 C 105.8125 105.0625 106.492188 105.574219 107.15625 106.109375 C 108.054688 106.828125 108.933594 107.574219 109.789062 108.351562 C 110.019531 108.5625 110.257812 108.765625 110.484375 108.980469 C 111.066406 109.523438 111.632812 110.089844 112.195312 110.664062 C 112.195312 110.667969 112.199219 110.667969 112.199219 110.671875 C 112.398438 110.875 112.605469 111.070312 112.804688 111.277344 C 113.148438 111.640625 113.476562 112.019531 113.808594 112.394531 C 114.082031 112.695312 114.359375 112.992188 114.625 113.296875 C 123.480469 123.648438 127.914062 136.789062 127.144531 150.601562 C 126.832031 156.269531 125.644531 161.742188 123.738281 166.914062 C 123.125 166.941406 122.519531 166.984375 121.910156 167.039062 C 122.003906 166.8125 122.078125 166.574219 122.089844 166.3125 L 123.710938 131.96875 C 123.738281 131.371094 123.527344 130.785156 123.121094 130.34375 C 122.71875 129.90625 122.152344 129.644531 121.554688 129.625 L 89.363281 128.4375 L 89.683594 123.316406 L 89.996094 118.253906 L 90.019531 117.867188 L 90.300781 113.390625 L 90.730469 106.496094 L 90.867188 104.257812 L 90.957031 102.859375 C 90.972656 102.570312 90.925781 102.285156 90.839844 102.015625 C 90.738281 101.71875 90.585938 101.441406 90.371094 101.207031 C 89.957031 100.757812 89.378906 100.496094 88.769531 100.480469 L 75.574219 100.175781 L 71.289062 100.078125 L 67 99.976562 L 53.757812 99.671875 C 52.738281 99.585938 51.929688 100.269531 51.621094 101.179688 C 51.574219 101.328125 51.503906 101.46875 51.484375 101.628906 L 51.253906 103.414062 L 50.96875 105.648438 L 50.460938 109.59375 L 50.101562 112.394531 L 49.800781 114.765625 L 49.511719 117.003906 L 48.089844 128.117188 L 17.074219 128.117188 C 15.933594 128.117188 14.972656 128.976562 14.847656 130.109375 L 12.25 153.445312 L 11.960938 156.039062 L 11.671875 158.628906 L 11.542969 159.785156 L 11.273438 162.1875 L 11.027344 164.398438 C 11.019531 164.46875 11.027344 164.535156 11.027344 164.605469 C 11.015625 165.167969 11.207031 165.71875 11.585938 166.140625 C 12.011719 166.617188 12.617188 166.886719 13.257812 166.886719 L 44.226562 166.886719 L 43.683594 177.207031 L 43.554688 179.6875 L 43.421875 182.164062 L 42.699219 195.925781 C 42.667969 196.539062 42.890625 197.140625 43.3125 197.585938 C 43.734375 198.03125 44.324219 198.285156 44.941406 198.285156 Z M 260.660156 168.355469 L 287.472656 167.90625 L 288.550781 191.019531 C 282.957031 179.984375 272.847656 171.613281 260.660156 168.355469 Z M 310.972656 207.765625 C 304.730469 207.765625 298.65625 206.851562 292.898438 205.152344 C 292.816406 204.523438 292.722656 203.902344 292.617188 203.28125 C 292.484375 202.507812 292.328125 201.742188 292.152344 200.984375 C 291.980469 200.230469 291.789062 199.484375 291.578125 198.746094 C 291.535156 198.59375 291.492188 198.4375 291.445312 198.285156 L 330.0625 198.285156 C 330.675781 198.285156 331.265625 198.03125 331.6875 197.585938 C 332.113281 197.140625 332.335938 196.539062 332.300781 195.925781 L 331.578125 182.164062 L 331.449219 179.6875 L 331.316406 177.207031 L 330.773438 166.886719 L 361.746094 166.886719 C 362.382812 166.886719 362.992188 166.617188 363.417969 166.140625 C 363.792969 165.722656 363.960938 165.171875 363.953125 164.613281 C 363.949219 164.542969 363.980469 164.472656 363.972656 164.398438 L 363.726562 162.1875 L 363.460938 159.785156 L 363.332031 158.628906 L 362.753906 153.449219 L 360.15625 130.109375 C 360.027344 128.976562 359.066406 128.117188 357.925781 128.117188 L 326.914062 128.117188 L 325.488281 117.003906 L 325.203125 114.765625 L 324.898438 112.394531 L 324.539062 109.59375 L 324.035156 105.648438 L 323.746094 103.414062 L 323.519531 101.628906 C 323.496094 101.46875 323.425781 101.328125 323.375 101.179688 C 323.054688 100.28125 322.21875 99.632812 321.242188 99.671875 L 308.003906 99.976562 L 303.714844 100.078125 L 299.425781 100.175781 L 286.230469 100.480469 C 285.621094 100.496094 285.046875 100.757812 284.632812 101.207031 C 284.414062 101.441406 284.261719 101.71875 284.164062 102.015625 C 284.074219 102.285156 284.027344 102.570312 284.042969 102.859375 L 284.132812 104.257812 L 284.269531 106.496094 L 284.703125 113.390625 L 284.839844 115.628906 L 284.980469 117.867188 L 285.003906 118.253906 L 285.160156 120.785156 L 285.320312 123.316406 L 285.640625 128.4375 L 253.449219 129.625 C 252.847656 129.644531 252.285156 129.90625 251.878906 130.34375 C 251.472656 130.785156 251.261719 131.371094 251.289062 131.96875 L 252.910156 166.3125 C 252.921875 166.574219 252.996094 166.8125 253.089844 167.039062 C 252.484375 166.984375 251.875 166.941406 251.261719 166.914062 C 249.355469 161.742188 248.171875 156.269531 247.855469 150.601562 C 247.089844 136.789062 251.519531 123.648438 260.378906 113.296875 C 260.640625 112.992188 260.921875 112.695312 261.191406 112.394531 C 261.523438 112.019531 261.851562 111.640625 262.195312 111.277344 C 262.394531 111.070312 262.601562 110.875 262.800781 110.667969 C 262.804688 110.667969 262.804688 110.667969 262.808594 110.664062 C 263.367188 110.089844 263.933594 109.523438 264.515625 108.980469 C 264.742188 108.765625 264.980469 108.5625 265.210938 108.351562 C 266.066406 107.574219 266.945312 106.828125 267.84375 106.109375 C 268.511719 105.574219 269.1875 105.0625 269.875 104.5625 C 270.992188 103.753906 272.132812 102.972656 273.304688 102.25 C 278.644531 98.957031 284.550781 96.582031 290.832031 95.179688 C 291.933594 94.933594 293.046875 94.714844 294.175781 94.53125 C 295.367188 94.332031 296.570312 94.164062 297.785156 94.039062 C 299.957031 93.8125 302.15625 93.6875 304.390625 93.6875 C 314.4375 93.6875 324.039062 96.066406 332.597656 100.25 C 333.550781 100.71875 334.496094 101.203125 335.421875 101.714844 C 336.328125 102.214844 337.222656 102.730469 338.101562 103.273438 C 354.792969 113.53125 366.40625 131.023438 367.507812 150.851562 C 367.597656 152.453125 367.601562 154.039062 367.550781 155.621094 C 367.53125 156.289062 367.496094 156.957031 367.449219 157.621094 C 367.441406 157.753906 367.429688 157.886719 367.421875 158.019531 C 367.363281 158.785156 367.289062 159.546875 367.195312 160.308594 C 367.195312 160.332031 367.191406 160.351562 367.1875 160.375 C 367.078125 161.28125 366.949219 162.179688 366.792969 163.074219 C 365.039062 173.191406 360.390625 182.546875 353.164062 190.175781 C 342.425781 201.519531 327.441406 207.765625 310.972656 207.765625 Z M 119.125 134.019531 L 86.898438 132.828125 C 86.296875 132.808594 85.726562 132.542969 85.320312 132.09375 C 84.914062 131.648438 84.707031 131.054688 84.742188 130.453125 L 85.058594 125.40625 L 85.214844 122.875 L 85.375 120.347656 L 85.535156 117.769531 L 85.671875 115.53125 L 85.8125 113.292969 L 86.242188 106.402344 L 86.335938 104.90625 L 70.886719 104.550781 C 71.089844 104.628906 71.285156 104.730469 71.464844 104.867188 L 73.039062 106.117188 L 77.582031 109.726562 C 78.339844 110.324219 78.625 111.339844 78.296875 112.246094 C 78.171875 112.59375 77.945312 112.882812 77.679688 113.121094 C 77.277344 113.488281 76.757812 113.722656 76.1875 113.722656 C 76.171875 113.722656 76.152344 113.722656 76.132812 113.71875 L 63.894531 113.417969 C 63.332031 113.402344 62.828125 113.164062 62.433594 112.796875 C 62.160156 112.539062 61.933594 112.230469 61.8125 111.855469 C 61.523438 110.945312 61.84375 109.949219 62.609375 109.378906 L 67.160156 105.992188 L 68.730469 104.828125 C 68.917969 104.6875 69.125 104.585938 69.339844 104.515625 L 68.160156 104.488281 L 63.871094 104.386719 L 59.582031 104.289062 L 55.675781 104.199219 L 55.476562 105.742188 L 55.347656 106.753906 L 54.628906 112.355469 L 54.59375 112.628906 L 54.308594 114.863281 L 54.019531 117.097656 L 52.285156 130.644531 C 52.144531 131.761719 51.191406 132.597656 50.0625 132.597656 L 19.082031 132.597656 L 17 151.296875 L 16.421875 156.476562 L 15.796875 162.089844 L 15.761719 162.40625 L 46.589844 162.40625 C 47.203125 162.40625 47.792969 162.660156 48.214844 163.105469 C 48.640625 163.550781 48.859375 164.152344 48.828125 164.765625 L 48.050781 179.574219 L 47.921875 182.050781 L 47.789062 184.53125 L 47.304688 193.804688 L 81.832031 193.804688 L 83.152344 165.527344 C 83.207031 164.316406 84.296875 163.394531 85.429688 163.390625 L 117.714844 163.929688 Z M 59.832031 116.441406 L 78.910156 116.851562 C 79.023438 116.851562 79.125 116.90625 79.234375 116.925781 C 79.378906 116.949219 79.519531 116.96875 79.660156 117.023438 C 79.8125 117.082031 79.945312 117.171875 80.082031 117.261719 C 80.167969 117.320312 80.273438 117.34375 80.355469 117.417969 C 80.410156 117.464844 80.453125 117.523438 80.5 117.578125 C 80.515625 117.59375 80.539062 117.597656 80.550781 117.613281 C 80.5625 117.628906 80.566406 117.648438 80.578125 117.660156 C 80.578125 117.660156 80.578125 117.664062 80.582031 117.664062 C 80.753906 117.875 80.886719 118.109375 80.972656 118.367188 C 80.984375 118.402344 81 118.4375 81.007812 118.476562 C 81.066406 118.675781 81.105469 118.878906 81.105469 119.089844 L 81.105469 121.707031 C 81.105469 121.792969 81.101562 121.875 81.09375 121.960938 L 81.054688 122.300781 L 80.761719 124.894531 L 80.46875 127.484375 L 79.34375 137.476562 C 79.277344 138.046875 78.996094 138.570312 78.5625 138.9375 L 68.347656 147.554688 C 67.925781 147.910156 67.414062 148.082031 66.902344 148.082031 C 66.289062 148.082031 65.679688 147.835938 65.238281 147.347656 L 56.917969 138.148438 L 56.265625 137.429688 C 55.960938 137.089844 55.800781 136.664062 55.742188 136.21875 C 55.730469 136.121094 55.6875 136.027344 55.6875 135.925781 L 55.6875 133.304688 C 55.6875 133.234375 55.699219 133.164062 55.703125 133.09375 C 55.707031 133.070312 55.703125 133.046875 55.707031 133.027344 L 57.558594 118.402344 C 57.617188 117.929688 57.84375 117.523438 58.140625 117.1875 C 58.566406 116.703125 59.160156 116.390625 59.832031 116.441406 Z M 28.152344 153.371094 C 28.023438 154.277344 27.351562 155.015625 26.460938 155.230469 C 26.285156 155.273438 26.105469 155.292969 25.929688 155.292969 C 25.214844 155.292969 24.53125 154.953125 24.105469 154.355469 L 23.371094 153.332031 L 22.046875 151.472656 L 20.71875 149.613281 L 20.066406 148.703125 C 19.433594 147.8125 19.53125 146.59375 20.304688 145.820312 L 25.949219 140.167969 C 26.628906 139.484375 27.671875 139.3125 28.535156 139.746094 C 29.402344 140.175781 29.890625 141.109375 29.757812 142.066406 L 29.230469 145.757812 L 28.859375 148.386719 L 28.484375 151.015625 Z M 33.222656 160.746094 C 31.984375 160.746094 30.980469 159.742188 30.980469 158.503906 L 30.980469 155.886719 C 30.980469 155.8125 30.984375 155.738281 30.992188 155.664062 C 30.992188 155.660156 30.992188 155.65625 30.992188 155.652344 L 31.625 149.59375 L 31.898438 147.011719 L 32.167969 144.429688 L 32.902344 137.4375 C 33.019531 136.300781 33.984375 135.433594 35.132812 135.433594 L 50.667969 135.433594 C 50.992188 135.433594 51.304688 135.507812 51.59375 135.636719 C 51.910156 135.78125 52.199219 135.996094 52.421875 136.273438 L 53.269531 137.335938 L 54.714844 139.144531 L 60.320312 146.164062 C 60.390625 146.25 60.414062 146.355469 60.46875 146.449219 C 60.535156 146.5625 60.601562 146.667969 60.648438 146.792969 C 60.710938 146.960938 60.738281 147.132812 60.757812 147.308594 C 60.769531 147.394531 60.808594 147.472656 60.808594 147.558594 L 60.808594 150.179688 C 60.808594 150.824219 60.535156 151.4375 60.050781 151.859375 L 50.589844 160.1875 C 50.179688 160.546875 49.652344 160.746094 49.105469 160.746094 Z M 65.652344 191.664062 L 65.355469 191.960938 C 64.933594 192.382812 64.363281 192.617188 63.769531 192.617188 C 63.757812 192.617188 63.746094 192.617188 63.734375 192.617188 C 63.125 192.609375 62.546875 192.351562 62.132812 191.910156 L 58.019531 187.527344 L 56.664062 186.082031 C 56.128906 185.511719 55.957031 184.710938 56.160156 183.96875 C 56.1875 183.867188 56.199219 183.761719 56.242188 183.660156 C 56.597656 182.839844 57.40625 182.308594 58.300781 182.308594 L 69.597656 182.308594 C 70.507812 182.308594 71.324219 182.855469 71.671875 183.691406 C 72.019531 184.53125 71.828125 185.492188 71.183594 186.132812 Z M 77.875 161.683594 L 77.871094 161.738281 L 76.863281 178.585938 C 76.792969 179.769531 75.8125 180.695312 74.625 180.695312 L 55.183594 180.695312 C 53.945312 180.695312 52.941406 179.691406 52.941406 178.453125 L 52.941406 175.835938 C 52.941406 175.785156 52.941406 175.738281 52.945312 175.691406 C 52.945312 175.691406 52.945312 175.6875 52.945312 175.6875 L 52.945312 175.671875 C 52.945312 175.667969 52.945312 175.660156 52.945312 175.652344 L 52.949219 175.621094 L 53.871094 161.636719 C 53.910156 161.015625 54.210938 160.4375 54.695312 160.042969 L 64.96875 151.71875 C 65.816406 151.035156 67.035156 151.054688 67.855469 151.769531 L 77.113281 159.835938 C 77.144531 159.863281 77.164062 159.894531 77.191406 159.921875 C 77.246094 159.972656 77.292969 160.027344 77.339844 160.082031 C 77.417969 160.175781 77.484375 160.269531 77.546875 160.371094 C 77.585938 160.433594 77.621094 160.496094 77.652344 160.558594 C 77.707031 160.671875 77.746094 160.789062 77.78125 160.910156 C 77.796875 160.972656 77.820312 161.03125 77.832031 161.09375 C 77.867188 161.257812 77.878906 161.425781 77.871094 161.597656 C 77.871094 161.617188 77.878906 161.636719 77.878906 161.660156 L 77.875 161.675781 C 77.875 161.679688 77.875 161.679688 77.875 161.683594 Z M 99.554688 159.667969 C 99.484375 160.859375 98.5 161.78125 97.316406 161.78125 C 97.292969 161.78125 97.269531 161.78125 97.242188 161.78125 L 84.101562 161.351562 C 83.574219 161.335938 83.070312 161.132812 82.679688 160.78125 L 72.695312 151.847656 C 72.222656 151.421875 71.949219 150.816406 71.949219 150.179688 L 71.949219 147.558594 C 71.949219 147.550781 71.953125 147.546875 71.953125 147.539062 C 71.953125 147.527344 71.949219 147.519531 71.949219 147.511719 C 71.953125 147.339844 71.980469 147.167969 72.023438 147.003906 C 72.035156 146.957031 72.058594 146.914062 72.070312 146.871094 C 72.113281 146.742188 72.160156 146.621094 72.222656 146.503906 C 72.253906 146.449219 72.289062 146.398438 72.324219 146.34375 C 72.386719 146.246094 72.457031 146.15625 72.535156 146.066406 C 72.582031 146.015625 72.628906 145.96875 72.679688 145.921875 C 72.710938 145.890625 72.734375 145.855469 72.769531 145.828125 L 83.503906 137.007812 C 83.933594 136.652344 84.476562 136.480469 85.042969 136.5 L 98.589844 137.195312 C 98.597656 137.195312 98.605469 137.199219 98.613281 137.199219 C 98.878906 137.214844 99.132812 137.289062 99.375 137.394531 C 99.414062 137.410156 99.449219 137.425781 99.488281 137.445312 C 99.667969 137.535156 99.839844 137.644531 99.996094 137.785156 C 100.035156 137.820312 100.0625 137.867188 100.097656 137.90625 C 100.113281 137.921875 100.136719 137.925781 100.152344 137.945312 C 100.167969 137.964844 100.171875 137.988281 100.1875 138.007812 C 100.355469 138.207031 100.488281 138.429688 100.578125 138.671875 C 100.589844 138.707031 100.597656 138.742188 100.605469 138.777344 C 100.683594 139.027344 100.730469 139.292969 100.714844 139.5625 Z M 114.667969 150.457031 L 109.027344 156.109375 C 108.597656 156.539062 108.023438 156.769531 107.4375 156.769531 C 107.148438 156.769531 106.859375 156.714844 106.582031 156.597656 C 105.742188 156.253906 105.195312 155.433594 105.195312 154.527344 L 105.195312 143.222656 C 105.195312 142.316406 105.742188 141.5 106.582031 141.152344 C 107.421875 140.804688 108.386719 141 109.027344 141.640625 L 114.667969 147.292969 C 115.542969 148.167969 115.542969 149.582031 114.667969 150.457031 Z M 293.171875 193.804688 L 327.699219 193.804688 L 327.210938 184.53125 L 327.082031 182.050781 L 326.949219 179.574219 L 326.171875 164.765625 C 326.140625 164.152344 326.363281 163.550781 326.785156 163.105469 C 327.207031 162.660156 327.796875 162.40625 328.410156 162.40625 L 359.238281 162.40625 L 359.203125 162.089844 L 358.578125 156.476562 L 358.289062 153.886719 L 358.003906 151.296875 L 355.921875 132.597656 L 343.339844 132.597656 C 350.039062 134.046875 355.03125 139.378906 355.03125 145.738281 C 355.03125 146.175781 355.003906 146.609375 354.957031 147.035156 C 355.003906 147.460938 355.03125 147.894531 355.03125 148.332031 C 355.03125 148.863281 354.988281 149.386719 354.921875 149.902344 C 354.820312 150.664062 354.644531 151.410156 354.40625 152.128906 C 354.171875 152.839844 353.867188 153.523438 353.507812 154.179688 C 351.03125 158.722656 345.785156 161.871094 339.710938 161.871094 C 331.261719 161.871094 324.390625 155.796875 324.390625 148.332031 C 324.390625 147.894531 324.417969 147.460938 324.464844 147.035156 C 324.417969 146.609375 324.390625 146.175781 324.390625 145.738281 C 324.390625 144.210938 324.691406 142.746094 325.21875 141.375 C 325.492188 140.679688 325.8125 140.003906 326.203125 139.363281 C 326.597656 138.710938 327.058594 138.101562 327.566406 137.519531 C 329.65625 135.109375 332.640625 133.34375 336.082031 132.597656 L 324.941406 132.597656 C 323.8125 132.597656 322.859375 131.761719 322.714844 130.644531 L 320.980469 117.097656 L 320.695312 114.863281 L 320.40625 112.628906 L 320.371094 112.355469 L 319.652344 106.753906 L 319.523438 105.742188 L 319.328125 104.199219 L 315.417969 104.289062 L 311.128906 104.386719 L 306.839844 104.488281 L 288.667969 104.90625 L 288.757812 106.402344 L 289.1875 113.292969 L 289.46875 117.769531 L 289.628906 120.347656 L 289.785156 122.878906 L 289.945312 125.410156 L 290.257812 130.453125 C 290.296875 131.054688 290.085938 131.648438 289.683594 132.09375 C 289.277344 132.542969 288.707031 132.808594 288.101562 132.828125 L 278.753906 133.175781 C 285.710938 134.511719 290.957031 140.234375 290.957031 147.070312 C 290.957031 147.507812 290.925781 147.9375 290.886719 148.363281 C 290.925781 148.792969 290.957031 149.222656 290.957031 149.660156 C 290.957031 156.527344 285.664062 162.265625 278.664062 163.574219 L 289.574219 163.390625 C 290.753906 163.429688 291.796875 164.316406 291.851562 165.527344 Z M 325.535156 174.898438 C 325.535156 175.335938 325.503906 175.765625 325.460938 176.191406 C 325.503906 176.621094 325.535156 177.050781 325.535156 177.488281 C 325.535156 178.535156 325.40625 179.554688 325.175781 180.539062 C 324.910156 181.660156 324.496094 182.730469 323.96875 183.742188 C 323.035156 185.519531 321.722656 187.097656 320.121094 188.375 C 318.710938 189.496094 317.085938 190.382812 315.304688 190.984375 C 313.652344 191.542969 311.875 191.863281 310.011719 191.863281 C 309.691406 191.863281 309.378906 191.835938 309.0625 191.820312 C 307.816406 191.75 306.605469 191.554688 305.453125 191.226562 C 299.113281 189.417969 294.492188 183.945312 294.492188 177.488281 C 294.492188 177.050781 294.523438 176.621094 294.5625 176.191406 C 294.523438 175.765625 294.492188 175.335938 294.492188 174.898438 C 294.492188 166.972656 301.453125 160.523438 310.011719 160.523438 C 318.570312 160.523438 325.535156 166.972656 325.535156 174.898438 Z M 291.042969 123.445312 C 291.042969 123.378906 291.03125 123.3125 291.03125 123.246094 C 291.03125 122.808594 291.058594 122.375 291.105469 121.949219 C 291.070312 121.632812 291.058594 121.3125 291.050781 120.992188 C 291.046875 120.878906 291.03125 120.765625 291.03125 120.652344 C 291.03125 119.648438 291.160156 118.671875 291.382812 117.730469 C 291.566406 116.949219 291.820312 116.195312 292.140625 115.472656 C 292.496094 114.675781 292.929688 113.917969 293.433594 113.203125 C 296.066406 109.472656 300.609375 107 305.765625 107 C 310.679688 107 315.027344 109.25 317.707031 112.6875 C 318.246094 113.378906 318.714844 114.117188 319.109375 114.898438 C 319.464844 115.609375 319.757812 116.347656 319.980469 117.121094 C 320.308594 118.25 320.5 119.429688 320.5 120.652344 C 320.5 121.089844 320.472656 121.523438 320.429688 121.949219 C 320.472656 122.375 320.5 122.808594 320.5 123.246094 C 320.5 126.832031 318.988281 130.089844 316.539062 132.527344 C 315.957031 133.109375 315.320312 133.644531 314.632812 134.125 C 313.886719 134.652344 313.082031 135.109375 312.230469 135.496094 C 310.277344 136.386719 308.085938 136.902344 305.765625 136.902344 C 298.675781 136.902344 292.742188 132.234375 291.347656 126.042969 C 291.15625 125.203125 291.058594 124.335938 291.042969 123.445312 Z M 260.316406 147.070312 C 260.316406 147.507812 260.34375 147.9375 260.386719 148.363281 C 260.34375 148.792969 260.316406 149.222656 260.316406 149.660156 C 260.316406 156.734375 265.933594 162.597656 273.25 163.664062 L 257.289062 163.929688 L 255.875 134.019531 L 271.375 133.445312 C 264.996094 135.160156 260.316406 140.613281 260.316406 147.070312 Z M 288.492188 206.0625 C 288.472656 205.894531 288.453125 205.722656 288.429688 205.554688 C 288.335938 204.871094 288.230469 204.195312 288.105469 203.523438 C 288.085938 203.417969 288.066406 203.3125 288.046875 203.210938 C 287.898438 202.445312 287.734375 201.6875 287.539062 200.9375 C 283.464844 185.15625 269.828125 173.171875 253.199219 171.539062 C 252.355469 171.457031 251.5 171.410156 250.640625 171.378906 C 250.199219 171.363281 249.757812 171.347656 249.3125 171.347656 C 248.945312 171.347656 248.582031 171.363281 248.21875 171.375 C 226.957031 171.957031 209.835938 189.40625 209.835938 210.789062 C 209.835938 212.160156 209.90625 213.515625 210.042969 214.851562 C 210.121094 215.605469 210.226562 216.347656 210.347656 217.089844 C 210.46875 217.84375 210.613281 218.589844 210.777344 219.332031 C 211.398438 222.121094 212.3125 224.804688 213.492188 227.339844 C 213.84375 228.097656 214.210938 228.847656 214.609375 229.578125 C 215.027344 230.34375 215.476562 231.085938 215.941406 231.820312 C 222.941406 242.871094 235.28125 250.230469 249.3125 250.230469 C 258.34375 250.230469 266.671875 247.175781 273.332031 242.058594 C 273.9375 241.59375 274.523438 241.109375 275.101562 240.613281 C 275.683594 240.109375 276.253906 239.589844 276.804688 239.050781 C 284.1875 231.882812 288.785156 221.863281 288.785156 210.789062 C 288.785156 210.027344 288.761719 209.269531 288.714844 208.515625 C 288.667969 207.691406 288.589844 206.875 288.492188 206.0625 Z M 273.085938 232.136719 C 272.554688 232.714844 272.007812 233.273438 271.4375 233.808594 C 270.878906 234.335938 270.320312 234.867188 269.726562 235.355469 C 263.960938 240.085938 256.589844 242.933594 248.566406 242.933594 C 238.714844 242.933594 229.871094 238.621094 223.753906 231.820312 C 223.109375 231.101562 222.496094 230.355469 221.910156 229.578125 C 221.363281 228.855469 220.84375 228.109375 220.355469 227.339844 C 218.789062 224.863281 217.519531 222.1875 216.640625 219.332031 C 216.417969 218.597656 216.238281 217.84375 216.0625 217.089844 C 215.894531 216.351562 215.757812 215.605469 215.636719 214.851562 C 215.359375 213.125 215.175781 211.375 215.175781 209.574219 C 215.175781 191.179688 230.15625 176.214844 248.566406 176.214844 C 249.25 176.214844 249.921875 176.273438 250.597656 176.316406 C 251.492188 176.371094 252.378906 176.457031 253.253906 176.582031 C 254.25 176.722656 255.230469 176.898438 256.195312 177.125 C 267.847656 179.863281 277.160156 188.6875 280.550781 200.066406 C 280.839844 201.027344 281.09375 202 281.292969 202.996094 C 281.375 203.398438 281.414062 203.8125 281.480469 204.222656 C 281.558594 204.695312 281.644531 205.164062 281.699219 205.644531 C 281.738281 205.960938 281.773438 206.277344 281.800781 206.597656 C 281.875 207.414062 281.914062 208.242188 281.925781 209.078125 C 281.929688 209.242188 281.953125 209.40625 281.953125 209.574219 C 281.953125 218.28125 278.570312 226.191406 273.085938 232.136719 Z M 126.785156 171.375 C 126.417969 171.363281 126.058594 171.347656 125.691406 171.347656 C 125.246094 171.347656 124.800781 171.363281 124.359375 171.378906 C 123.5 171.410156 122.644531 171.457031 121.800781 171.539062 C 105.171875 173.171875 91.539062 185.15625 87.460938 200.9375 C 87.269531 201.6875 87.101562 202.445312 86.953125 203.210938 C 86.933594 203.3125 86.917969 203.417969 86.898438 203.523438 C 86.773438 204.195312 86.664062 204.871094 86.574219 205.554688 C 86.550781 205.722656 86.527344 205.894531 86.507812 206.0625 C 86.410156 206.875 86.332031 207.691406 86.285156 208.515625 C 86.242188 209.269531 86.214844 210.023438 86.214844 210.789062 C 86.214844 221.863281 90.8125 231.878906 98.195312 239.050781 C 98.75 239.589844 99.316406 240.109375 99.902344 240.613281 C 100.476562 241.109375 101.066406 241.59375 101.667969 242.058594 C 108.328125 247.175781 116.65625 250.230469 125.691406 250.230469 C 139.722656 250.230469 152.058594 242.871094 159.0625 231.820312 C 159.523438 231.085938 159.976562 230.34375 160.390625 229.578125 C 160.789062 228.847656 161.15625 228.097656 161.507812 227.339844 C 162.6875 224.804688 163.601562 222.121094 164.222656 219.332031 C 164.386719 218.589844 164.535156 217.84375 164.65625 217.089844 C 164.773438 216.347656 164.878906 215.605469 164.957031 214.851562 C 165.09375 213.515625 165.164062 212.160156 165.164062 210.789062 C 165.164062 189.40625 148.046875 171.957031 126.785156 171.375 Z M 159.367188 214.851562 C 159.246094 215.605469 159.109375 216.351562 158.9375 217.089844 C 158.761719 217.84375 158.585938 218.597656 158.359375 219.332031 C 157.484375 222.1875 156.214844 224.863281 154.644531 227.339844 C 154.160156 228.109375 153.636719 228.855469 153.089844 229.578125 C 152.507812 230.355469 151.894531 231.101562 151.246094 231.820312 C 145.128906 238.621094 136.289062 242.933594 126.4375 242.933594 C 118.410156 242.933594 111.039062 240.085938 105.277344 235.355469 C 104.679688 234.867188 104.121094 234.335938 103.5625 233.808594 C 102.992188 233.273438 102.449219 232.714844 101.917969 232.136719 C 96.429688 226.191406 93.046875 218.277344 93.046875 209.574219 C 93.046875 209.40625 93.070312 209.246094 93.074219 209.078125 C 93.085938 208.242188 93.125 207.414062 93.199219 206.597656 C 93.226562 206.277344 93.265625 205.960938 93.300781 205.644531 C 93.359375 205.164062 93.441406 204.691406 93.519531 204.21875 C 93.585938 203.8125 93.625 203.398438 93.707031 202.996094 C 93.90625 202 94.164062 201.027344 94.449219 200.066406 C 97.84375 188.6875 107.15625 179.863281 118.804688 177.128906 C 119.769531 176.898438 120.75 176.722656 121.746094 176.582031 C 122.621094 176.457031 123.507812 176.371094 124.40625 176.316406 C 125.082031 176.273438 125.75 176.214844 126.4375 176.214844 C 144.847656 176.214844 159.824219 191.179688 159.824219 209.574219 C 159.824219 211.375 159.640625 213.125 159.367188 214.851562 Z M 159.367188 214.851562 " fill-opacity="1" fill-rule="nonzero"/><path fill="#92dcff" d="M 147.613281 140.683594 L 160.257812 140.683594 L 160.257812 146.496094 L 147.613281 146.496094 Z M 227.386719 145.828125 L 227.386719 140.683594 L 214.742188 140.683594 L 214.742188 146.496094 L 227.386719 146.496094 Z M 83.421875 90.429688 C 84.511719 90.640625 85.589844 90.875 86.65625 91.140625 C 87.675781 91.394531 88.683594 91.671875 89.679688 91.972656 C 94.308594 93.375 98.707031 95.304688 102.820312 97.710938 C 102.511719 93.25 102.109375 87.84375 101.824219 85.277344 C 101.8125 85.15625 101.777344 85.066406 101.761719 84.953125 C 101.636719 84.109375 101.414062 83.375 101.121094 82.730469 C 100.792969 82 100.375 81.382812 99.886719 80.855469 C 98.558594 79.410156 96.792969 78.59375 95.226562 77.894531 L 94.796875 77.703125 C 85.039062 73.300781 65.339844 73.882812 57.332031 76.410156 C 51.652344 78.203125 49.773438 81.304688 47.738281 85.484375 C 46.847656 87.3125 45.535156 90.9375 44.324219 94.488281 C 52.464844 91.101562 61.359375 89.207031 70.613281 89.207031 C 74.992188 89.207031 79.277344 89.621094 83.421875 90.429688 Z M 330.679688 94.488281 C 329.464844 90.9375 328.152344 87.3125 327.265625 85.484375 C 325.230469 81.300781 323.351562 78.203125 317.667969 76.410156 C 313.871094 75.210938 307.449219 74.449219 300.703125 74.449219 C 293.21875 74.449219 285.335938 75.386719 280.203125 77.703125 L 279.773438 77.894531 C 278.210938 78.59375 276.441406 79.410156 275.113281 80.855469 C 274.628906 81.382812 274.210938 82 273.878906 82.730469 C 273.585938 83.375 273.363281 84.109375 273.242188 84.949219 C 273.222656 85.066406 273.1875 85.15625 273.175781 85.277344 C 272.890625 87.84375 272.488281 93.25 272.179688 97.710938 C 276.292969 95.308594 280.691406 93.375 285.320312 91.972656 C 286.320312 91.671875 287.328125 91.394531 288.34375 91.140625 C 289.414062 90.875 290.492188 90.640625 291.578125 90.429688 C 295.722656 89.621094 300.007812 89.207031 304.390625 89.207031 C 313.640625 89.207031 322.539062 91.101562 330.679688 94.488281 Z M 58.28125 162.90625 L 57.578125 173.59375 L 72.539062 173.59375 L 73.304688 162.75 L 73.324219 162.480469 L 66.328125 156.386719 Z M 49.890625 140.292969 L 49.589844 139.914062 L 37.152344 139.914062 L 37.109375 140.292969 L 36.902344 142.285156 L 36.632812 144.871094 L 36.359375 147.453125 L 35.710938 153.648438 L 48.257812 153.648438 L 55.21875 147.523438 L 55.484375 147.289062 L 50.5 141.050781 Z M 85.679688 141.019531 L 85.34375 141.296875 L 77.632812 147.632812 L 77.992188 147.953125 L 85.0625 154.28125 L 95.222656 154.613281 L 96.054688 142.039062 L 96.089844 141.554688 L 86.867188 141.082031 Z M 61.753906 120.964844 L 61.738281 121.074219 L 60.398438 131.652344 L 60.285156 132.566406 L 60.308594 132.59375 L 61.308594 133.699219 L 62.886719 135.445312 L 67.109375 140.113281 L 74.984375 133.472656 L 75.402344 129.78125 L 75.695312 127.1875 L 75.984375 124.59375 L 76.320312 121.640625 L 76.359375 121.277344 L 62.535156 120.980469 Z M 281.96875 139.207031 C 280.183594 138.050781 278 137.359375 275.636719 137.359375 C 273.269531 137.359375 271.085938 138.050781 269.300781 139.207031 C 266.582031 140.972656 264.800781 143.835938 264.800781 147.070312 C 264.800781 147.507812 264.84375 147.941406 264.90625 148.363281 C 265.617188 153.109375 270.152344 156.78125 275.636719 156.78125 C 281.117188 156.78125 285.652344 153.109375 286.363281 148.363281 C 286.425781 147.941406 286.472656 147.507812 286.472656 147.070312 C 286.472656 143.835938 284.691406 140.972656 281.96875 139.207031 Z M 346.476562 138.675781 C 344.621094 137.429688 342.269531 136.679688 339.710938 136.679688 C 337.152344 136.679688 334.804688 137.429688 332.949219 138.671875 C 332.574219 138.921875 332.226562 139.191406 331.898438 139.480469 C 331.292969 140.007812 330.765625 140.59375 330.328125 141.226562 C 329.894531 141.851562 329.550781 142.519531 329.308594 143.226562 C 329.03125 144.027344 328.875 144.867188 328.875 145.738281 C 328.875 146.179688 328.925781 146.609375 328.996094 147.035156 C 329.753906 151.417969 334.261719 154.796875 339.710938 154.796875 C 342.984375 154.796875 345.917969 153.574219 347.90625 151.648438 C 348.472656 151.097656 348.960938 150.492188 349.359375 149.84375 C 349.753906 149.199219 350.054688 148.511719 350.257812 147.789062 C 350.324219 147.542969 350.378906 147.289062 350.421875 147.035156 C 350.496094 146.609375 350.546875 146.179688 350.546875 145.738281 C 350.546875 142.882812 348.953125 140.335938 346.476562 138.675781 Z M 316.464844 166.886719 C 314.648438 165.707031 312.421875 165.003906 310.011719 165.003906 C 307.601562 165.003906 305.375 165.707031 303.558594 166.890625 C 300.789062 168.6875 298.976562 171.601562 298.976562 174.898438 C 298.976562 175.335938 299.019531 175.769531 299.082031 176.191406 C 299.796875 181.035156 304.421875 184.789062 310.011719 184.789062 C 315.605469 184.789062 320.230469 181.035156 320.941406 176.191406 C 321.003906 175.769531 321.046875 175.335938 321.046875 174.898438 C 321.046875 171.601562 319.234375 168.6875 316.464844 166.886719 Z M 305.765625 129.828125 C 307.011719 129.828125 308.199219 129.617188 309.304688 129.253906 C 312.777344 128.105469 315.363281 125.324219 315.902344 121.949219 C 315.96875 121.523438 316.015625 121.09375 316.015625 120.652344 C 316.015625 119.4375 315.746094 118.28125 315.261719 117.21875 C 314.902344 116.421875 314.414062 115.679688 313.828125 115.011719 C 313.242188 114.339844 312.554688 113.746094 311.78125 113.242188 C 311.558594 113.09375 311.324219 112.957031 311.085938 112.828125 C 309.535156 111.976562 307.714844 111.480469 305.765625 111.480469 C 303.636719 111.480469 301.65625 112.066406 300.015625 113.0625 C 299.925781 113.121094 299.835938 113.1875 299.746094 113.246094 C 298.84375 113.832031 298.054688 114.546875 297.410156 115.359375 C 296.863281 116.050781 296.421875 116.8125 296.101562 117.628906 C 295.730469 118.578125 295.519531 119.59375 295.519531 120.652344 C 295.519531 121.09375 295.566406 121.523438 295.632812 121.949219 C 295.699219 122.375 295.796875 122.792969 295.925781 123.199219 C 296.332031 124.453125 297.027344 125.597656 297.949219 126.570312 C 299.6875 128.410156 302.222656 129.625 305.074219 129.796875 C 305.304688 129.8125 305.53125 129.828125 305.765625 129.828125 Z M 149.898438 207.363281 C 149.898438 209.964844 149.503906 212.480469 148.777344 214.851562 C 148.542969 215.613281 148.269531 216.359375 147.96875 217.089844 C 147.652344 217.855469 147.300781 218.605469 146.914062 219.332031 C 145.269531 222.433594 143.003906 225.152344 140.289062 227.339844 C 139.253906 228.171875 138.152344 228.914062 136.996094 229.578125 C 135.40625 230.496094 133.71875 231.257812 131.941406 231.820312 C 129.507812 232.585938 126.917969 233.003906 124.234375 233.003906 C 121.550781 233.003906 118.964844 232.585938 116.527344 231.820312 C 114.75 231.257812 113.0625 230.496094 111.476562 229.578125 C 110.683594 229.125 109.921875 228.625 109.1875 228.089844 C 108.570312 227.640625 107.976562 227.171875 107.402344 226.671875 C 106.816406 226.164062 106.253906 225.632812 105.71875 225.070312 C 102.394531 221.601562 100.027344 217.214844 99.0625 212.324219 C 98.882812 211.421875 98.761719 210.5 98.679688 209.566406 C 98.621094 208.839844 98.570312 208.105469 98.570312 207.363281 C 98.570312 207.230469 98.585938 207.101562 98.589844 206.96875 C 98.613281 205.480469 98.761719 204.023438 99.03125 202.605469 C 99.226562 201.566406 99.476562 200.542969 99.796875 199.550781 C 100.21875 198.238281 100.753906 196.980469 101.371094 195.769531 C 104.085938 190.445312 108.589844 186.1875 114.105469 183.808594 C 115.324219 183.28125 116.605469 182.871094 117.914062 182.539062 C 118.929688 182.277344 119.964844 182.074219 121.027344 181.941406 C 122.078125 181.808594 123.144531 181.71875 124.234375 181.71875 C 138.386719 181.71875 149.898438 193.222656 149.898438 207.363281 Z M 140.402344 217.089844 C 139.648438 216.585938 138.691406 216.578125 137.933594 217.089844 C 137.832031 217.15625 137.722656 217.191406 137.632812 217.277344 C 136.804688 218.050781 135.882812 218.71875 134.921875 219.332031 C 130.476562 222.167969 124.8125 223.21875 119.648438 221.964844 C 117.582031 221.5 115.617188 220.628906 113.8125 219.496094 C 113.171875 219.09375 112.5625 218.660156 111.96875 218.1875 C 111.367188 217.707031 110.796875 217.195312 110.25 216.652344 C 109.746094 216.144531 109.269531 215.617188 108.820312 215.0625 C 107.855469 213.867188 107.027344 212.570312 106.371094 211.1875 C 106.140625 210.703125 105.902344 210.222656 105.714844 209.722656 C 105.285156 208.5625 103.996094 207.972656 102.832031 208.402344 C 102.546875 208.507812 102.296875 208.667969 102.085938 208.863281 C 101.492188 209.417969 101.257812 210.265625 101.480469 211.085938 C 101.496094 211.148438 101.484375 211.21875 101.511719 211.28125 C 101.921875 212.386719 102.433594 213.4375 102.996094 214.457031 C 104.3125 216.839844 106.015625 218.984375 108.023438 220.785156 L 108.023438 220.789062 C 108.589844 221.296875 109.195312 221.757812 109.804688 222.210938 C 110.410156 222.660156 111.035156 223.070312 111.675781 223.460938 C 113.824219 224.765625 116.152344 225.769531 118.625 226.328125 C 120.46875 226.777344 122.347656 226.996094 124.222656 226.996094 C 130.273438 226.996094 136.257812 224.714844 140.703125 220.542969 C 141.058594 220.207031 141.242188 219.777344 141.328125 219.332031 C 141.460938 218.648438 141.316406 217.921875 140.800781 217.375 C 140.683594 217.25 140.535156 217.183594 140.402344 217.089844 Z M 142.746094 209.75 C 142.628906 210.078125 142.503906 210.40625 142.351562 210.71875 C 141.796875 211.824219 142.246094 213.171875 143.355469 213.722656 C 143.675781 213.882812 144.019531 213.960938 144.355469 213.960938 C 145.179688 213.960938 145.96875 213.503906 146.363281 212.71875 C 146.601562 212.246094 146.792969 211.75 146.96875 211.25 C 147.386719 210.085938 146.777344 208.804688 145.609375 208.390625 C 144.445312 207.976562 143.160156 208.585938 142.746094 209.75 Z M 276.410156 206.96875 C 276.414062 207.101562 276.429688 207.230469 276.429688 207.363281 C 276.429688 208.105469 276.382812 208.839844 276.320312 209.566406 C 276.238281 210.5 276.117188 211.421875 275.9375 212.324219 C 274.976562 217.214844 272.605469 221.601562 269.28125 225.070312 C 268.746094 225.632812 268.183594 226.164062 267.597656 226.671875 C 267.027344 227.171875 266.429688 227.640625 265.816406 228.089844 C 265.078125 228.625 264.316406 229.125 263.527344 229.578125 C 261.9375 230.496094 260.25 231.257812 258.472656 231.820312 C 256.039062 232.585938 253.449219 233.003906 250.765625 233.003906 C 248.082031 233.003906 245.492188 232.585938 243.058594 231.820312 C 241.28125 231.257812 239.59375 230.496094 238.007812 229.578125 C 236.851562 228.914062 235.746094 228.171875 234.714844 227.339844 C 231.996094 225.152344 229.730469 222.433594 228.085938 219.332031 C 227.699219 218.605469 227.347656 217.855469 227.03125 217.089844 C 226.730469 216.359375 226.457031 215.613281 226.222656 214.851562 C 225.5 212.480469 225.101562 209.964844 225.101562 207.363281 C 225.101562 193.222656 236.617188 181.71875 250.765625 181.71875 C 251.855469 181.71875 252.921875 181.808594 253.976562 181.941406 C 255.035156 182.074219 256.070312 182.28125 257.089844 182.539062 C 258.398438 182.871094 259.675781 183.28125 260.894531 183.808594 C 266.410156 186.1875 270.914062 190.445312 273.628906 195.769531 C 274.246094 196.980469 274.78125 198.238281 275.203125 199.550781 C 275.523438 200.542969 275.773438 201.5625 275.96875 202.605469 C 276.238281 204.023438 276.386719 205.480469 276.410156 206.96875 Z M 267.230469 217.042969 C 266.527344 216.605469 265.667969 216.59375 264.945312 217.015625 C 264.804688 217.097656 264.652344 217.160156 264.527344 217.277344 C 264.09375 217.683594 263.621094 218.042969 263.148438 218.40625 C 262.554688 218.863281 261.929688 219.28125 261.28125 219.664062 C 256.921875 222.246094 251.507812 223.167969 246.542969 221.964844 C 244.375 221.476562 242.3125 220.554688 240.433594 219.332031 C 239.417969 218.671875 238.472656 217.921875 237.589844 217.089844 C 236.851562 216.394531 236.171875 215.644531 235.546875 214.851562 C 234.320312 213.292969 233.296875 211.578125 232.609375 209.722656 C 232.179688 208.5625 230.894531 207.972656 229.730469 208.402344 C 228.566406 208.832031 227.976562 210.121094 228.40625 211.28125 C 228.871094 212.53125 229.472656 213.707031 230.132812 214.851562 C 230.578125 215.625 231.058594 216.375 231.585938 217.089844 C 232.164062 217.875 232.785156 218.621094 233.453125 219.332031 C 236.6875 222.773438 240.882812 225.28125 245.519531 226.328125 C 247.363281 226.777344 249.242188 226.996094 251.117188 226.996094 C 255.433594 226.996094 259.703125 225.816406 263.417969 223.636719 C 264.066406 223.257812 264.691406 222.847656 265.300781 222.40625 C 265.917969 221.960938 266.511719 221.488281 267.082031 220.980469 C 267.25 220.832031 267.433594 220.699219 267.597656 220.542969 C 268.5 219.695312 268.546875 218.277344 267.699219 217.375 C 267.5625 217.230469 267.390625 217.144531 267.230469 217.042969 Z M 273.921875 210.867188 C 274.058594 210.050781 273.753906 209.253906 273.113281 208.757812 C 272.929688 208.613281 272.742188 208.476562 272.511719 208.394531 C 271.347656 207.976562 270.0625 208.578125 269.640625 209.742188 C 269.523438 210.074219 269.402344 210.398438 269.25 210.710938 C 269.222656 210.765625 269.226562 210.824219 269.203125 210.878906 C 268.871094 211.6875 269.03125 212.589844 269.59375 213.210938 C 269.777344 213.414062 269.988281 213.59375 270.242188 213.71875 C 270.566406 213.882812 270.910156 213.960938 271.25 213.960938 C 272.070312 213.960938 272.859375 213.507812 273.253906 212.726562 C 273.492188 212.253906 273.683594 211.757812 273.863281 211.257812 C 273.910156 211.128906 273.898438 211 273.921875 210.867188 Z M 180.425781 177.488281 L 180.425781 182.34375 L 194.574219 182.34375 L 194.574219 177.109375 L 180.425781 177.109375 Z M 180.425781 177.488281 " fill-opacity="1" fill-rule="nonzero"/></svg>