<svg xmlns="http://www.w3.org/2000/svg" xmlns:xlink="http://www.w3.org/1999/xlink" zoomAndPan="magnify" preserveAspectRatio="xMidYMid meet" version="1.0" viewBox="22.5 33.7 30 7.5"><defs><g/><clipPath id="c6c22b121c"><path d="M 22.5 33.695312 L 52.5 33.695312 L 52.5 41.195312 L 22.5 41.195312 Z M 22.5 33.695312 " clip-rule="nonzero"/></clipPath></defs><g clip-path="url(#c6c22b121c)"><path fill="#d63335" d="M 52.484375 33.695312 L 22.515625 33.695312 L 25.285156 37.445312 L 22.515625 41.195312 L 52.484375 41.195312 L 49.714844 37.445312 Z M 52.484375 33.695312 " fill-opacity="1" fill-rule="nonzero"/></g><g fill="#ffffff" fill-opacity="1"><g transform="translate(26.512399, 38.66666)"><g><path d="M 1.265625 -2.5 C 1.441406 -2.5 1.59375 -2.46875 1.71875 -2.40625 C 1.84375 -2.34375 1.9375 -2.253906 2 -2.140625 C 2.0625 -2.023438 2.09375 -1.890625 2.09375 -1.734375 C 2.09375 -1.578125 2.0625 -1.441406 2 -1.328125 C 1.9375 -1.210938 1.84375 -1.125 1.71875 -1.0625 C 1.59375 -1.007812 1.441406 -0.984375 1.265625 -0.984375 L 0.671875 -0.984375 L 0.671875 0 L 0.375 0 L 0.375 -2.5 Z M 1.265625 -1.234375 C 1.609375 -1.234375 1.78125 -1.398438 1.78125 -1.734375 C 1.78125 -2.078125 1.609375 -2.25 1.265625 -2.25 L 0.671875 -2.25 L 0.671875 -1.234375 Z M 1.265625 -1.234375 "/></g></g><g transform="translate(28.790467, 38.66666)"><g><path d="M 0.671875 -2.5 L 0.671875 -0.25 L 1.875 -0.25 L 1.875 0 L 0.375 0 L 0.375 -2.5 Z M 0.671875 -2.5 "/></g></g><g transform="translate(30.771173, 38.66666)"><g><path d="M 2.25 0 L 1.9375 0 L 1.703125 -0.6875 L 0.640625 -0.6875 L 0.40625 0 L 0.09375 0 L 0.96875 -2.5 L 1.375 -2.5 Z M 1.15625 -2.203125 L 0.71875 -0.9375 L 1.625 -0.9375 L 1.1875 -2.203125 Z M 1.15625 -2.203125 "/></g></g><g transform="translate(33.11931, 38.66666)"><g><path d="M 1.21875 0 L 0.921875 0 L 0.921875 -0.984375 L 0.0625 -2.5 L 0.390625 -2.5 L 1.0625 -1.328125 L 1.109375 -1.328125 L 1.765625 -2.5 L 2.078125 -2.5 L 1.21875 -0.984375 Z M 1.21875 0 "/></g></g><g transform="translate(35.267495, 38.66666)"><g/></g><g transform="translate(36.125403, 38.66666)"><g><path d="M 1.3125 0.03125 C 1.101562 0.03125 0.914062 -0.015625 0.75 -0.109375 C 0.59375 -0.203125 0.46875 -0.34375 0.375 -0.53125 C 0.289062 -0.726562 0.25 -0.96875 0.25 -1.25 C 0.25 -1.53125 0.296875 -1.765625 0.390625 -1.953125 C 0.484375 -2.148438 0.613281 -2.296875 0.78125 -2.390625 C 0.957031 -2.484375 1.160156 -2.53125 1.390625 -2.53125 C 1.628906 -2.53125 1.820312 -2.488281 1.96875 -2.40625 C 2.125 -2.320312 2.234375 -2.191406 2.296875 -2.015625 L 2.109375 -1.90625 L 2.0625 -1.90625 C 2 -2.039062 1.910156 -2.132812 1.796875 -2.1875 C 1.691406 -2.238281 1.554688 -2.265625 1.390625 -2.265625 C 0.835938 -2.265625 0.5625 -1.925781 0.5625 -1.25 C 0.5625 -0.894531 0.628906 -0.632812 0.765625 -0.46875 C 0.910156 -0.3125 1.101562 -0.234375 1.34375 -0.234375 C 1.570312 -0.234375 1.742188 -0.285156 1.859375 -0.390625 C 1.972656 -0.492188 2.03125 -0.65625 2.03125 -0.875 L 2.03125 -1.09375 L 1.328125 -1.09375 L 1.328125 -1.328125 L 2.3125 -1.328125 L 2.3125 0 L 2.046875 0 L 2.046875 -0.328125 L 2.015625 -0.34375 C 1.941406 -0.21875 1.847656 -0.125 1.734375 -0.0625 C 1.617188 0 1.476562 0.03125 1.3125 0.03125 Z M 1.3125 0.03125 "/></g></g><g transform="translate(38.72305, 38.66666)"><g><path d="M 2.25 0 L 1.9375 0 L 1.703125 -0.6875 L 0.640625 -0.6875 L 0.40625 0 L 0.09375 0 L 0.96875 -2.5 L 1.375 -2.5 Z M 1.15625 -2.203125 L 0.71875 -0.9375 L 1.625 -0.9375 L 1.1875 -2.203125 Z M 1.15625 -2.203125 "/></g></g><g transform="translate(41.071186, 38.66666)"><g><path d="M 0.65625 0 L 0.375 0 L 0.375 -2.5 L 0.8125 -2.5 L 1.578125 -0.390625 L 1.609375 -0.390625 L 2.359375 -2.5 L 2.78125 -2.5 L 2.78125 0 L 2.5 0 L 2.5 -2.03125 L 2.46875 -2.046875 L 1.71875 0 L 1.4375 0 L 0.6875 -2.046875 L 0.65625 -2.03125 Z M 0.65625 0 "/></g></g><g transform="translate(44.234505, 38.66666)"><g><path d="M 0.671875 -1.171875 L 0.671875 -0.25 L 1.9375 -0.25 L 1.9375 0 L 0.375 0 L 0.375 -2.5 L 1.921875 -2.5 L 1.921875 -2.25 L 0.671875 -2.25 L 0.671875 -1.421875 L 1.765625 -1.421875 L 1.765625 -1.171875 Z M 0.671875 -1.171875 "/></g></g><g transform="translate(46.345093, 38.66666)"><g><path d="M 1.09375 0.03125 C 0.9375 0.03125 0.796875 0.0078125 0.671875 -0.03125 C 0.546875 -0.0703125 0.441406 -0.125 0.359375 -0.1875 C 0.273438 -0.257812 0.210938 -0.335938 0.171875 -0.421875 L 0.328125 -0.625 L 0.375 -0.625 C 0.53125 -0.363281 0.769531 -0.234375 1.09375 -0.234375 C 1.28125 -0.234375 1.421875 -0.269531 1.515625 -0.34375 C 1.609375 -0.425781 1.65625 -0.535156 1.65625 -0.671875 C 1.65625 -0.753906 1.640625 -0.820312 1.609375 -0.875 C 1.578125 -0.9375 1.523438 -0.988281 1.453125 -1.03125 C 1.378906 -1.070312 1.285156 -1.109375 1.171875 -1.140625 L 0.875 -1.203125 C 0.65625 -1.253906 0.492188 -1.335938 0.390625 -1.453125 C 0.296875 -1.566406 0.25 -1.710938 0.25 -1.890625 C 0.25 -2.015625 0.28125 -2.125 0.34375 -2.21875 C 0.40625 -2.320312 0.492188 -2.398438 0.609375 -2.453125 C 0.734375 -2.503906 0.882812 -2.53125 1.0625 -2.53125 C 1.25 -2.53125 1.40625 -2.503906 1.53125 -2.453125 C 1.664062 -2.398438 1.769531 -2.320312 1.84375 -2.21875 L 1.703125 -2.03125 L 1.65625 -2.03125 C 1.582031 -2.113281 1.5 -2.175781 1.40625 -2.21875 C 1.3125 -2.257812 1.195312 -2.28125 1.0625 -2.28125 C 0.882812 -2.28125 0.75 -2.242188 0.65625 -2.171875 C 0.570312 -2.109375 0.53125 -2.019531 0.53125 -1.90625 C 0.53125 -1.789062 0.5625 -1.695312 0.625 -1.625 C 0.695312 -1.5625 0.804688 -1.507812 0.953125 -1.46875 L 1.265625 -1.40625 C 1.503906 -1.34375 1.675781 -1.253906 1.78125 -1.140625 C 1.894531 -1.023438 1.953125 -0.875 1.953125 -0.6875 C 1.953125 -0.550781 1.921875 -0.425781 1.859375 -0.3125 C 1.796875 -0.207031 1.695312 -0.125 1.5625 -0.0625 C 1.4375 0 1.28125 0.03125 1.09375 0.03125 Z M 1.09375 0.03125 "/></g></g></g></svg>