<svg xmlns="http://www.w3.org/2000/svg" xmlns:xlink="http://www.w3.org/1999/xlink" width="500" zoomAndPan="magnify" viewBox="0 0 375 374.999991" height="500" preserveAspectRatio="xMidYMid meet" version="1.0"><defs><clipPath id="b7e8618344"><path d="M 37.03125 0 L 335 0 L 335 375 L 37.03125 375 Z M 37.03125 0 " clip-rule="nonzero"/></clipPath><clipPath id="fa5e702275"><path d="M 37.03125 30 L 333 30 L 333 375 L 37.03125 375 Z M 37.03125 30 " clip-rule="nonzero"/></clipPath></defs><g clip-path="url(#b7e8618344)"><path fill="#1a3f39" d="M 326.535156 214.039062 C 326.535156 214.007812 326.527344 213.976562 326.527344 213.945312 C 326.492188 213.316406 326.429688 212.679688 326.339844 212.035156 C 329.101562 211.859375 331.898438 211.617188 334.714844 211.285156 L 324.613281 163.4375 C 324.613281 163.4375 324.621094 163.429688 324.644531 163.40625 C 324.652344 163.398438 324.667969 163.382812 324.675781 163.367188 C 324.691406 163.351562 324.707031 163.328125 324.730469 163.308594 C 324.75 163.285156 324.773438 163.253906 324.796875 163.222656 C 324.8125 163.199219 324.835938 163.175781 324.851562 163.15625 C 324.886719 163.109375 324.925781 163.0625 324.972656 163.011719 C 324.988281 162.996094 325.003906 162.972656 325.015625 162.957031 C 325.246094 162.667969 325.546875 162.257812 325.90625 161.734375 C 325.921875 161.714844 325.9375 161.691406 325.953125 161.667969 C 326.035156 161.539062 326.125 161.410156 326.21875 161.265625 C 326.230469 161.242188 326.246094 161.21875 326.261719 161.199219 C 326.65625 160.582031 327.082031 159.855469 327.523438 159.011719 C 327.539062 158.976562 327.5625 158.945312 327.578125 158.90625 C 327.667969 158.722656 327.765625 158.535156 327.855469 158.34375 C 327.886719 158.277344 327.917969 158.214844 327.949219 158.148438 C 328.039062 157.957031 328.128906 157.769531 328.222656 157.570312 C 328.253906 157.503906 328.28125 157.425781 328.320312 157.359375 C 331.015625 151.273438 333.105469 141.054688 326.066406 128.566406 C 325.078125 126.816406 324.167969 125.191406 323.324219 123.667969 L 334.144531 123.667969 L 334.144531 29.101562 L 278.671875 29.101562 C 277.664062 24.875 275.5 22.835938 275.5 22.835938 C 275.5 22.835938 278.742188 17.867188 274.855469 11.917969 C 270.957031 5.96875 265.226562 7.269531 265.226562 7.269531 C 265.226562 7.269531 262.953125 2.617188 258.734375 1.320312 C 254.511719 0.0234375 250.296875 2.945312 250.296875 2.945312 C 250.296875 2.945312 245.535156 0.675781 240.5625 1.539062 C 235.585938 2.40625 234.5 6.835938 234.5 6.835938 C 234.5 6.835938 229.632812 6.730469 227.796875 9.429688 C 225.957031 12.128906 226.5 14.832031 226.5 14.832031 C 226.5 14.832031 223.6875 16.5625 223.46875 19.589844 C 223.332031 21.476562 224.84375 22.949219 225.996094 23.785156 C 225.433594 25.558594 225.109375 27.378906 224.941406 29.101562 L 49.074219 29.101562 L 49.074219 123.652344 L 183.746094 123.652344 L 183.746094 144.75 L 148.90625 141.8125 L 148.222656 145.105469 C 144.53125 143.984375 138.214844 142.171875 133.324219 141.304688 C 125.964844 140.007812 119.042969 146.496094 114.5 149.734375 C 109.960938 152.972656 106.710938 156.652344 108.007812 157.730469 C 109.304688 158.808594 117.742188 152.328125 117.742188 152.328125 C 117.742188 152.328125 113.203125 157.730469 114.710938 158.164062 C 116.027344 158.535156 119.292969 155.175781 120.132812 154.269531 C 120.140625 154.324219 120.164062 154.378906 120.1875 154.429688 C 119.769531 155.507812 118.699219 158.558594 120.121094 158.375 C 121.5625 158.195312 124.804688 155.613281 125.84375 154.765625 C 125.980469 154.71875 126.109375 154.644531 126.195312 154.515625 C 126.195312 154.507812 126.195312 154.5 126.203125 154.5 C 126.40625 154.597656 131.683594 157.078125 136.355469 156.652344 C 138.875 156.425781 142.863281 155.957031 146.050781 155.5625 L 145.734375 157.085938 L 152.371094 159.105469 C 152.371094 159.105469 153.007812 161.257812 157.046875 163.714844 L 37.242188 163.714844 L 37.242188 173.519531 L 67.421875 173.519531 L 67.277344 175.269531 L 67.191406 176.25 L 51.441406 366.449219 C 51.40625 366.9375 51.609375 367.40625 51.988281 367.703125 C 52.863281 368.382812 54.152344 367.855469 54.296875 366.753906 L 79.320312 173.519531 L 188.902344 173.519531 C 192.609375 174.453125 196.199219 175.316406 199.683594 176.113281 C 204.292969 177.167969 210.050781 176.050781 215.539062 173.519531 L 231.835938 173.519531 L 231.996094 190.671875 L 174.132812 209.597656 L 174.734375 211.285156 C 170.488281 213.429688 156.757812 221.464844 159.507812 234.484375 C 162.082031 246.644531 179.585938 245.78125 186.746094 244.890625 L 187.230469 246.257812 L 187.855469 246.257812 C 185.972656 247.242188 184.679688 249.214844 184.679688 251.492188 C 184.679688 254.601562 187.101562 257.128906 190.15625 257.355469 L 188.144531 372.703125 L 209.207031 372.703125 L 214.886719 296.714844 C 215.410156 289.683594 221.144531 284.21875 228.136719 283.9375 L 234.59375 306.972656 L 246.324219 304.1875 L 237.8125 306.207031 C 237.859375 306.378906 237.910156 306.570312 237.972656 306.765625 C 237.972656 306.773438 237.980469 306.789062 237.980469 306.796875 C 238.132812 307.335938 238.304688 307.964844 238.496094 308.671875 C 238.542969 308.832031 238.585938 308.988281 238.632812 309.15625 C 238.753906 309.589844 238.875 310.042969 239.011719 310.523438 C 239.042969 310.636719 239.074219 310.742188 239.101562 310.855469 C 239.179688 311.144531 239.261719 311.433594 239.347656 311.734375 C 241.671875 320.097656 245.335938 333.25 246.066406 335.4375 C 246.53125 336.824219 246.515625 340.292969 246.347656 343.789062 L 244.980469 342.421875 C 244.980469 342.421875 240.941406 358.855469 238.921875 364.046875 C 236.902344 369.234375 236.324219 372.980469 241.230469 371.539062 C 246.136719 370.097656 271.238281 356.839844 273.257812 355.394531 C 275.277344 353.953125 276.144531 352.800781 274.703125 348.476562 C 273.257812 344.152344 268.929688 334.640625 268.066406 333.199219 C 267.945312 332.992188 267.640625 332.78125 267.191406 332.613281 C 266.175781 330.003906 265.210938 327.191406 265.105469 325.703125 C 264.921875 322.957031 261.625 305.902344 260.632812 300.78125 L 263.738281 300.046875 L 261.390625 283.902344 L 263.867188 283.902344 C 270.875 283.902344 276.773438 289.128906 277.609375 296.078125 L 287.109375 374.992188 L 307.308594 374.992188 L 303.566406 257.3125 C 306.480469 256.945312 308.75 254.488281 308.75 251.476562 C 308.75 248.214844 306.101562 245.566406 302.835938 245.566406 L 295.554688 245.566406 C 309.640625 243.003906 321.007812 234.914062 325.023438 224.121094 C 325.046875 224.050781 325.078125 223.984375 325.109375 223.914062 C 325.269531 223.476562 325.414062 223.027344 325.542969 222.578125 C 325.570312 222.488281 325.601562 222.398438 325.625 222.308594 C 325.753906 221.859375 325.867188 221.410156 325.964844 220.957031 C 325.988281 220.859375 326.011719 220.765625 326.035156 220.667969 C 326.132812 220.207031 326.21875 219.742188 326.292969 219.273438 C 326.308594 219.179688 326.324219 219.097656 326.332031 219.007812 C 326.398438 218.527344 326.453125 218.042969 326.496094 217.550781 C 326.503906 217.472656 326.511719 217.40625 326.511719 217.328125 C 326.550781 216.820312 326.574219 216.3125 326.582031 215.796875 C 326.582031 215.746094 326.582031 215.691406 326.582031 215.636719 C 326.582031 215.113281 326.566406 214.574219 326.535156 214.039062 Z M 208.730469 123.652344 C 208.105469 124.84375 207.492188 126.003906 206.898438 127.125 L 206.898438 123.652344 Z M 228.777344 163.714844 C 229.890625 162.425781 230.878906 161.078125 231.714844 159.679688 L 231.753906 163.714844 Z M 228.777344 163.714844 " fill-opacity="1" fill-rule="nonzero"/></g><g clip-path="url(#fa5e702275)"><path fill="#f3b458" d="M 303.566406 257.324219 L 307.308594 375.007812 L 287.109375 375.007812 L 277.609375 296.101562 C 276.773438 289.152344 270.875 283.925781 263.867188 283.925781 L 228.683594 283.925781 C 221.441406 283.925781 215.417969 289.507812 214.878906 296.722656 L 209.199219 372.707031 L 188.136719 372.707031 L 190.148438 257.363281 C 187.085938 257.136719 184.671875 254.609375 184.671875 251.5 C 184.671875 248.238281 187.324219 245.589844 190.589844 245.589844 L 302.828125 245.589844 C 306.09375 245.589844 308.746094 248.238281 308.746094 251.5 C 308.75 254.503906 306.480469 256.960938 303.566406 257.324219 Z M 37.242188 173.519531 L 67.421875 173.519531 L 51.441406 366.449219 C 51.40625 366.9375 51.609375 367.40625 51.988281 367.703125 C 52.863281 368.382812 54.152344 367.855469 54.296875 366.753906 L 79.320312 173.519531 L 309.609375 173.519531 L 309.609375 163.714844 L 37.242188 163.714844 Z M 194.132812 30.398438 L 50.226562 30.398438 L 50.226562 122.277344 L 194.132812 122.277344 Z M 198.023438 30.398438 L 198.023438 122.277344 L 332.277344 122.277344 L 332.277344 30.398438 Z M 198.023438 30.398438 " fill-opacity="1" fill-rule="nonzero"/></g><path fill="#6f262c" d="M 234.890625 58.066406 C 231.28125 57.347656 226.375 54.75 225.800781 45.671875 L 222.832031 44.882812 C 222.15625 44.699219 221.84375 43.933594 222.199219 43.335938 C 223.15625 41.75 224.734375 39.03125 224.933594 38.03125 C 225.222656 36.589844 221.472656 16.265625 237.773438 13.238281 C 254.078125 10.210938 268.21875 17.851562 266.628906 30.824219 C 265.042969 43.796875 259.703125 50.140625 257.394531 54.464844 C 255.085938 58.789062 259.847656 66.714844 259.847656 66.714844 L 244.121094 71.183594 C 244.121094 71.183594 243.113281 66.859375 241.957031 63.113281 C 240.796875 59.363281 238.488281 58.789062 234.890625 58.066406 Z M 114.5 149.734375 C 109.960938 152.972656 106.710938 156.652344 108.007812 157.730469 C 109.304688 158.808594 117.742188 152.328125 117.742188 152.328125 C 117.742188 152.328125 113.203125 157.730469 114.710938 158.164062 C 116.222656 158.59375 120.339844 154.058594 120.339844 154.058594 C 120.339844 154.058594 118.394531 158.59375 120.121094 158.382812 C 121.851562 158.164062 126.179688 154.492188 126.179688 154.492188 C 126.179688 154.492188 131.585938 157.085938 136.347656 156.652344 C 141.109375 156.222656 151.0625 154.921875 151.0625 154.921875 L 151.285156 146.0625 C 151.285156 146.0625 140.683594 142.601562 133.324219 141.304688 C 125.964844 140.007812 119.042969 146.496094 114.5 149.734375 Z M 159.507812 234.484375 C 162.082031 246.644531 179.585938 245.78125 186.746094 244.890625 L 174.734375 211.285156 C 170.488281 213.429688 156.757812 221.472656 159.507812 234.484375 Z M 269.652344 338.472656 C 269.652344 338.472656 265.324219 328.957031 265.113281 325.71875 C 264.929688 322.972656 261.632812 305.917969 260.640625 300.796875 L 237.820312 306.214844 C 239.398438 311.925781 245.140625 332.652344 246.066406 335.445312 C 247.144531 338.683594 245.632812 353.171875 245.632812 353.171875 Z M 269.652344 338.472656 " fill-opacity="1" fill-rule="nonzero"/><path fill="#5f95cb" d="M 334.714844 211.277344 C 279.03125 217.90625 231.996094 191.097656 231.996094 191.097656 L 231.707031 159.671875 C 225.359375 170.339844 209.777344 178.410156 199.675781 176.105469 C 189.578125 173.796875 178.613281 170.914062 166.203125 167.457031 C 153.796875 163.996094 152.355469 159.097656 152.355469 159.097656 L 145.71875 157.078125 L 148.890625 141.800781 L 196.785156 145.835938 C 196.785156 145.835938 205.441406 130.265625 214.964844 111.527344 C 224.484375 92.789062 237.183594 82.410156 237.183594 82.410156 L 236.894531 73.1875 L 259.976562 61.65625 L 262.863281 68.285156 C 262.863281 68.285156 294.027344 80.394531 303.832031 92.503906 C 313.640625 104.609375 314.507812 108.070312 326.050781 128.539062 C 337.59375 149.007812 324.605469 163.421875 324.605469 163.421875 Z M 268.066406 333.214844 C 267.199219 331.773438 257.964844 330.042969 249.308594 346.761719 L 244.980469 342.4375 C 244.980469 342.4375 240.941406 358.871094 238.921875 364.058594 C 236.902344 369.25 236.324219 372.996094 241.230469 371.554688 C 246.136719 370.113281 271.238281 356.851562 273.257812 355.410156 C 275.277344 353.96875 276.144531 352.816406 274.703125 348.492188 C 273.257812 344.167969 268.929688 334.65625 268.066406 333.214844 Z M 109.085938 74.933594 C 109.085938 87.585938 98.820312 97.851562 86.144531 97.851562 C 73.480469 97.851562 63.207031 87.59375 63.207031 74.933594 C 63.207031 62.277344 73.472656 52.011719 86.144531 52.011719 C 98.820312 52.011719 109.085938 62.277344 109.085938 74.933594 Z M 98.5 74.933594 C 98.5 68.117188 92.972656 62.589844 86.144531 62.589844 C 79.328125 62.589844 73.789062 68.113281 73.789062 74.933594 C 73.789062 81.746094 79.320312 87.273438 86.144531 87.273438 C 92.972656 87.273438 98.5 81.753906 98.5 74.933594 Z M 301.324219 84.664062 L 316.746094 84.664062 C 318.464844 84.664062 319.855469 83.277344 319.855469 81.5625 L 319.855469 49.070312 C 319.855469 47.355469 318.464844 45.964844 316.746094 45.964844 L 301.324219 45.964844 C 299.609375 45.964844 298.21875 47.355469 298.21875 49.070312 L 298.21875 81.554688 C 298.21875 83.269531 299.609375 84.664062 301.324219 84.664062 Z M 301.324219 84.664062 " fill-opacity="1" fill-rule="nonzero"/><path fill="#040202" d="M 223.453125 19.589844 C 223.664062 16.5625 226.484375 14.832031 226.484375 14.832031 C 226.484375 14.832031 225.945312 12.128906 227.78125 9.429688 C 229.617188 6.730469 234.488281 6.835938 234.488281 6.835938 C 234.488281 6.835938 235.566406 2.40625 240.546875 1.539062 C 245.519531 0.675781 250.28125 2.945312 250.28125 2.945312 C 250.28125 2.945312 254.503906 0.0234375 258.71875 1.320312 C 262.941406 2.617188 265.210938 7.269531 265.210938 7.269531 C 265.210938 7.269531 270.941406 5.96875 274.839844 11.917969 C 278.734375 17.867188 275.484375 22.835938 275.484375 22.835938 C 275.484375 22.835938 279.054688 26.1875 279.160156 33.214844 C 279.265625 40.238281 273.640625 41.210938 273.640625 41.210938 C 273.640625 41.210938 277.101562 45.746094 273.640625 50.398438 C 270.175781 55.046875 264.980469 53.53125 264.980469 53.53125 C 264.980469 53.53125 262.710938 60.015625 255.566406 60.554688 C 248.429688 61.09375 247.449219 54.828125 247.449219 54.828125 C 237.28125 55.90625 240.957031 45.640625 240.957031 45.640625 C 240.957031 45.640625 245.929688 42.285156 244.09375 35.367188 C 242.253906 28.449219 235.867188 32.992188 235.867188 32.992188 L 236.40625 35.15625 C 228.078125 34.828125 227.210938 24.566406 227.210938 24.566406 C 227.210938 24.566406 223.234375 22.617188 223.453125 19.589844 Z M 228.253906 39.335938 C 228.804688 39.335938 229.261719 38.878906 229.261719 38.328125 C 229.261719 37.773438 228.804688 37.316406 228.253906 37.316406 C 227.699219 37.316406 227.242188 37.773438 227.242188 38.328125 C 227.242188 38.878906 227.691406 39.335938 228.253906 39.335938 Z M 230.027344 34.503906 C 230.128906 34.554688 230.234375 34.585938 230.339844 34.585938 C 230.574219 34.585938 230.796875 34.464844 230.917969 34.246094 C 231.09375 33.925781 230.96875 33.53125 230.660156 33.359375 C 227.972656 31.894531 225.683594 33.320312 225.585938 33.378906 C 225.28125 33.578125 225.191406 33.980469 225.390625 34.285156 C 225.585938 34.585938 225.988281 34.671875 226.292969 34.480469 C 226.308594 34.464844 228.007812 33.402344 230.027344 34.503906 Z M 228.707031 48.847656 C 228.800781 48.855469 228.890625 48.855469 228.988281 48.855469 C 230.386719 48.855469 232.664062 48.21875 232.863281 45.722656 C 232.890625 45.359375 232.617188 45.046875 232.261719 45.019531 C 231.925781 44.996094 231.585938 45.261719 231.554688 45.617188 C 231.394531 47.636719 229.050781 47.550781 228.792969 47.535156 C 228.441406 47.515625 228.121094 47.789062 228.09375 48.152344 C 228.078125 48.515625 228.351562 48.828125 228.707031 48.847656 Z M 241.949219 63.113281 C 242.09375 63.582031 242.238281 64.058594 242.375 64.539062 L 244.769531 58.71875 L 236.816406 58.492188 C 239.332031 59.128906 241.023438 60.085938 241.949219 63.113281 Z M 262.863281 68.46875 C 262.796875 68.113281 262.453125 67.882812 262.097656 67.953125 C 249.21875 70.484375 238.003906 81.078125 237.53125 81.523438 C 237.273438 81.773438 237.257812 82.183594 237.507812 82.449219 C 237.636719 82.585938 237.8125 82.65625 237.980469 82.65625 C 238.140625 82.65625 238.304688 82.59375 238.433594 82.472656 C 238.550781 82.367188 249.847656 71.691406 262.347656 69.242188 C 262.703125 69.164062 262.941406 68.816406 262.863281 68.46875 Z M 242.792969 147.632812 L 252.445312 134.554688 C 252.695312 134.199219 258.625 125.699219 255.589844 108.335938 C 252.515625 90.765625 233.363281 88.148438 233.171875 88.125 C 232.824219 88.085938 232.488281 88.328125 232.445312 88.695312 C 232.398438 89.050781 232.648438 89.375 233.011719 89.421875 C 233.195312 89.445312 251.398438 91.957031 254.304688 108.5625 C 257.246094 125.335938 251.449219 133.710938 251.398438 133.789062 L 244.289062 143.421875 C 244.328125 143.324219 244.351562 143.253906 244.351562 143.253906 L 231.730469 159.6875 L 231.90625 178.386719 C 234.722656 170.519531 240.144531 155.167969 242.792969 147.632812 Z M 324.613281 163.429688 C 324.613281 163.429688 326.800781 160.992188 328.585938 156.707031 L 321.828125 143.582031 L 311.183594 102.871094 C 311.089844 102.523438 310.734375 102.320312 310.382812 102.402344 C 310.035156 102.492188 309.824219 102.851562 309.914062 103.199219 L 319.078125 138.234375 L 318.988281 138.058594 Z M 125.996094 153.617188 C 123.703125 152.164062 121.160156 149.628906 121.128906 149.597656 C 120.886719 149.355469 120.5 149.339844 120.242188 149.558594 L 118.078125 151.394531 C 117.804688 151.632812 117.765625 152.039062 118 152.320312 C 118.234375 152.59375 118.652344 152.632812 118.925781 152.398438 L 120.636719 150.949219 C 120.96875 151.265625 121.484375 151.746094 122.09375 152.277344 L 120.363281 153.65625 C 120.082031 153.882812 120.035156 154.292969 120.265625 154.574219 C 120.394531 154.734375 120.582031 154.816406 120.773438 154.816406 C 120.917969 154.816406 121.0625 154.773438 121.183594 154.671875 L 123.117188 153.125 C 123.808594 153.6875 124.554688 154.25 125.289062 154.710938 C 125.398438 154.78125 125.519531 154.808594 125.640625 154.808594 C 125.859375 154.808594 126.066406 154.703125 126.195312 154.507812 C 126.390625 154.210938 126.300781 153.808594 125.996094 153.617188 Z M 206.898438 127.414062 L 206.898438 123.578125 L 183.746094 123.578125 L 183.746094 138.621094 L 202.789062 134.597656 Z M 178.125 51.367188 L 178.125 99.582031 C 178.125 99.945312 177.832031 100.234375 177.472656 100.234375 L 121.644531 100.234375 C 121.28125 100.234375 120.992188 99.9375 120.992188 99.582031 L 120.992188 51.367188 C 120.992188 51.003906 121.289062 50.714844 121.644531 50.714844 L 177.472656 50.714844 C 177.832031 50.714844 178.125 51.003906 178.125 51.367188 Z M 122.292969 52.019531 L 122.292969 70.554688 C 122.292969 70.554688 122.300781 70.554688 122.300781 70.5625 C 122.390625 70.644531 131.433594 79.035156 134.652344 82.253906 C 135.125 82.722656 135.585938 82.914062 136.089844 82.84375 C 138.335938 82.546875 141.152344 77.632812 143.417969 73.679688 L 144 72.65625 C 146.710938 67.960938 149.742188 66.503906 150.890625 66.101562 C 151.140625 63.894531 153 62.164062 155.277344 62.164062 C 157.585938 62.164062 159.460938 63.9375 159.675781 66.183594 C 160.410156 66.640625 161.953125 68.035156 163.980469 72.261719 C 165.40625 75.234375 168.269531 77.359375 171.09375 77.550781 C 172.570312 77.640625 174.648438 77.246094 176.257812 74.78125 C 176.378906 74.589844 176.59375 74.5 176.796875 74.5 L 176.796875 52.019531 Z M 155.285156 63.484375 C 153.5625 63.484375 152.15625 64.886719 152.15625 66.609375 C 152.15625 68.332031 153.5625 69.734375 155.285156 69.734375 C 157.007812 69.734375 158.414062 68.332031 158.414062 66.609375 C 158.414062 64.886719 157.015625 63.484375 155.285156 63.484375 Z M 176.8125 98.929688 L 176.8125 76.265625 C 175.421875 77.964844 173.570312 78.882812 171.496094 78.882812 C 171.339844 78.882812 171.179688 78.875 171.019531 78.867188 C 167.738281 78.65625 164.4375 76.230469 162.8125 72.84375 C 161.375 69.863281 160.238281 68.445312 159.554688 67.777344 C 159.035156 69.660156 157.328125 71.054688 155.285156 71.054688 C 153.144531 71.054688 151.351562 69.53125 150.933594 67.511719 C 149.773438 68.027344 147.359375 69.484375 145.140625 73.324219 L 144.554688 74.339844 C 141.898438 78.976562 139.148438 83.761719 136.261719 84.148438 C 136.132812 84.164062 136.011719 84.171875 135.882812 84.171875 C 135.101562 84.171875 134.378906 83.839844 133.71875 83.1875 C 131.113281 80.582031 124.652344 74.550781 122.285156 72.351562 L 122.285156 98.933594 L 176.8125 98.933594 Z M 86.144531 52.011719 C 84.367188 52.011719 82.644531 52.234375 80.980469 52.621094 C 81.589844 55.554688 82.355469 59.320312 83.117188 62.984375 C 84.089844 62.742188 85.097656 62.597656 86.144531 62.597656 C 91.003906 62.597656 95.199219 65.410156 97.21875 69.484375 C 100.179688 67.800781 103.382812 65.996094 106.445312 64.28125 C 102.609375 56.988281 94.960938 52.011719 86.144531 52.011719 Z M 299.09375 81.152344 L 299.09375 49.472656 C 299.09375 48.296875 300.050781 47.339844 301.226562 47.339844 L 316.847656 47.339844 C 318.023438 47.339844 318.980469 48.296875 318.980469 49.472656 L 318.980469 81.160156 C 318.980469 82.335938 318.023438 83.292969 316.847656 83.292969 L 301.226562 83.292969 C 300.050781 83.292969 299.09375 82.335938 299.09375 81.152344 Z M 300.398438 81.152344 C 300.398438 81.609375 300.769531 81.980469 301.226562 81.980469 L 316.847656 81.980469 C 317.300781 81.980469 317.675781 81.609375 317.675781 81.152344 L 317.675781 49.472656 C 317.675781 49.015625 317.300781 48.644531 316.847656 48.644531 L 301.226562 48.644531 C 300.769531 48.644531 300.398438 49.015625 300.398438 49.472656 Z M 300.164062 256.960938 L 191.75 256.960938 C 191.386719 256.960938 191.097656 257.257812 191.097656 257.613281 C 191.097656 257.976562 191.394531 258.265625 191.75 258.265625 L 300.164062 258.265625 C 300.527344 258.265625 300.816406 257.972656 300.816406 257.613281 C 300.824219 257.257812 300.527344 256.960938 300.164062 256.960938 Z M 273.03125 348.484375 L 239.058594 365.78125 C 238.738281 365.949219 238.609375 366.34375 238.769531 366.664062 C 238.882812 366.890625 239.117188 367.019531 239.355469 367.019531 C 239.453125 367.019531 239.558594 366.996094 239.648438 366.949219 L 273.625 349.652344 C 273.941406 349.488281 274.070312 349.09375 273.914062 348.773438 C 273.753906 348.449219 273.351562 348.324219 273.03125 348.484375 Z M 67.277344 175.269531 L 67.191406 176.25 L 77.9375 184.207031 L 79.265625 173.949219 L 67.960938 173.949219 Z M 260.632812 300.804688 L 237.8125 306.222656 C 238.152344 307.464844 238.699219 309.421875 239.347656 311.75 Z M 156.179688 143.253906 C 155.824219 143.179688 155.484375 143.40625 155.40625 143.757812 L 152.589844 156.941406 C 152.515625 157.296875 152.742188 157.640625 153.089844 157.714844 C 153.136719 157.722656 153.183594 157.730469 153.226562 157.730469 C 153.53125 157.730469 153.804688 157.519531 153.867188 157.214844 L 156.675781 144.03125 C 156.757812 143.679688 156.539062 143.332031 156.179688 143.253906 Z M 274.199219 207.027344 C 274.199219 207.027344 281.773438 219.136719 305.578125 225.402344 C 312.046875 227.109375 318.738281 226.8125 324.46875 225.507812 C 326.253906 221.449219 326.96875 216.972656 326.375 212.238281 C 297.453125 213.414062 274.199219 207.027344 274.199219 207.027344 Z M 195.332031 146.539062 L 191.871094 151.296875 C 191.660156 151.59375 191.71875 152.003906 192.015625 152.207031 C 192.128906 152.292969 192.265625 152.335938 192.402344 152.335938 C 192.609375 152.335938 192.804688 152.246094 192.933594 152.0625 L 196.398438 147.308594 C 196.609375 147.011719 196.550781 146.601562 196.253906 146.394531 C 195.949219 146.183594 195.546875 146.246094 195.332031 146.539062 Z M 261.292969 203.976562 C 261.519531 203.695312 261.472656 203.28125 261.191406 203.058594 C 260.914062 202.832031 260.503906 202.878906 260.273438 203.160156 C 260.214844 203.234375 254.222656 210.578125 243.976562 212.875 C 242.695312 213.164062 240.820312 213.582031 238.519531 214.097656 L 248.96875 200.949219 C 249.195312 200.671875 249.140625 200.253906 248.859375 200.03125 C 248.582031 199.804688 248.164062 199.851562 247.941406 200.140625 L 237.121094 213.757812 C 236.960938 213.953125 236.945312 214.210938 237.046875 214.433594 C 219.527344 218.355469 182.097656 226.714844 182.097656 226.714844 L 182.386719 227.996094 C 182.386719 227.996094 233.675781 216.542969 244.273438 214.160156 C 254.964844 211.753906 261.042969 204.296875 261.292969 203.976562 Z M 261.292969 203.976562 " fill-opacity="1" fill-rule="nonzero"/></svg>