<svg xmlns="http://www.w3.org/2000/svg" xmlns:xlink="http://www.w3.org/1999/xlink" width="500" zoomAndPan="magnify" viewBox="0 0 375 374.999991" height="500" preserveAspectRatio="xMidYMid meet" version="1.0"><defs><g/><clipPath id="07763a4ae2"><path d="M 123 189 L 190 189 L 190 234.375 L 123 234.375 Z M 123 189 " clip-rule="nonzero"/></clipPath><clipPath id="31e17a84b3"><path d="M 196 128 L 273 128 L 273 234.375 L 196 234.375 Z M 196 128 " clip-rule="nonzero"/></clipPath><clipPath id="dfac61f445"><path d="M 113 78.164062 L 190 78.164062 L 190 198 L 113 198 Z M 113 78.164062 " clip-rule="nonzero"/></clipPath><clipPath id="9eeb746564"><path d="M 196 78.164062 L 261 78.164062 L 261 183 L 196 183 Z M 196 78.164062 " clip-rule="nonzero"/></clipPath></defs><g fill="#000a39" fill-opacity="1"><g transform="translate(42.86133, 286.576212)"><g><path d="M 9.585938 0 L 15.632812 0 L 15.632812 -20.957031 L 24.074219 -20.957031 L 24.074219 -26.625 L 1.140625 -26.625 L 1.140625 -20.957031 L 9.585938 -20.957031 Z M 9.585938 0 "/></g></g></g><g fill="#000a39" fill-opacity="1"><g transform="translate(68.073392, 286.576212)"><g><path d="M 3.195312 0 L 21.109375 0 L 21.109375 -5.132812 L 9.203125 -5.132812 L 9.203125 -10.953125 L 19.664062 -10.953125 L 19.664062 -16.011719 L 9.203125 -16.011719 L 9.203125 -21.527344 L 20.691406 -21.527344 L 20.691406 -26.625 L 3.195312 -26.625 Z M 3.195312 0 "/></g></g></g><g fill="#000a39" fill-opacity="1"><g transform="translate(91.117901, 286.576212)"><g><path d="M 15.402344 0.53125 C 22.402344 0.53125 27.839844 -3.726562 29.171875 -10.191406 L 22.933594 -10.191406 C 21.832031 -7.152344 19.015625 -5.210938 15.519531 -5.210938 C 10.992188 -5.210938 7.796875 -8.519531 7.796875 -13.3125 C 7.796875 -18.105469 11.03125 -21.414062 15.554688 -21.414062 C 18.941406 -21.414062 21.71875 -19.585938 22.746094 -16.660156 L 28.980469 -16.660156 C 27.460938 -23.050781 22.136719 -27.15625 15.367188 -27.15625 C 7.300781 -27.15625 1.636719 -21.453125 1.636719 -13.3125 C 1.636719 -5.171875 7.300781 0.53125 15.402344 0.53125 Z M 15.402344 0.53125 "/></g></g></g><g fill="#000a39" fill-opacity="1"><g transform="translate(121.805889, 286.576212)"><g><path d="M 19.664062 0 L 25.710938 0 L 25.710938 -26.625 L 19.664062 -26.625 L 19.664062 -16.394531 L 9.242188 -16.394531 L 9.242188 -26.625 L 3.195312 -26.625 L 3.195312 0 L 9.242188 0 L 9.242188 -10.726562 L 19.664062 -10.726562 Z M 19.664062 0 "/></g></g></g><g fill="#000a39" fill-opacity="1"><g transform="translate(150.706596, 286.576212)"><g><path d="M 3.195312 0 L 9.203125 0 L 9.203125 -16.050781 L 15.671875 -6.578125 L 19.855469 -6.578125 L 26.320312 -16.011719 L 26.320312 0 L 32.328125 0 L 32.328125 -26.625 L 27.234375 -26.625 L 17.800781 -12.816406 L 8.328125 -26.625 L 3.195312 -26.625 Z M 3.195312 0 "/></g></g></g><g fill="#000a39" fill-opacity="1"><g transform="translate(186.224033, 286.576212)"><g><path d="M 3.195312 0 L 21.109375 0 L 21.109375 -5.132812 L 9.203125 -5.132812 L 9.203125 -10.953125 L 19.664062 -10.953125 L 19.664062 -16.011719 L 9.203125 -16.011719 L 9.203125 -21.527344 L 20.691406 -21.527344 L 20.691406 -26.625 L 3.195312 -26.625 Z M 3.195312 0 "/></g></g></g><g fill="#000a39" fill-opacity="1"><g transform="translate(209.268542, 286.576212)"><g><path d="M 9.585938 0 L 15.632812 0 L 15.632812 -20.957031 L 24.074219 -20.957031 L 24.074219 -26.625 L 1.140625 -26.625 L 1.140625 -20.957031 L 9.585938 -20.957031 Z M 9.585938 0 "/></g></g></g><g fill="#000a39" fill-opacity="1"><g transform="translate(234.480604, 286.576212)"><g><path d="M 3.195312 0 L 9.242188 0 L 9.242188 -8.292969 L 13.234375 -8.292969 L 17.992188 0 L 24.988281 0 L 19.472656 -9.242188 C 22.667969 -10.648438 24.53125 -13.539062 24.53125 -17.457031 C 24.53125 -23.125 20.652344 -26.625 14.566406 -26.625 L 3.195312 -26.625 Z M 9.167969 -13.386719 L 9.167969 -21.453125 L 13.769531 -21.453125 C 16.734375 -21.453125 18.410156 -20.007812 18.410156 -17.417969 C 18.410156 -14.832031 16.734375 -13.386719 13.769531 -13.386719 Z M 9.167969 -13.386719 "/></g></g></g><g fill="#000a39" fill-opacity="1"><g transform="translate(261.25178, 286.576212)"><g><path d="M 3.195312 0 L 9.242188 0 L 9.242188 -26.625 L 3.195312 -26.625 Z M 3.195312 0 "/></g></g></g><g fill="#000a39" fill-opacity="1"><g transform="translate(273.686686, 286.576212)"><g><path d="M 15.402344 0.53125 C 22.402344 0.53125 27.839844 -3.726562 29.171875 -10.191406 L 22.933594 -10.191406 C 21.832031 -7.152344 19.015625 -5.210938 15.519531 -5.210938 C 10.992188 -5.210938 7.796875 -8.519531 7.796875 -13.3125 C 7.796875 -18.105469 11.03125 -21.414062 15.554688 -21.414062 C 18.941406 -21.414062 21.71875 -19.585938 22.746094 -16.660156 L 28.980469 -16.660156 C 27.460938 -23.050781 22.136719 -27.15625 15.367188 -27.15625 C 7.300781 -27.15625 1.636719 -21.453125 1.636719 -13.3125 C 1.636719 -5.171875 7.300781 0.53125 15.402344 0.53125 Z M 15.402344 0.53125 "/></g></g></g><g fill="#000a39" fill-opacity="1"><g transform="translate(304.37466, 286.576212)"><g><path d="M 0.34375 0 L 6.808594 0 L 8.597656 -4.601562 L 19.167969 -4.601562 L 20.957031 0 L 27.421875 0 L 16.847656 -26.625 L 10.914062 -26.625 Z M 10.15625 -9.355469 L 13.882812 -19.09375 L 17.648438 -9.355469 Z M 10.15625 -9.355469 "/></g></g></g><g clip-path="url(#07763a4ae2)"><path fill="#0e95e4" d="M 189.898438 189.621094 L 189.898438 212.839844 C 189.898438 224.746094 180.292969 234.359375 168.402344 234.359375 C 159.71875 234.359375 152.257812 229.183594 148.898438 221.789062 C 153.035156 219.976562 156.25 217.90625 156.25 217.90625 C 155.507812 218.015625 154.734375 218.089844 153.882812 218.203125 C 153.402344 218.203125 152.851562 218.203125 152.296875 218.203125 C 152 218.203125 151.742188 218.203125 151.558594 218.203125 C 151.261719 218.203125 151.003906 218.203125 150.707031 218.203125 C 150.414062 218.089844 150.152344 218.089844 149.96875 218.089844 C 149.671875 218.089844 149.414062 218.089844 149.121094 217.980469 C 148.824219 217.980469 148.640625 217.980469 148.378906 217.871094 C 148.085938 217.871094 147.902344 217.871094 147.640625 217.757812 C 136.894531 216.167969 127.84375 208.996094 123.707031 199.347656 C 123.816406 199.347656 124 199.347656 124.074219 199.457031 C 124.261719 199.457031 124.445312 199.457031 124.554688 199.566406 C 124.742188 199.566406 124.851562 199.679688 125.035156 199.679688 C 125.148438 199.679688 125.332031 199.789062 125.515625 199.789062 C 125.628906 199.789062 125.8125 199.902344 125.886719 199.902344 C 126.070312 199.902344 126.179688 199.902344 126.367188 200.011719 C 126.550781 200.011719 126.660156 200.011719 126.847656 200.121094 C 126.957031 200.121094 127.140625 200.121094 127.324219 200.121094 C 127.4375 200.234375 127.621094 200.234375 127.695312 200.234375 C 127.878906 200.34375 128.066406 200.34375 128.175781 200.34375 C 128.359375 200.34375 128.472656 200.457031 128.65625 200.457031 C 128.839844 200.457031 128.953125 200.457031 129.136719 200.457031 C 129.246094 200.566406 129.429688 200.566406 129.617188 200.566406 C 129.726562 200.566406 129.910156 200.675781 129.984375 200.675781 L 130.097656 200.675781 C 130.207031 200.675781 130.390625 200.675781 130.464844 200.675781 C 130.652344 200.789062 130.835938 200.789062 130.945312 200.789062 L 131.425781 200.789062 C 131.609375 200.898438 131.722656 200.898438 131.90625 200.898438 C 132.089844 200.898438 132.203125 200.898438 132.386719 200.898438 C 132.496094 201.007812 132.683594 201.007812 132.867188 201.007812 C 132.976562 201.007812 133.164062 201.007812 133.347656 201.007812 C 133.457031 201.007812 133.640625 201.007812 133.714844 201.121094 C 133.902344 201.121094 134.085938 201.121094 134.195312 201.121094 C 134.382812 201.121094 134.566406 201.121094 134.675781 201.121094 C 134.863281 201.121094 134.972656 201.121094 135.15625 201.121094 C 135.339844 201.121094 135.453125 201.230469 135.636719 201.230469 C 135.820312 201.230469 135.933594 201.230469 136.117188 201.230469 L 137.445312 201.230469 C 137.632812 201.230469 137.816406 201.230469 137.925781 201.230469 L 138.886719 201.230469 C 139.074219 201.230469 139.183594 201.230469 139.367188 201.230469 L 139.847656 201.230469 C 139.957031 201.230469 140.144531 201.230469 140.328125 201.230469 L 140.699219 201.230469 C 141.066406 201.230469 141.363281 201.230469 141.65625 201.230469 L 142.988281 201.230469 C 143.355469 201.121094 143.652344 201.121094 143.949219 201.121094 L 144.796875 201.121094 L 145.277344 201.007812 L 146.128906 201.007812 L 146.609375 200.898438 L 147.085938 200.898438 L 147.457031 200.789062 L 148.308594 200.789062 L 148.785156 200.675781 L 149.15625 200.675781 L 149.636719 200.566406 L 150.007812 200.566406 L 150.484375 200.457031 L 150.855469 200.457031 L 151.335938 200.34375 L 151.703125 200.34375 L 152.074219 200.234375 L 152.554688 200.121094 C 164.707031 198.382812 177.636719 194.613281 189.898438 189.621094 Z M 189.898438 189.621094 " fill-opacity="1" fill-rule="nonzero"/></g><g clip-path="url(#31e17a84b3)"><path fill="#0e95e4" d="M 196.289062 186.773438 L 196.289062 212.839844 C 196.289062 224.746094 205.890625 234.359375 217.710938 234.359375 C 226.394531 234.359375 233.855469 229.183594 237.328125 221.789062 C 233.1875 219.976562 229.863281 217.90625 229.863281 217.90625 C 230.605469 218.015625 231.453125 218.089844 232.230469 218.203125 C 232.78125 218.203125 233.375 218.203125 233.816406 218.203125 C 234.113281 218.203125 234.371094 218.203125 234.667969 218.203125 C 234.960938 218.203125 235.222656 218.203125 235.40625 218.203125 L 235.515625 218.203125 C 235.703125 218.089844 235.996094 218.089844 236.253906 218.089844 C 236.550781 218.089844 236.808594 218.089844 236.992188 217.980469 L 237.105469 217.980469 C 237.289062 217.980469 237.585938 217.980469 237.84375 217.871094 C 238.140625 217.871094 238.324219 217.871094 238.582031 217.757812 C 253.578125 215.503906 265.066406 202.453125 265.066406 186.8125 C 265.066406 183.707031 264.585938 180.601562 263.738281 177.753906 C 260.449219 178.050781 256.753906 177.457031 256.753906 177.457031 C 265.988281 171.984375 272.234375 161.964844 272.234375 150.46875 C 272.234375 142.074219 268.945312 134.421875 263.550781 128.839844 C 263.441406 129.136719 263.257812 129.503906 263.070312 129.800781 C 262.886719 130.097656 262.703125 130.464844 262.519531 130.761719 C 262.332031 131.132812 262.222656 131.425781 262.039062 131.722656 C 261.851562 132.09375 261.667969 132.390625 261.484375 132.683594 C 261.300781 133.054688 261.113281 133.351562 260.929688 133.644531 C 260.746094 133.941406 260.558594 134.3125 260.375 134.605469 C 260.191406 134.902344 260.007812 135.273438 259.820312 135.566406 C 259.636719 135.863281 259.453125 136.121094 259.15625 136.53125 C 258.972656 136.824219 258.789062 137.085938 258.601562 137.378906 C 258.417969 137.675781 258.234375 138.046875 257.9375 138.339844 C 257.753906 138.636719 257.566406 138.894531 257.382812 139.191406 C 257.199219 139.5625 256.902344 139.855469 256.71875 140.152344 C 256.535156 140.449219 256.238281 140.707031 256.054688 141.003906 C 255.871094 141.300781 255.574219 141.558594 255.390625 141.964844 C 255.203125 142.261719 254.910156 142.519531 254.722656 142.816406 C 254.539062 143.109375 254.242188 143.371094 254.058594 143.664062 C 253.765625 143.960938 253.578125 144.21875 253.320312 144.515625 C 253.136719 144.8125 252.839844 145.070312 252.65625 145.367188 C 252.359375 145.660156 252.175781 145.921875 251.917969 146.214844 C 251.730469 146.511719 251.4375 146.769531 251.253906 147.066406 C 250.957031 147.363281 250.773438 147.621094 250.511719 147.917969 C 250.328125 148.214844 250.03125 148.472656 249.773438 148.765625 C 249.589844 149.0625 249.292969 149.320312 249.035156 149.617188 C 248.851562 149.914062 248.554688 150.171875 248.296875 150.46875 C 248.113281 150.652344 247.816406 150.949219 247.558594 151.207031 C 247.375 151.503906 247.078125 151.761719 246.820312 152.058594 C 246.523438 152.355469 246.339844 152.539062 246.082031 152.796875 C 245.785156 153.09375 245.527344 153.351562 245.34375 153.648438 C 245.046875 153.832031 244.789062 154.128906 244.492188 154.386719 C 244.195312 154.683594 244.011719 154.941406 243.753906 155.125 C 243.457031 155.421875 243.199219 155.679688 242.902344 155.976562 C 242.609375 156.160156 242.425781 156.457031 242.164062 156.714844 C 241.871094 156.902344 241.609375 157.199219 241.316406 157.457031 C 241.019531 157.640625 240.761719 157.9375 240.464844 158.195312 C 240.171875 158.378906 239.914062 158.675781 239.617188 158.933594 C 239.320312 159.121094 239.136719 159.414062 238.878906 159.675781 C 238.582031 159.859375 238.324219 160.15625 238.027344 160.339844 C 237.734375 160.636719 237.472656 160.820312 237.179688 161.078125 C 236.882812 161.375 236.625 161.558594 236.328125 161.820312 C 236.035156 162.003906 235.773438 162.300781 235.480469 162.484375 C 235.183594 162.78125 234.816406 162.964844 234.519531 163.222656 C 234.222656 163.410156 233.964844 163.703125 233.667969 163.890625 C 233.375 164.183594 233.117188 164.371094 232.820312 164.628906 C 232.523438 164.8125 232.265625 165 231.96875 165.292969 C 231.675781 165.480469 231.417969 165.773438 231.011719 165.960938 C 230.714844 166.144531 230.457031 166.441406 230.160156 166.625 C 229.863281 166.921875 229.605469 167.105469 229.3125 167.289062 C 229.015625 167.585938 228.757812 167.769531 228.351562 167.957031 C 228.054688 168.253906 227.796875 168.4375 227.5 168.621094 C 227.207031 168.808594 226.945312 169.101562 226.539062 169.289062 C 226.246094 169.472656 225.988281 169.65625 225.691406 169.953125 C 225.394531 170.136719 225.136719 170.324219 224.730469 170.507812 C 224.433594 170.804688 224.175781 170.988281 223.882812 171.171875 C 223.585938 171.359375 223.328125 171.542969 222.921875 171.839844 C 222.625 172.023438 222.367188 172.207031 222.070312 172.394531 C 221.777344 172.578125 221.40625 172.761719 221.109375 172.949219 C 220.816406 173.132812 220.558594 173.429688 220.261719 173.613281 C 219.890625 173.796875 219.597656 173.984375 219.300781 174.167969 C 219.003906 174.351562 218.746094 174.539062 218.339844 174.722656 C 218.046875 174.90625 217.785156 175.09375 217.492188 175.277344 C 217.195312 175.460938 216.824219 175.648438 216.53125 175.832031 C 216.234375 176.015625 215.976562 176.203125 215.679688 176.386719 C 215.3125 176.570312 215.015625 176.753906 214.71875 176.941406 C 214.425781 177.125 214.167969 177.308594 213.761719 177.496094 C 208.292969 180.859375 202.421875 183.964844 196.289062 186.773438 Z M 196.289062 186.773438 " fill-opacity="1" fill-rule="nonzero"/></g><g clip-path="url(#dfac61f445)"><path fill="#38b6ff" d="M 169.730469 105.324219 C 174.53125 106.359375 179.261719 103.253906 180.292969 98.449219 C 181.328125 93.640625 178.300781 88.835938 173.5 87.800781 C 168.585938 86.765625 163.894531 89.871094 162.859375 94.675781 C 161.824219 99.484375 164.890625 104.289062 169.730469 105.324219 Z M 173.019531 150.246094 C 176.894531 150.984375 180.554688 148.65625 181.402344 144.773438 C 182.253906 141.003906 179.816406 137.230469 176.011719 136.457031 C 172.132812 135.605469 168.476562 138.046875 167.625 141.855469 C 166.777344 145.625 169.25 149.394531 173.019531 150.246094 Z M 141.511719 142.890625 C 138.960938 142.410156 136.523438 142.890625 134.457031 144.21875 C 132.460938 145.550781 130.984375 147.621094 130.390625 150.0625 C 129.910156 152.613281 130.390625 155.164062 131.722656 157.125 C 133.050781 159.082031 135.121094 160.597656 137.558594 161.191406 C 140.105469 161.746094 142.65625 161.191406 144.613281 159.859375 C 146.609375 158.527344 148.085938 156.570312 148.675781 154.019531 C 149.230469 151.464844 148.675781 149.027344 147.347656 146.957031 C 146.128906 144.996094 144.058594 143.480469 141.511719 142.890625 Z M 126.992188 160.191406 C 129.0625 163.410156 132.386719 165.847656 136.414062 166.699219 C 140.476562 167.550781 144.429688 166.699219 147.640625 164.628906 C 148.308594 164.257812 148.972656 163.777344 149.527344 163.222656 L 157.835938 169.914062 C 157.46875 170.65625 157.171875 171.433594 156.988281 172.171875 C 155.84375 177.570312 159.242188 182.820312 164.632812 183.964844 C 170.027344 185.113281 175.199219 181.710938 176.417969 176.3125 C 177.5625 171.023438 174.164062 165.738281 168.769531 164.589844 C 165.851562 163.925781 162.933594 164.703125 160.644531 166.402344 L 152.445312 159.710938 C 153.183594 158.304688 153.847656 156.863281 154.144531 155.164062 C 155.101562 151.207031 154.253906 147.140625 152.148438 143.925781 C 151.113281 142.335938 149.710938 140.890625 148.195312 139.78125 L 153.109375 129.761719 L 153.292969 129.875 C 158.574219 131.019531 163.859375 127.621094 165.003906 122.222656 C 166.148438 116.824219 162.75 111.648438 157.46875 110.425781 C 152.074219 109.28125 146.828125 112.683594 145.683594 118.082031 C 144.835938 121.851562 146.238281 125.546875 149.082031 127.804688 L 144.097656 137.824219 C 143.617188 137.640625 143.136719 137.527344 142.765625 137.453125 C 138.703125 136.605469 134.640625 137.453125 131.464844 139.523438 C 128.285156 141.59375 125.8125 144.921875 124.960938 148.953125 C 124.113281 152.980469 124.925781 156.976562 126.992188 160.191406 Z M 172.351562 78.148438 C 182.066406 78.148438 189.898438 86.0625 189.898438 95.785156 L 189.898438 185.445312 C 177.5625 190.621094 164.449219 194.613281 151.59375 196.3125 L 151.226562 196.425781 L 150.746094 196.425781 L 150.375 196.535156 L 149.894531 196.535156 L 149.527344 196.648438 L 149.046875 196.648438 L 148.675781 196.757812 L 148.195312 196.757812 L 147.828125 196.867188 L 147.347656 196.867188 L 146.867188 196.980469 L 146.386719 196.980469 L 146.015625 197.089844 L 145.09375 197.089844 L 144.613281 197.203125 L 143.652344 197.203125 L 143.28125 197.3125 L 141.84375 197.3125 C 141.65625 197.3125 141.472656 197.3125 141.363281 197.3125 L 140.882812 197.3125 C 140.699219 197.421875 140.511719 197.421875 140.402344 197.421875 C 140.21875 197.421875 140.03125 197.421875 139.921875 197.421875 L 139.550781 197.421875 C 139.367188 197.421875 139.183594 197.421875 139.074219 197.421875 C 138.886719 197.421875 138.703125 197.421875 138.59375 197.421875 C 138.40625 197.421875 138.222656 197.421875 138.113281 197.421875 L 138 197.421875 C 137.890625 197.421875 137.707031 197.421875 137.519531 197.421875 C 137.410156 197.421875 137.226562 197.421875 137.039062 197.421875 L 136.558594 197.3125 C 136.449219 197.3125 136.265625 197.3125 136.082031 197.3125 C 135.894531 197.3125 135.785156 197.3125 135.601562 197.3125 C 135.414062 197.3125 135.304688 197.3125 135.121094 197.3125 L 134.640625 197.3125 C 134.457031 197.203125 134.269531 197.203125 134.160156 197.203125 C 133.976562 197.203125 133.789062 197.203125 133.679688 197.203125 C 133.496094 197.203125 133.308594 197.203125 133.199219 197.203125 C 133.015625 197.089844 132.828125 197.089844 132.644531 197.089844 C 132.535156 197.089844 132.351562 197.089844 132.164062 197.089844 C 132.054688 197.089844 131.871094 196.980469 131.683594 196.980469 C 131.574219 196.980469 131.390625 196.980469 131.203125 196.980469 C 131.019531 196.867188 130.910156 196.867188 130.722656 196.867188 C 130.539062 196.867188 130.429688 196.867188 130.246094 196.867188 C 130.058594 196.757812 129.949219 196.757812 129.765625 196.757812 C 129.578125 196.757812 129.46875 196.648438 129.285156 196.648438 C 129.097656 196.648438 128.988281 196.648438 128.804688 196.535156 C 128.617188 196.535156 128.507812 196.535156 128.324219 196.535156 C 128.140625 196.425781 128.027344 196.425781 127.84375 196.425781 C 127.660156 196.425781 127.546875 196.3125 127.363281 196.3125 C 127.179688 196.3125 127.066406 196.203125 126.882812 196.203125 C 126.699219 196.203125 126.585938 196.09375 126.402344 196.09375 C 126.21875 196.09375 126.105469 195.980469 125.921875 195.980469 C 125.738281 195.980469 125.628906 195.871094 125.441406 195.871094 C 125.257812 195.871094 125.148438 195.757812 124.960938 195.757812 C 124.777344 195.757812 124.667969 195.648438 124.480469 195.648438 C 124.371094 195.539062 124.1875 195.539062 124 195.539062 C 123.890625 195.425781 123.707031 195.425781 123.632812 195.351562 C 123.449219 195.351562 123.261719 195.351562 123.152344 195.242188 C 122.96875 195.242188 122.855469 195.132812 122.671875 195.132812 C 122.488281 195.019531 122.375 195.019531 122.191406 194.945312 C 122.082031 194.945312 121.894531 194.835938 121.710938 194.835938 C 121.046875 192.285156 120.675781 189.546875 120.675781 186.703125 C 120.675781 183.59375 121.15625 180.488281 122.007812 177.644531 C 125.292969 177.9375 128.988281 177.347656 128.988281 177.347656 C 119.753906 171.875 113.621094 161.855469 113.621094 150.355469 C 113.621094 139.894531 118.71875 130.539062 126.625 124.882812 C 130.023438 129.800781 138.40625 128.65625 138.40625 128.65625 C 134.085938 125.4375 131.351562 120.335938 131.351562 114.492188 C 131.351562 104.882812 139.183594 96.933594 148.898438 96.933594 C 149.007812 96.933594 149.082031 96.933594 149.265625 96.933594 C 150.78125 101.367188 156.433594 103.625 156.433594 103.625 C 155.214844 101.257812 154.4375 98.523438 154.4375 95.601562 C 154.734375 86.0625 162.636719 78.148438 172.351562 78.148438 Z M 172.351562 78.148438 " fill-opacity="1" fill-rule="nonzero"/></g><g clip-path="url(#9eeb746564)"><path fill="#38b6ff" d="M 216.492188 105.324219 C 211.691406 106.359375 206.890625 103.253906 205.855469 98.449219 C 204.820312 93.640625 207.925781 88.835938 212.726562 87.800781 C 217.527344 86.765625 222.328125 89.871094 223.363281 94.675781 C 224.398438 99.484375 221.296875 104.289062 216.492188 105.324219 Z M 213.09375 150.246094 C 209.328125 150.984375 205.558594 148.65625 204.710938 144.773438 C 203.972656 141.003906 206.410156 137.230469 210.175781 136.457031 C 213.945312 135.605469 217.710938 138.046875 218.488281 141.855469 C 219.300781 145.625 216.863281 149.394531 213.09375 150.246094 Z M 237.804688 155.273438 C 237.695312 154.90625 237.621094 154.425781 237.511719 154.054688 C 236.957031 151.503906 237.511719 149.0625 238.730469 146.992188 C 240.058594 144.996094 242.128906 143.515625 244.675781 142.925781 C 246.265625 142.554688 247.964844 142.742188 249.480469 143.222656 L 249.367188 143.332031 C 249.183594 143.628906 248.886719 143.886719 248.703125 144.183594 C 248.40625 144.480469 248.222656 144.664062 247.964844 144.921875 C 247.78125 145.21875 247.484375 145.476562 247.226562 145.773438 C 247.042969 146.070312 246.746094 146.328125 246.5625 146.625 C 246.265625 146.917969 246.082031 147.175781 245.820312 147.363281 C 245.527344 147.660156 245.34375 147.917969 245.082031 148.214844 C 244.789062 148.507812 244.601562 148.765625 244.34375 148.953125 C 244.050781 149.25 243.863281 149.507812 243.605469 149.800781 C 243.308594 150.097656 243.050781 150.285156 242.867188 150.542969 C 242.570312 150.839844 242.3125 151.097656 242.015625 151.28125 C 241.832031 151.578125 241.539062 151.835938 241.277344 152.132812 C 240.984375 152.316406 240.796875 152.613281 240.539062 152.871094 C 240.246094 153.054688 239.984375 153.351562 239.691406 153.609375 C 239.394531 153.796875 239.210938 154.089844 238.953125 154.351562 C 238.65625 154.535156 238.398438 154.832031 238.101562 155.089844 Z M 213.835938 78.148438 C 204.121094 78.148438 196.289062 86.0625 196.289062 95.785156 L 196.289062 182.523438 C 200.90625 180.34375 205.339844 178.085938 209.695312 175.648438 C 208.957031 170.542969 212.320312 165.628906 217.417969 164.589844 C 220.039062 164.039062 222.589844 164.480469 224.769531 165.921875 L 225.246094 165.554688 C 225.542969 165.257812 225.800781 165.074219 226.097656 164.886719 C 226.394531 164.703125 226.652344 164.40625 226.945312 164.222656 C 227.316406 164.039062 227.613281 163.742188 227.90625 163.554688 C 228.203125 163.371094 228.460938 163.074219 228.757812 162.890625 C 229.050781 162.707031 229.3125 162.410156 229.605469 162.226562 C 229.902344 161.929688 230.160156 161.746094 230.457031 161.558594 C 230.75 161.265625 231.011719 161.078125 231.304688 160.820312 C 231.601562 160.636719 231.859375 160.339844 232.15625 160.15625 C 232.449219 159.96875 232.710938 159.675781 233.003906 159.488281 L 233.375 159.121094 C 232.820312 157.898438 232.230469 156.570312 231.96875 155.164062 C 231.121094 151.207031 231.96875 147.140625 234.039062 143.925781 C 235.074219 142.335938 236.402344 140.890625 237.992188 139.78125 L 233.078125 129.761719 L 232.894531 129.875 C 227.5 131.019531 222.328125 127.621094 221.109375 122.222656 C 219.964844 116.824219 223.363281 111.648438 228.757812 110.425781 C 234.148438 109.28125 239.320312 112.683594 240.539062 118.082031 C 241.277344 121.851562 239.875 125.546875 237.140625 127.804688 L 242.054688 137.824219 C 242.535156 137.640625 243.015625 137.527344 243.457031 137.453125 C 246.855469 136.714844 250.253906 137.15625 253.0625 138.601562 L 253.429688 138.121094 C 253.617188 137.824219 253.800781 137.566406 253.984375 137.269531 C 254.28125 136.972656 254.464844 136.714844 254.648438 136.308594 C 254.835938 136.011719 255.019531 135.753906 255.316406 135.457031 C 255.5 135.160156 255.683594 134.902344 255.867188 134.605469 C 256.054688 134.238281 256.238281 133.941406 256.421875 133.644531 C 256.609375 133.351562 256.792969 133.089844 256.976562 132.683594 C 257.160156 132.386719 257.347656 132.128906 257.53125 131.835938 C 257.714844 131.464844 257.902344 131.167969 258.085938 130.871094 C 258.269531 130.578125 258.453125 130.207031 258.640625 129.910156 C 258.824219 129.617188 259.007812 129.355469 259.121094 128.949219 C 259.304688 128.65625 259.488281 128.394531 259.671875 127.988281 C 259.859375 127.691406 259.96875 127.433594 260.152344 127.027344 C 260.339844 126.730469 260.523438 126.472656 260.632812 126.066406 C 260.152344 125.695312 259.671875 125.328125 259.121094 124.921875 C 255.722656 129.835938 247.410156 128.691406 247.410156 128.691406 C 251.65625 125.476562 254.464844 120.371094 254.464844 114.53125 C 254.464844 104.917969 246.5625 96.96875 236.921875 96.96875 C 236.734375 96.96875 236.625 96.96875 236.550781 96.96875 C 235.035156 101.40625 229.273438 103.660156 229.273438 103.660156 C 230.605469 101.292969 231.269531 98.558594 231.269531 95.636719 C 231.378906 86.0625 223.546875 78.148438 213.835938 78.148438 Z M 213.835938 78.148438 " fill-opacity="1" fill-rule="nonzero"/></g><path fill="#0e95e4" d="M 262.519531 82.585938 C 273.15625 92.605469 272.601562 106.839844 267.429688 120.519531 C 258.195312 144.960938 235.847656 164.589844 213.871094 177.644531 C 195.585938 188.511719 173.425781 197.277344 152.183594 200.121094 C 137.300781 202.191406 116.910156 201.933594 106.273438 189.546875 C 102.023438 184.632812 100.066406 178.605469 99.769531 172.171875 C 99.660156 170.101562 99.769531 167.917969 99.957031 165.847656 C 99.105469 167.917969 98.367188 169.988281 97.777344 172.171875 C 93.34375 187.367188 96.925781 200.011719 110.59375 208.699219 C 112.292969 209.847656 114.066406 210.769531 115.984375 211.621094 C 122.96875 214.910156 130.503906 216.425781 138.148438 216.722656 C 146.644531 217.019531 155.214844 215.761719 163.523438 213.691406 C 182.179688 209.070312 200.5 199.902344 216.417969 189.328125 C 235 177.050781 253.652344 160.710938 266.582031 142.40625 C 271.679688 135.234375 276.480469 127.027344 278.917969 118.523438 C 280.800781 112.015625 281.539062 104.84375 279.101562 98.335938 C 276.371094 90.792969 270.054688 85.878906 262.519531 82.585938 Z M 262.519531 82.585938 " fill-opacity="1" fill-rule="nonzero"/></svg>